<svg width="77" height="78" fill="none" xmlns="http://www.w3.org/2000/svg"><g clip-path="url(#clip0_183_118)"><path d="M39.285 31.91v15.103h21.143c-.928 4.857-3.714 8.97-7.893 11.736l12.75 9.82C72.714 61.764 77 51.765 77 39.888c0-2.766-.25-5.425-.714-7.977h-37z" fill="#4285F4"/><path d="M17.268 46.423l-2.875 2.186-10.18 7.87C10.679 69.207 23.928 78 39.285 78c10.607 0 19.5-3.474 26-9.43l-12.75-9.821c-3.5 2.34-7.964 3.758-13.25 3.758-10.214 0-18.892-6.843-22-16.061l-.016-.023z" fill="#34A853"/><path d="M4.214 21.521A38.293 38.293 0 000 39a38.3 38.3 0 004.214 17.479c0 .035 13.072-10.07 13.072-10.07-.786-2.34-1.25-4.82-1.25-7.41 0-2.588.464-5.07 1.25-7.41L4.214 21.521z" fill="#FBBC05"/><path d="M39.285 15.53c5.786 0 10.929 1.985 15.036 5.814l11.25-11.168C58.749 3.865 49.893 0 39.285 0 23.928 0 10.678 8.757 4.214 21.521l13.071 10.07c3.107-9.22 11.786-16.062 22-16.062z" fill="#EA4335"/></g><defs><clipPath id="clip0_183_118"><path fill="#fff" d="M0 0h77v78H0z"/></clipPath></defs></svg>