<svg width="44" height="44" fill="none" xmlns="http://www.w3.org/2000/svg"><path d="M31.333 42H12.667C6.8 42 2 37.2 2 31.333V12.667C2 6.8 6.8 2 12.667 2h18.666C37.2 2 42 6.8 42 12.667v18.666C42 37.2 37.2 42 31.333 42z" stroke="#FDF551" stroke-width="3" stroke-miterlimit="10" stroke-linecap="round" stroke-linejoin="round"/><path d="M35.333 22h-6.666v-3.733c0-.934.666-1.6 1.6-1.6H34V10h-5.333C24.933 10 22 12.933 22 16.667V22h-5.333v6.667H22V42h6.667V28.667h4L35.333 22z" stroke="#FDF551" stroke-width="3" stroke-miterlimit="10" stroke-linecap="round" stroke-linejoin="round"/></svg>