<svg width="342" height="39" fill="none" xmlns="http://www.w3.org/2000/svg"><g clip-path="url(#clip0_131_286)" fill="#fff"><path d="M298.69 38.173h-8.892v-21.36l-.234-.073c-.154.352-.318.7-.461 1.059-2.573 6.504-5.14 13.01-7.701 19.517-.257.657-.545.958-1.296.924a51.179 51.179 0 00-4.482 0c-.72.028-1.04-.215-1.307-.892-2.531-6.484-5.105-12.949-7.669-19.418a2.555 2.555 0 00-.663-1.033V38.16h-9.01V.79h1.522c2.595 0 5.193.03 7.786-.019.732-.013 1.04.251 1.313.904a4828.78 4828.78 0 009.754 23.074c.15.355.318.7.545 1.195 1.404-3.328 2.753-6.51 4.096-9.698 2.021-4.802 4.055-9.6 6.038-14.416.314-.758.666-1.074 1.541-1.074 3.014.069 6.03.026 9.12.026v37.391zm-72.144-15.211v15.192h-9.052V.865h31.615v22.046h-7.684l10.948 15.21c-.367.041-.625.093-.882.095-2.881 0-5.763-.02-8.644.02-.655 0-1.014-.233-1.37-.755-3.123-4.568-6.284-9.109-9.392-13.683-.427-.645-.89-.894-1.652-.86-1.24.071-2.484.024-3.887.024zm14.459-13.885h-14.373v5.668h14.379l-.006-5.668zM192.043 0c5.187.099 9.921 1.375 13.763 5.103 2.988 2.904 4.517 6.534 5.074 10.61.489 3.58.405 7.16-.626 10.632-2.091 7.045-6.924 11.033-14.029 12.28a23.682 23.682 0 01-10.566-.49c-7.069-1.987-11.792-7.846-12.48-15.33-.298-3.268-.252-6.507.609-9.686 1.961-7.245 6.796-11.33 14.021-12.672 1.385-.27 2.821-.307 4.234-.447zm9.859 19.9c-.128-1.33-.185-2.363-.335-3.388-.715-4.873-4.158-8.114-8.828-8.344-5.063-.251-8.806 2.51-10.032 7.438a17.077 17.077 0 00-.106 7.444c.922 4.637 4.395 7.644 8.992 7.831 4.768.194 8.474-2.457 9.68-7.038.36-1.368.454-2.814.629-3.944zM31.803 22.973H9.095V38.13H0V.84h31.803v22.133zM9.097 14.728H23.69v-5.67H9.097v5.67zm96.178 23.484c-3.134 0-6.154.02-9.178-.035-.274 0-.67-.43-.788-.755a517.69 517.69 0 01-3.486-9.666c-.234-.676-.554-.928-1.295-.917-3.02.049-6.041.049-9.065 0-.758 0-1.116.215-1.37.954-1.106 3.204-2.297 6.379-3.416 9.577-.213.634-.522.872-1.214.859-2.903-.043-5.808-.02-8.854-.02 1.115-2.923 2.18-5.715 3.243-8.507 3.538-9.307 7.072-18.614 10.6-27.921.28-.752.61-1.04 1.431-1.023 2.775.058 5.55.035 8.325 0 .597 0 .947.123 1.189.758 4.542 12.028 9.102 24.045 13.681 36.052.062.154.101.326.197.644zM85.973 10.853c-1.125 3.162-2.156 6.057-3.202 9.02h6.418a2026.03 2026.03 0 01-3.216-9.02zm217.349 27.359l3.895-10.233a13897.93 13897.93 0 009.953-26.218c.29-.77.64-1.011 1.449-.996 2.775.051 5.55.03 8.325.01.544 0 .9.075 1.129.679a16839.67 16839.67 0 0013.758 36.223c.047.129.086.262.175.535-2.348 0-4.61.01-6.866 0-.95 0-2.122.253-2.788-.202-.623-.43-.715-1.643-1.031-2.515-.924-2.55-1.863-5.095-2.749-7.657-.241-.7-.542-1.014-1.347-.999-3.056.056-6.113.045-9.178 0-.696 0-.99.243-1.212.874-1.123 3.198-2.303 6.375-3.415 9.575-.231.664-.502.958-1.264.945-2.881-.047-5.759-.021-8.834-.021zm22.567-18.345c-1.067-2.979-2.089-5.861-3.214-9.02-1.125 3.172-2.15 6.06-3.202 9.02h6.416zM150.603 8.66v5.688h17.114v7.824h-17.088V38.13h-9.088V.885h27.961V8.66h-18.899zm-26.936 29.52h-9.104V8.981c-.469-.024-.853-.06-1.216-.06-3.59 0-7.182-.024-10.773.013-.774 0-1.067-.187-1.041-1.014.053-2.317.019-4.64.019-7.045h34.892v8.046h-12.777v29.257zm-86.333-.022V.885h9.04v29.21h19.113v8.059l-28.153.004z"/></g><defs><clipPath id="clip0_131_286"><path fill="#fff" d="M0 0h342v39H0z"/></clipPath></defs></svg>