<svg width="351" height="68" fill="none" xmlns="http://www.w3.org/2000/svg"><path d="M105.09 21.486l-.076-.495-.076.495c-1.177 7.085-6.684 12.647-13.786 13.828l-.494.077.494.076a16.762 16.762 0 0113.786 13.828l.076.495.076-.495c1.178-7.086 6.685-12.647 13.787-13.828l.494-.076-.494-.077c-7.064-1.18-12.609-6.743-13.787-13.828z" fill="#fff"/><path d="M105.014 2.781c-17.926 0-32.51 14.629-32.51 32.61 0 17.98 14.584 32.61 32.51 32.61 17.927 0 32.511-14.63 32.511-32.61 0-17.981-14.546-32.61-32.511-32.61zm27.992 30.286l-9.837-1.296c-.798-9.104-4.558-17.447-10.483-23.504 11.053 3.162 19.37 12.952 20.32 24.8zM118.649 31.2l-5.393-.724a4.126 4.126 0 01-3.342-3.352l-2.279-17.486c6.077 5.22 10.027 12.952 11.014 21.562zM102.432 9.676l-2.279 17.486a4.126 4.126 0 01-3.342 3.352l-5.393.686c.987-8.61 4.975-16.343 11.014-21.524zm-5.052-1.41c-5.924 6.058-9.684 14.4-10.482 23.505l-9.875 1.296c.988-11.848 9.305-21.638 20.358-24.8zm-20.319 29.41l9.875 1.295c.798 9.105 4.558 17.448 10.482 23.505-11.09-3.124-19.407-12.952-20.357-24.8zm14.357 1.905l5.393.686a4.126 4.126 0 013.342 3.352l2.279 17.486c-6.039-5.181-10.027-12.953-11.014-21.524zm14.09 3.429l-.494 3.695-.493-3.695v-.077a8.565 8.565 0 00-7.027-7.047h-.076l-3.684-.495 3.684-.496h.076a8.565 8.565 0 007.027-7.047v-.076l.493-3.696.494 3.695v.077a8.565 8.565 0 007.026 7.047h.076l3.685.495-3.685.496h-.076a8.565 8.565 0 00-7.026 7.047v.077zm2.127 18.095l2.279-17.486a4.126 4.126 0 013.342-3.352l5.393-.724c-.987 8.648-4.937 16.38-11.014 21.562zm5.051 1.371c5.925-6.057 9.685-14.4 10.483-23.505l9.837-1.295c-.95 11.848-9.267 21.638-20.32 24.8zM9.115 57.143L0 14.286h18.078l2.773 18.552c.304 1.981.684 5.181.95 8.762h.607c.266-3.581.608-6.743.95-8.914l2.62-18.438h17.053l3.039 18.361c.38 2.4.76 5.562.987 8.99h.684c.19-3.428.532-6.551.835-8.761l2.393-18.552h17.547l-9.078 42.857H37.334l-1.557-12.495c-.532-4.343-.95-8.458-1.291-13.296h-.646c-.228 4.838-.646 9.029-1.177 13.296L31.22 57.143H9.114zm136.5 0V14.286h19.446c.114 2.933-.304 5.143-1.785 9.333l.607.495c4.064-7.124 9.229-10.667 17.205-10.667 8.963 0 13.939 4.686 13.939 14.362v29.334h-19.788v-22.02c0-3.923-1.329-5.752-4.139-5.752-3.685 0-5.735 3.924-5.735 11.01v16.762h-19.75zm56.096-21.372v-.152c0-15.238 5.393-22.552 16.597-22.552 6.875 0 11.698 3.428 14.889 10.552l.607-.419c-1.329-4.724-1.785-8.076-1.785-12.648V0h19.788v57.143h-19.75c0-1.79.532-4.914 1.785-9.372l-.608-.38c-3.152 7.123-7.975 10.552-14.888 10.552-11.204 0-16.635-7.238-16.635-22.172zm30.346.305v-1.143c0-5.752-1.785-8.533-5.393-8.533-3.456 0-5.127 2.78-5.127 8.533v1.143c0 5.715 1.671 8.457 5.127 8.457 3.608 0 5.393-2.742 5.393-8.457zm77.175 4.076H279.19c.38 4.076 2.051 6.057 5.165 6.057 2.735 0 4.254-1.37 4.672-4.228l20.167 1.18c-1.101 10.287-9.153 15.239-24.801 15.239-17.318 0-25.674-7.01-25.674-21.676v-1.867c0-14.666 8.356-21.752 25.674-21.752 17.015 0 25.219 6.971 25.219 21.371-.038 2.02-.152 3.886-.38 5.676zm-19.901-9.638v-.152c0-3.505-1.595-5.181-4.976-5.181-2.848 0-4.519 1.752-5.051 5.333h10.027zm26.7 26.629V14.286h19.445c.114 2.78-.417 5.41-1.785 9.257l.608.533c5.545-8.19 8.47-10.514 14.888-11.466l1.14 19.047-6.837.496c-6.19.457-7.672 3.2-7.672 13.218v11.772h-19.787z" fill="#000"/></svg>