<svg width="259" height="77" fill="none" xmlns="http://www.w3.org/2000/svg"><g clip-path="url(#clip0_131_316)"><path d="M238.692 21.818a1.445 1.445 0 01-.712 2.042 1.56 1.56 0 01-2.064-.71 35.477 35.477 0 00-11.781-13.753 35.664 35.664 0 00-34.947-3.148 35.533 35.533 0 00-14.065 11.425 1.54 1.54 0 01-2.003.207 1.534 1.534 0 01-.497-1.945A38.64 38.64 0 01196.534.759a38.735 38.735 0 0127.869 5.18 38.68 38.68 0 0114.289 15.937m-66.069 39.246a1.54 1.54 0 01.23-2.331 1.549 1.549 0 011.865.084c.172.143.31.321.405.523a35.505 35.505 0 0012.635 10.679 35.625 35.625 0 0016.119 3.808 35.614 35.614 0 0018.889-5.443 35.452 35.452 0 0013.092-14.622 1.537 1.537 0 012.064-.71 1.451 1.451 0 01.89 1.464c-.017.203-.078.4-.178.579A38.54 38.54 0 01225.829 70.1a38.756 38.756 0 01-37.982 3.415 38.614 38.614 0 01-15.282-12.422l.058.029z" fill="#2B2A29"/><path d="M228.226 25.802a18.028 18.028 0 0122.703-2.189c3.455 2.308 6 5.738 7.202 9.706a17.863 17.863 0 01-.609 12.056 17.946 17.946 0 01-8.143 8.936 18.037 18.037 0 01-11.983 1.761 17.994 17.994 0 01-10.386-6.212 17.883 17.883 0 01-4.075-11.367 17.785 17.785 0 011.37-6.874 17.855 17.855 0 013.921-5.817zm-2.166 11.677h13.882v-3.434h-13.17a14.974 14.974 0 00-.712 3.434zm2.907 9.865v-7.823h-2.907a14.831 14.831 0 002.893 7.823h.014zm5.495 4.55V39.52h-3.445v10.07a14.548 14.548 0 003.431 2.303h.014zm5.495 1.448v-13.82h-3.445v13.183c1.114.35 2.265.568 3.43.652l.015-.015zm9.9-2.897h-7.85v2.897a14.947 14.947 0 007.835-2.868l.015-.03zm4.535-5.447h-12.414v3.419h10.103a14.484 14.484 0 002.311-3.42zm1.454-5.477h-13.883v3.434h13.228a14.93 14.93 0 00.655-3.434zm-2.908-9.866v7.824h2.908a14.831 14.831 0 00-2.908-7.823zm-5.495-4.549V37.48h3.431V27.41a14.526 14.526 0 00-3.387-2.302h-.044zm-5.494-1.448v13.835h3.445V24.31a15.097 15.097 0 00-3.402-.667l-.043.015zm-9.9 2.897h7.85v-2.897a14.943 14.943 0 00-7.806 2.868l-.044.03zm7.85 2.043h-10.176a14.96 14.96 0 00-2.297 3.433h12.415l.058-3.433z" fill="#fff"/><path d="M16.848 39.377c.655.822 1 1.847.974 2.897a4.653 4.653 0 01-2.035 4.085 10.013 10.013 0 01-5.815 1.45H0V28.394h9.42A9.854 9.854 0 0114.9 29.7a4.147 4.147 0 011.977 3.709 4.336 4.336 0 01-.756 2.52 5.114 5.114 0 01-2.108 1.74 5.542 5.542 0 012.835 1.709zM4.652 36.479h4.36a3.818 3.818 0 002.312-.594 2.348 2.348 0 00.79-1.753 2.34 2.34 0 00-.79-1.753 3.702 3.702 0 00-2.297-.608h-4.36l-.015 4.708zm8.431 5.534c0-1.608-1.09-2.405-3.285-2.405H4.652v4.897h5.146c2.195-.058 3.285-.884 3.285-2.492zm15.685-1.854l-2.704 2.709v4.94h-4.651V28.395h4.651v9.055l8.955-9.055h5.19l-8.374 8.692 8.868 10.721h-5.466l-6.469-7.65z" fill="#2B2A29"/><path d="M59.978 28.395l-8.62 15.328a9.439 9.439 0 01-2.907 3.36 6.892 6.892 0 01-3.809 1.13 8.92 8.92 0 01-3.285-.666l1.12-3.404a7.188 7.188 0 002.02.362c.55.01 1.093-.13 1.57-.406a3.731 3.731 0 001.264-1.26l.175-.218-8.039-14.226h4.986l5.379 10.402 5.553-10.402h4.593zm15.612.855a6.901 6.901 0 013.039 2.434 7.008 7.008 0 010 7.46 6.813 6.813 0 01-3.038 2.435 11.81 11.81 0 01-4.667.854H66.87v5.375h-4.667V28.395h8.722a11.81 11.81 0 014.667.855zm-1.73 8.692a2.899 2.899 0 001.106-2.477 2.99 2.99 0 00-1.105-2.506 5.029 5.029 0 00-3.198-.87h-3.794v6.723h3.808a5.029 5.029 0 003.213-.913l-.03.043zm13.23 8.866a9.858 9.858 0 01-3.94-3.563 10.115 10.115 0 010-10.33 9.858 9.858 0 013.94-3.564 11.908 11.908 0 015.61-1.29c1.61-.01 3.207.3 4.696.913a9.495 9.495 0 013.576 2.55l-3.01 2.651a6.584 6.584 0 00-5.03-2.303 6.982 6.982 0 00-3.343.782 5.602 5.602 0 00-2.296 2.202 6.632 6.632 0 000 6.418 5.603 5.603 0 002.296 2.188c1.03.54 2.18.813 3.344.797a6.546 6.546 0 005.088-2.246l3.009 2.651a9.463 9.463 0 01-3.634 2.55c-1.514.609-3.136.91-4.768.884a11.822 11.822 0 01-5.539-1.29zm16.993-18.413h4.651v19.413h-4.651V28.395z" fill="#2B2A29"/><path d="M136.296 39.55a4.64 4.64 0 01.872 2.767 4.442 4.442 0 01-1.294 3.173 8.095 8.095 0 01-3.474 2.043 15.44 15.44 0 01-4.841.71 19.722 19.722 0 01-8.082-1.695l1.904-4.535c.94.372 1.914.653 2.908.84.914.183 1.844.28 2.776.29a6.414 6.414 0 002.573-.434 1.448 1.448 0 00.989-1.304c0-.783-.64-1.16-1.919-1.16h-5.321v-4.679h4.696a2.2 2.2 0 001.264-.304 1.005 1.005 0 00.437-.869 1.202 1.202 0 00-.771-1.101 4.37 4.37 0 00-2.02-.391c-.849.012-1.693.124-2.515.333-.896.213-1.765.53-2.588.941l-1.919-4.838a16.591 16.591 0 017.007-1.449 15.237 15.237 0 014.681.695 8.213 8.213 0 013.43 2.014 4.337 4.337 0 01.626 5.433 4.802 4.802 0 01-1.861 1.637 5.479 5.479 0 012.442 1.883zm19.363 3.289v4.969h-16.107V28.395h15.816v4.926h-9.42v2.274h8.214v4.694h-8.214v2.55h9.711zm20.031 4.969v-8.823l-4.215 7.084h-2.908l-4.303-6.823v8.562h-5.974V28.395h5.393l6.396 10.315 6.164-10.315h5.393l.072 19.413h-6.018zm28.361-19.413v19.413h-6.439V33.451h-4.449v2.246a38.515 38.515 0 01-.668 6.809 8.423 8.423 0 01-1.934 4.143 5.2 5.2 0 01-3.983 1.449 11.43 11.43 0 01-2.834-.29l.334-5.23c.238.057.482.087.727.087a1.78 1.78 0 001.57-.826 5.53 5.53 0 00.741-2.216c.116-.927.218-2.13.276-3.637l.247-7.547 16.412-.044zm3.446 0h6.439v19.413h-6.439V28.395z" fill="#fff"/></g><defs><clipPath id="clip0_131_316"><path fill="#fff" d="M0 0h259v77H0z"/></clipPath></defs></svg>