<svg width="251" height="37" fill="none" xmlns="http://www.w3.org/2000/svg"><path d="M15.773 23.258c.604.666 1.395.999 2.374.999.978 0 1.77-.333 2.373-1 .604-.687.906-1.707.906-3.06 0-1.354-.302-2.363-.906-3.03-.603-.687-1.395-1.03-2.373-1.03-.979 0-1.77.343-2.374 1.03-.604.667-.906 1.676-.906 3.03 0 1.353.302 2.373.906 3.06zm1.28 5.684c-2.248 0-4.039-.75-5.371-2.249-1.312-1.499-1.968-3.665-1.968-6.496 0-2.832.656-4.997 1.968-6.496 1.332-1.5 3.123-2.25 5.372-2.25 1.811 0 3.217.625 4.216 1.875h.156V6.767h5.154V28.63h-4.53l-.468-1.718h-.156c-1.124 1.353-2.582 2.03-4.372 2.03zm20.923 0c-2.749 0-4.873-.75-6.372-2.249-1.478-1.52-2.217-3.685-2.217-6.496 0-2.77.76-4.914 2.28-6.434 1.52-1.54 3.623-2.311 6.309-2.311 2.581 0 4.601.812 6.059 2.436 1.478 1.603 2.217 3.654 2.217 6.153l-.156 1.717H34.54c.416 1.874 1.51 2.811 3.28 2.811 1.228 0 2.175-.416 2.841-1.249h5.279a7.21 7.21 0 01-.781 1.905c-.354.583-.833 1.177-1.437 1.78-.583.583-1.374 1.052-2.373 1.406-1 .354-2.124.53-3.373.53zm-3.436-10.62h6.559c-.167-.686-.542-1.27-1.125-1.748-.562-.5-1.28-.75-2.155-.75-.895 0-1.624.23-2.186.687-.562.459-.926 1.062-1.093 1.812zM48.895 28.63V11.764h4.528l.469 1.718h.156c.958-1.353 2.207-2.03 3.748-2.03.729 0 1.384.114 1.967.343.604.209 1.073.48 1.406.812.354.334.614.615.78.844.188.229.313.416.375.562h.157c.104-.23.291-.51.562-.843.291-.334.833-.698 1.624-1.094.791-.416 1.676-.624 2.655-.624 1.624 0 3.04.593 4.247 1.78 1.229 1.166 1.843 2.81 1.843 4.935v10.462h-5.154v-9.525c0-.979-.208-1.718-.624-2.218-.416-.5-.99-.75-1.718-.75-.666 0-1.197.25-1.593.75-.395.5-.593 1.24-.593 2.218v9.526h-5.153v-9.526c0-.979-.209-1.718-.625-2.218-.416-.5-.99-.75-1.718-.75-.666 0-1.197.25-1.593.75-.395.5-.593 1.24-.593 2.218v9.526h-5.153zm27.785 0V11.764h5.154V28.63H76.68zm4.654-18.896c-.52.52-1.218.78-2.093.78-.874 0-1.572-.26-2.092-.78-.52-.541-.781-1.218-.781-2.03 0-.812.26-1.478.78-1.999.521-.541 1.219-.812 2.093-.812.875 0 1.572.27 2.093.812.541.52.812 1.187.812 1.999s-.27 1.489-.812 2.03zm6.914 18.896L83.72 11.764h5.31l2.498 10.463 2.654-10.463h4.998l2.654 10.463 2.499-10.463h5.309l-4.528 16.866h-5.778l-2.655-9.37-2.655 9.37h-5.778zm30.766.312c-2.748 0-4.872-.75-6.371-2.249-1.478-1.52-2.217-3.685-2.217-6.496 0-2.77.76-4.914 2.28-6.434 1.52-1.54 3.622-2.311 6.308-2.311 2.582 0 4.602.812 6.059 2.436 1.479 1.603 2.218 3.654 2.218 6.153l-.156 1.717h-11.556c.416 1.874 1.509 2.811 3.279 2.811 1.229 0 2.176-.416 2.842-1.249h5.279a7.22 7.22 0 01-.781 1.905c-.354.583-.833 1.177-1.437 1.78-.583.583-1.374 1.052-2.373 1.406-1 .354-2.124.53-3.374.53zm-3.435-10.62h6.559c-.167-.686-.542-1.27-1.125-1.748-.562-.5-1.28-.75-2.155-.75-.895 0-1.624.23-2.186.687-.562.459-.927 1.062-1.093 1.812zm20.57 4.936c.604.666 1.395.999 2.373.999.979 0 1.77-.333 2.374-1 .604-.687.906-1.707.906-3.06 0-1.354-.302-2.363-.906-3.03-.604-.687-1.395-1.03-2.374-1.03-.978 0-1.769.343-2.373 1.03-.604.667-.906 1.676-.906 3.03 0 1.353.302 2.373.906 3.06zm3.466 5.684c-1.79 0-3.248-.677-4.372-2.03h-.156l-.469 1.718h-4.528V6.767h5.153v6.559h.156c1-1.25 2.405-1.874 4.216-1.874 2.249 0 4.029.75 5.341 2.248 1.333 1.5 1.999 3.665 1.999 6.497s-.666 4.997-1.999 6.496c-1.312 1.5-3.092 2.249-5.341 2.249zm14.02-.968c-.541.541-1.208.812-1.999.812-.791 0-1.457-.271-1.999-.812a2.785 2.785 0 01-.812-2c0-.77.271-1.425.812-1.967a2.668 2.668 0 011.999-.843c.791 0 1.458.281 1.999.843a2.68 2.68 0 01.812 1.968c0 .77-.271 1.436-.812 1.999zm10.033.968c-1.374 0-2.572-.167-3.592-.5-1.02-.354-1.811-.833-2.373-1.437-.563-.603-.989-1.228-1.281-1.873a6.944 6.944 0 01-.562-2.124h5.309c.084.416.354.78.812 1.093.458.312 1.021.468 1.687.468 1.666 0 2.498-.364 2.498-1.093 0-.354-.239-.635-.718-.843-.479-.208-1.083-.344-1.811-.406a15.059 15.059 0 01-2.312-.406 15.487 15.487 0 01-2.342-.78c-.708-.313-1.301-.834-1.78-1.563-.479-.728-.718-1.634-.718-2.717 0-1.561.635-2.831 1.905-3.81 1.27-1 3.029-1.5 5.278-1.5 2.498 0 4.352.553 5.559 1.656 1.208 1.083 1.905 2.405 2.093 3.967h-5.31c-.041-.354-.26-.646-.656-.875-.374-.25-.937-.375-1.686-.375-1.249 0-1.874.365-1.874 1.093 0 .334.239.594.718.781.479.188 1.073.323 1.781.406.728.063 1.509.209 2.342.438.833.208 1.603.468 2.311.78.729.313 1.333.844 1.812 1.593.478.729.718 1.635.718 2.717a4.67 4.67 0 01-.344 1.78c-.229.563-.614 1.125-1.155 1.687-.521.562-1.322 1.01-2.405 1.343-1.083.333-2.384.5-3.904.5zm17.491-.312c-1.999 0-3.435-.417-4.31-1.25-.874-.854-1.312-2.155-1.312-3.904V16.45h-2.654v-4.685h2.654l.781-4.372h4.373v4.372h3.904v4.685h-3.904v6.09c0 .396.135.729.406 1 .27.27.603.406.999.406h2.499v4.684h-3.436zm12.323.312c-1.644 0-3.05-.573-4.216-1.718-1.145-1.166-1.718-2.884-1.718-5.153V11.764h5.154v9.526c0 .937.229 1.666.687 2.186.458.52 1.114.781 1.967.781.792 0 1.427-.26 1.905-.78.5-.542.75-1.27.75-2.187v-9.526h5.153V28.63h-4.528l-.469-1.718h-.156c-1.187 1.353-2.696 2.03-4.529 2.03zm18.407-5.684c.604.666 1.395.999 2.374.999.978 0 1.77-.333 2.373-1 .604-.687.906-1.707.906-3.06 0-1.354-.302-2.363-.906-3.03-.603-.687-1.395-1.03-2.373-1.03-.979 0-1.77.343-2.374 1.03-.604.667-.906 1.676-.906 3.03 0 1.353.302 2.373.906 3.06zm1.281 5.684c-2.249 0-4.04-.75-5.372-2.249-1.312-1.499-1.968-3.665-1.968-6.496 0-2.832.656-4.997 1.968-6.496 1.332-1.5 3.123-2.25 5.372-2.25 1.811 0 3.217.625 4.216 1.875h.156V6.767h5.153V28.63h-4.528l-.469-1.718h-.156c-1.124 1.353-2.582 2.03-4.372 2.03zm13.114-.312V11.764h5.153V28.63h-5.153zm4.653-18.896c-.52.52-1.218.78-2.092.78-.875 0-1.572-.26-2.093-.78-.521-.541-.781-1.218-.781-2.03 0-.812.26-1.478.781-1.999.521-.541 1.218-.812 2.093-.812.874 0 1.572.27 2.092.812.541.52.812 1.187.812 1.999s-.271 1.489-.812 2.03zm17.815 16.928c-1.479 1.52-3.55 2.28-6.216 2.28-2.665 0-4.736-.76-6.215-2.28-1.478-1.52-2.217-3.675-2.217-6.465s.739-4.945 2.217-6.465c1.479-1.52 3.55-2.28 6.215-2.28 2.666 0 4.737.76 6.216 2.28 1.478 1.52 2.217 3.675 2.217 6.465s-.739 4.945-2.217 6.465zm-8.589-3.404c.604.666 1.395.999 2.373.999.979 0 1.77-.333 2.374-1 .604-.687.906-1.707.906-3.06 0-1.354-.302-2.363-.906-3.03-.604-.687-1.395-1.03-2.374-1.03-.978 0-1.769.343-2.373 1.03-.604.667-.906 1.676-.906 3.03 0 1.353.302 2.373.906 3.06z" fill="#000"/></svg>