<svg width="116" height="119" fill="none" xmlns="http://www.w3.org/2000/svg"><path d="M113.978 53.452h-4.149a19.658 19.658 0 00-1.339-3.222l2.937-2.936a1.743 1.743 0 00.38-1.907 1.743 1.743 0 00-.38-.568l-6-6a1.745 1.745 0 00-2.474 0l-2.937 2.937a19.586 19.586 0 00-3.222-1.339V36.27a1.75 1.75 0 00-1.75-1.75h-2.489V1.75A1.75 1.75 0 0090.805 0H1.75A1.749 1.749 0 000 1.75v115.386a1.752 1.752 0 001.75 1.75h89.055a1.747 1.747 0 001.75-1.75v-32.77h2.491a1.75 1.75 0 001.75-1.75v-4.157c1.11-.35 2.186-.796 3.217-1.335l2.942 2.941a1.8 1.8 0 002.474 0l6-6a1.743 1.743 0 00.38-1.907 1.743 1.743 0 00-.38-.568l-2.941-2.94a19.807 19.807 0 001.334-3.218h4.158a1.752 1.752 0 001.617-1.08 1.75 1.75 0 00.133-.67v-8.48a1.752 1.752 0 00-1.082-1.618 1.744 1.744 0 00-.67-.132zm-24.923 61.934H3.5V3.5h85.555v31.02h-2.491a1.75 1.75 0 00-1.75 1.75v4.157a19.76 19.76 0 00-3.218 1.335l-2.941-2.941a1.8 1.8 0 00-2.475 0l-6 6a1.75 1.75 0 00-.333.482H39.764a1.75 1.75 0 000 3.5h31.927l1.433 1.433a19.807 19.807 0 00-1.334 3.218h-4.158a1.75 1.75 0 00-1.75 1.75v8.482a1.75 1.75 0 001.75 1.75h4.149c.35 1.112.798 2.19 1.339 3.222l-1.429 1.429H39.764a1.75 1.75 0 000 3.5h30.09c.083.178.196.341.333.482l6 6a1.748 1.748 0 002.475 0l2.938-2.937c1.032.541 2.11.99 3.221 1.339v4.149a1.75 1.75 0 001.75 1.75h2.491l-.007 31.016zm23.173-53.452h-3.739a1.75 1.75 0 00-1.7 1.343 16.351 16.351 0 01-1.971 4.755 1.75 1.75 0 00.254 2.153l2.645 2.645-3.523 3.523-2.645-2.645a1.75 1.75 0 00-2.154-.254 16.269 16.269 0 01-4.753 1.971 1.752 1.752 0 00-1.344 1.7v3.738h-4.984v-3.728a1.75 1.75 0 00-1.345-1.7 16.198 16.198 0 01-4.753-1.974 1.743 1.743 0 00-2.155.252l-2.643 2.64-3.523-3.523 2.643-2.643a1.749 1.749 0 00.252-2.156 16.143 16.143 0 01-1.975-4.752 1.752 1.752 0 00-1.7-1.345h-3.73v-4.982h3.738a1.75 1.75 0 001.7-1.343 16.339 16.339 0 011.972-4.755 1.75 1.75 0 00-.254-2.153l-2.645-2.645 3.523-3.523 2.645 2.645a1.75 1.75 0 002.154.254 16.268 16.268 0 014.753-1.971 1.751 1.751 0 001.344-1.7V38.02h4.982v3.731a1.75 1.75 0 001.345 1.7 16.18 16.18 0 014.753 1.974 1.746 1.746 0 002.155-.252l2.643-2.642 3.523 3.523-2.643 2.643a1.749 1.749 0 00-.252 2.156 16.152 16.152 0 011.975 4.752 1.747 1.747 0 001.7 1.345h3.731l.001 4.984z" fill="#000"/><path d="M90.805 47.99a11.453 11.453 0 1011.453 11.453A11.47 11.47 0 0090.805 47.99zm-7.953 11.453a7.962 7.962 0 016.2-7.753v15.506a7.962 7.962 0 01-6.2-7.753zm9.7 7.753V51.69a7.947 7.947 0 010 15.506zM31.647 13.323l-.79.79a3.728 3.728 0 00-2.847-1.338H16.525a3.755 3.755 0 00-3.75 3.75V28.01a3.754 3.754 0 003.75 3.75H28.01a3.755 3.755 0 003.75-3.75v-9.851l2.362-2.362a1.75 1.75 0 00-2.475-2.474zM28.264 28.01a.25.25 0 01-.25.25H16.525a.25.25 0 01-.25-.25V16.525a.25.25 0 01.25-.25H28.01a.25.25 0 01.25.25v.185l-5.318 5.318-1.67-1.672a1.75 1.75 0 00-2.476 2.475l2.91 2.912a1.748 1.748 0 002.473 0l4.085-4.084v6.35zm3.383 10.096l-.79.791a3.727 3.727 0 00-2.847-1.338H16.525a3.755 3.755 0 00-3.75 3.75v11.485a3.755 3.755 0 003.75 3.75H28.01a3.755 3.755 0 003.75-3.75v-9.85l2.362-2.362a1.75 1.75 0 00-2.475-2.475zm-3.383 14.688a.251.251 0 01-.25.25H16.525a.251.251 0 01-.25-.25V41.31a.25.25 0 01.25-.25H28.01a.25.25 0 01.25.25v.184l-5.318 5.318-1.67-1.668a1.75 1.75 0 00-2.476 2.475l2.91 2.91a1.748 1.748 0 002.473 0l4.085-4.085v6.351zm3.383 10.095l-.79.79a3.728 3.728 0 00-2.847-1.336H16.525a3.755 3.755 0 00-3.75 3.75v11.484a3.755 3.755 0 003.75 3.75H28.01a3.755 3.755 0 003.75-3.75v-9.851l2.362-2.362a1.75 1.75 0 00-2.475-2.475zm-3.383 14.688a.25.25 0 01-.25.25H16.525a.25.25 0 01-.25-.25V66.092a.251.251 0 01.25-.25H28.01a.25.25 0 01.25.25v.185l-5.318 5.317-1.67-1.672a1.75 1.75 0 00-2.476 2.475l2.91 2.909a1.748 1.748 0 002.473 0l4.081-4.08.004 6.35zm3.383 10.096l-.79.791a3.723 3.723 0 00-2.847-1.338H16.525a3.754 3.754 0 00-3.75 3.75v11.485a3.755 3.755 0 003.75 3.75H28.01a3.754 3.754 0 003.75-3.75V92.51l2.362-2.362a1.75 1.75 0 00-2.475-2.475zm-3.383 14.688a.251.251 0 01-.25.25H16.525a.25.25 0 01-.25-.25V90.876a.25.25 0 01.25-.25H28.01a.25.25 0 01.25.25v.185l-5.318 5.317-1.67-1.671a1.75 1.75 0 00-2.476 2.474l2.91 2.909a1.742 1.742 0 001.906.38 1.74 1.74 0 00.567-.38l4.081-4.08.004 6.351zm11.5-78.343h38.27a1.75 1.75 0 000-3.5h-38.27a1.75 1.75 0 100 3.5zm38.266 70.85H39.764a1.75 1.75 0 100 3.5h38.27a1.75 1.75 0 000-3.5h-.004z" fill="#000"/></svg>