<svg width="119" height="106" fill="none" xmlns="http://www.w3.org/2000/svg"><path d="M59.443 32.882a7.424 7.424 0 107.423 7.424 7.432 7.432 0 00-7.423-7.424zm0 11.347a3.924 3.924 0 11-.002-7.849 3.924 3.924 0 01.002 7.849z" fill="#000"/><path d="M112.635 0H6.251A6.258 6.258 0 000 6.256v76.9a6.258 6.258 0 006.251 6.251h38.184v12.615h-5.94a1.747 1.747 0 00-1.75 1.75 1.749 1.749 0 001.75 1.75h41.9a1.747 1.747 0 001.75-1.75 1.749 1.749 0 00-1.75-1.75h-5.94V89.397h38.184a6.259 6.259 0 006.251-6.251V6.256A6.26 6.26 0 00112.635 0zM6.251 3.5h106.384a2.752 2.752 0 012.751 2.751v63.492h-3.867V9.117a1.75 1.75 0 00-1.75-1.75H9.117a1.75 1.75 0 00-1.75 1.75v60.626H3.5V6.256A2.754 2.754 0 016.251 3.5zm4.616 66.243V10.867h97.152v58.876H10.867zm60.084 32.269H47.935V89.397h23.016v12.615zm41.684-16.115H6.251A2.755 2.755 0 013.5 83.146v-9.9h111.886v9.9a2.754 2.754 0 01-2.751 2.751z" fill="#000"/><path d="M83.42 53.144a5.834 5.834 0 00-5.554 4.073h-4.53l-1.8-3.4a34.874 34.874 0 0017.421-12.552 1.752 1.752 0 000-1.918 34.88 34.88 0 00-17.424-12.549l1.8-3.4h4.53a5.823 5.823 0 100-3.5h-5.58a1.75 1.75 0 00-1.547.93l-2.656 5.015a40.237 40.237 0 00-17.275 0l-2.656-5.015a1.75 1.75 0 00-1.546-.93H41.02a5.823 5.823 0 100 3.5h4.531l1.8 3.4a34.873 34.873 0 00-17.42 12.55 1.748 1.748 0 000 1.917 34.868 34.868 0 0017.423 12.548l-1.8 3.4H41.02a5.823 5.823 0 100 3.5h5.584a1.75 1.75 0 001.546-.93l2.656-5.014a40.241 40.241 0 0017.276 0l2.655 5.013a1.748 1.748 0 001.546.931h5.584a5.823 5.823 0 105.554-7.573v.004zm0-33.823a2.323 2.323 0 110 4.646 2.323 2.323 0 010-4.646zm-47.954 4.646a2.323 2.323 0 110-4.645 2.323 2.323 0 010 4.645zm0 37.323a2.323 2.323 0 110-4.645 2.323 2.323 0 010 4.645zm12.077-20.984a11.905 11.905 0 1111.9 11.905 11.918 11.918 0 01-11.9-11.905zm37.777-.008a32.763 32.763 0 01-14.053 9.872 15.355 15.355 0 00-.039-19.77 32.066 32.066 0 0114.087 9.898h.005zm-51.744.016a32.736 32.736 0 0114.053-9.872 15.355 15.355 0 00.04 19.771 32.075 32.075 0 01-14.098-9.899h.005zM83.42 61.29a2.323 2.323 0 110-4.645 2.323 2.323 0 010 4.645z" fill="#000"/></svg>