<svg width="119" height="119" fill="none" xmlns="http://www.w3.org/2000/svg"><path d="M112.133 0H6.753A6.76 6.76 0 000 6.753v79.773a6.76 6.76 0 006.753 6.752h38.93l12.192 24.634a1.751 1.751 0 002.491.711c.277-.172.5-.419.645-.711l12.192-24.634h38.93a6.761 6.761 0 006.753-6.752V6.753A6.76 6.76 0 00112.133 0zm3.253 86.526a3.259 3.259 0 01-3.253 3.252H72.117a1.75 1.75 0 00-1.569.974l-11.105 22.439-11.106-22.439a1.747 1.747 0 00-1.568-.974H6.753A3.257 3.257 0 013.5 86.526V6.753A3.258 3.258 0 016.753 3.5h105.38a3.26 3.26 0 013.253 3.253v79.773z" fill="#000"/><path d="M59.443 14.89a31.75 31.75 0 1031.75 31.753 31.787 31.787 0 00-31.75-31.754zm0 60a28.25 28.25 0 1128.25-28.247 28.283 28.283 0 01-28.25 28.246z" fill="#000"/><path d="M70.861 58.057a16.167 16.167 0 01-22.837 0 1.75 1.75 0 00-2.474 2.475 19.67 19.67 0 0027.786 0 1.75 1.75 0 10-2.475-2.475zm3.214-18.56a1.752 1.752 0 00-2.348-.783l-5.543 2.772a1.75 1.75 0 000 3.13l5.543 2.773a1.748 1.748 0 002.528-1.442 1.75 1.75 0 00-.963-1.69l-2.413-1.205 2.413-1.21a1.751 1.751 0 00.783-2.345zm-27.697 8.077c.27 0 .538-.064.78-.185l5.544-2.772a1.75 1.75 0 000-3.131l-5.543-2.772a1.75 1.75 0 10-1.565 3.129l2.412 1.207-2.412 1.206a1.75 1.75 0 00.784 3.316v.002z" fill="#000"/></svg>