<svg width="20" height="20" viewBox="0 0 18.5 21" xmlns="http://www.w3.org/2000/svg"><path fill="#fff" d="M5.5 21c-1.5 0-2.9-.6-3.9-1.6S0 17 0 15.5s.6-2.9 1.6-3.9L12 1c.8-.7 1.7-1 2.7-1 1 0 1.9.4 2.6 1.1.7.7 1.1 1.6 1.1 2.6s-.3 1.9-1 2.7L7.1 17c-.4.4-1 .6-1.5.6-.6 0-1.2-.2-1.6-.6-.4-.4-.6-.9-.6-1.5s.2-1.1.6-1.5l8.7-8.9c.2-.2.5-.2.7 0s.2.5 0 .7l-8.7 8.9c-.2.2-.3.5-.3.8 0 .3.1.6.3.8.2.2.5.3.8.3.3 0 .6-.1.8-.3L16.8 5.8c.5-.5.7-1.2.7-2 0-.7-.3-1.4-.8-1.9-.6-.6-1.3-.9-2-.9-.8 0-1.4.2-2 .7L2.3 12.3c-.9.9-1.3 2-1.3 3.2s.5 2.3 1.3 3.2 2 1.3 3.2 1.3c1.2 0 2.3-.5 3.2-1.3l8.6-8.6c.2-.2.5-.2.7 0 .2.2.2.5 0 .7l-8.6 8.6c-1 1-2.4 1.6-3.9 1.6z"/></svg>