<svg width="700pt" height="700pt" viewBox="0 0 700 700" xmlns="http://www.w3.org/2000/svg"><g fill-rule="evenodd"><path d="M500.22 527.3c20.438 47.008 118.54 40.875 118.54-20.438v-237.08c0-51.094-94.016-57.227-116.5-18.395-42.918-20.438-91.973-55.184-87.883-108.32 12.262-102.19-75.621-89.926-104.23 6.133-12.262 34.746-6.133 61.312 6.133 91.973H177.3c-55.184 2.043-63.36 67.445-28.613 89.926-20.438 22.48-12.262 65.402 18.395 79.707-18.395 24.527-6.133 69.488 20.438 81.75-12.262 24.527 2.043 63.359 55.184 65.402 83.797 4.086 177.81 4.086 257.52-30.656zm57.227-49.051c-10.219 0-18.395 8.176-18.395 18.395s8.176 18.395 18.395 18.395 18.395-8.176 18.395-18.395-8.176-18.395-18.395-18.395zm0 12.262c-4.086 0-6.133 2.043-6.133 6.133 0 4.086 2.043 8.176 6.133 8.176 4.086 0 8.176-4.086 8.176-8.176 0-4.086-4.086-6.133-8.176-6.133zm-61.312 16.352c-75.621 34.746-169.64 36.789-253.43 32.699-51.094-2.043-49.051-49.051-20.438-49.051h26.57c10.219 0 14.305-12.262 0-12.262h-47.008c-24.527-2.043-40.875-63.359 0-63.359h32.699c12.262 0 12.262-16.352 0-16.352h-40.875c-42.918 0-53.141-63.359-8.176-63.359h34.746c14.305 0 14.305-14.305 0-14.305h-42.918c-40.875 0-40.875-59.27 0-61.312h165.55c-16.352-40.875-28.613-67.445-16.352-106.28 22.48-71.531 79.707-91.973 69.488-12.262-6.133 63.359 47.008 102.19 100.14 128.76z" fill="#FDF551"/><path d="M179.34 145.11c-6.133-10.219-12.262-14.305-22.48-14.305-12.262 0-22.48 8.176-22.48 18.395 0 18.395 22.48 36.789 44.965 55.184 22.48-18.395 44.965-36.789 44.965-55.184 0-10.219-10.219-18.395-22.48-18.395s-16.352 4.086-22.48 14.305zm-63.36-83.798c-6.133-6.133-12.262-8.176-20.438-6.133-10.219 4.086-16.352 12.262-14.305 20.438 4.086 14.305 26.57 22.48 49.051 32.7 12.262-20.439 26.57-38.833 22.48-53.142-2.043-8.176-12.262-12.262-22.48-10.219-8.176 4.086-12.262 8.176-14.305 16.352zm106.28-44.96C218.174 8.176 214.084 2.047 205.908 0c-10.219-2.043-18.395 2.043-20.438 10.219-4.086 14.305 10.219 34.746 24.527 53.141 22.48-10.219 42.918-20.438 47.008-34.746 2.043-8.176-6.133-16.352-14.305-20.438-10.219-2.043-14.305 2.043-20.438 8.176z" fill="#D2238C"/></g></svg>