<svg width="280" height="55" fill="none" xmlns="http://www.w3.org/2000/svg"><path d="M83.994 17.096l-.06-.395-.061.395a13.368 13.368 0 01-11.02 11.003l-.394.06.395.062a13.368 13.368 0 0111.019 11.003l.06.394.061-.394a13.368 13.368 0 0111.02-11.003l.394-.061-.395-.06a13.403 13.403 0 01-11.019-11.004z" fill="#fff"/><path d="M83.934 2.212c-14.328 0-25.985 11.64-25.985 25.948s11.657 25.948 25.985 25.948c14.327 0 25.984-11.64 25.984-25.948S98.292 2.212 83.934 2.212zm22.372 24.099l-7.862-1.031c-.638-7.245-3.643-13.883-8.379-18.703 8.834 2.516 15.482 10.306 16.241 19.734zm-11.475-1.486l-4.31-.576a3.29 3.29 0 01-2.671-2.667L86.028 7.668c4.857 4.153 8.014 10.307 8.803 17.157zM81.87 7.698l-1.82 13.914a3.29 3.29 0 01-2.672 2.668l-4.31.545c.789-6.85 3.976-13.004 8.802-17.127zm-4.037-1.121c-4.735 4.82-7.74 11.458-8.378 18.703l-7.892 1.03C62.352 16.883 69 9.093 77.833 6.577zm-16.24 23.402l7.892 1.03c.638 7.245 3.643 13.884 8.379 18.703C69 47.227 62.352 39.406 61.593 29.979zm11.474 1.515l4.31.546a3.29 3.29 0 012.672 2.667l1.821 13.914c-4.826-4.123-8.013-10.306-8.803-17.127zm11.262 2.728l-.394 2.94-.395-2.94v-.06a6.83 6.83 0 00-5.616-5.608h-.06l-2.945-.394 2.944-.394h.061a6.83 6.83 0 005.616-5.608v-.06l.395-2.941.394 2.94v.06a6.83 6.83 0 005.616 5.609h.06l2.945.394-2.944.394h-.061a6.83 6.83 0 00-5.616 5.608v.06zm1.7 14.4l1.822-13.915a3.29 3.29 0 012.67-2.667l4.311-.576c-.789 6.881-3.946 13.035-8.803 17.157zm4.037 1.09c4.736-4.82 7.741-11.458 8.379-18.703l7.862-1.03c-.759 9.427-7.407 17.217-16.24 19.733zM7.285 45.47L0 11.366h14.45l2.215 14.763c.243 1.576.547 4.122.76 6.972h.485c.212-2.85.485-5.366.759-7.094l2.094-14.671h13.63l2.428 14.61a81.66 81.66 0 01.79 7.155h.546c.152-2.729.425-5.214.668-6.972l1.912-14.763h14.024L47.506 45.47H29.84l-1.245-9.942c-.425-3.456-.759-6.73-1.032-10.58h-.516c-.182 3.85-.516 7.185-.941 10.58l-1.154 9.942H7.285zm109.099 0V11.366h15.542c.091 2.334-.243 4.092-1.427 7.427l.486.394c3.248-5.669 7.376-8.488 13.751-8.488 7.164 0 11.14 3.729 11.14 11.428V45.47h-15.815V27.95c0-3.123-1.062-4.578-3.309-4.578-2.944 0-4.583 3.122-4.583 8.76V45.47h-15.785zm44.835-17.006v-.121c0-12.125 4.31-17.946 13.265-17.946 5.494 0 9.35 2.729 11.9 8.397l.485-.333c-1.062-3.76-1.426-6.427-1.426-10.064V0h15.815v45.47h-15.785c0-1.425.425-3.91 1.427-7.457l-.486-.303c-2.52 5.668-6.375 8.396-11.899 8.396-8.955 0-13.296-5.76-13.296-17.642zm24.254.242v-.909c0-4.577-1.427-6.79-4.311-6.79-2.762 0-4.098 2.213-4.098 6.79v.91c0 4.546 1.336 6.729 4.098 6.729 2.884 0 4.311-2.183 4.311-6.73zm61.683 3.244h-24.011c.303 3.243 1.639 4.82 4.128 4.82 2.186 0 3.4-1.092 3.734-3.366l16.119.94c-.881 8.184-7.316 12.125-19.822 12.125-13.843 0-20.521-5.577-20.521-17.248v-1.485c0-11.67 6.678-17.309 20.521-17.309 13.599 0 20.156 5.547 20.156 17.006-.031 1.606-.122 3.092-.304 4.516zm-15.906-7.67v-.121c0-2.789-1.275-4.123-3.977-4.123-2.276 0-3.612 1.395-4.037 4.244h8.014zm21.339 21.189V11.366h15.542c.091 2.213-.334 4.305-1.427 7.366l.486.425c4.432-6.518 6.769-8.367 11.899-9.124L280 25.189l-5.464.394c-4.948.364-6.132 2.547-6.132 10.519v9.367h-15.815z" fill="#000"/></svg>