<svg width="280" height="65" fill="none" xmlns="http://www.w3.org/2000/svg"><mask id="mask0_202_72" style="mask-type:luminance" maskUnits="userSpaceOnUse" x="0" y="0" width="280" height="65"><path d="M280 0H0v64.793h280V0z" fill="#fff"/></mask><g mask="url(#mask0_202_72)" fill="#000"><path d="M75.306 47.97h14.183v-4.53h-9.058v-6.526h8.738v-4.53h-8.738v-5.177h9.09v-4.53H75.307V47.97zm22.309-26.48h-4.811v26.48h4.81V21.49zm8.428 9.912h-4.811V47.97h4.811V31.402zm21.12 0h-6.183l-3.412 4.163-3.243-4.163h-5.983l6.319 7.599-7.832 8.97h6.221l4.518-5.518 4.633 5.517h6.134l-7.686-8.964 6.514-7.604zm6.84 0h-4.805V47.97h4.805V31.402zm12.726-.368a5.321 5.321 0 00-4.475 2.476v-2.108h-4.73V47.97h4.811v-7.864c0-1.626.396-2.867 1.172-3.674a3.375 3.375 0 012.522-.987c.498-.012.992.1 1.438.325l.27.147 1.123-4.401-.19-.081a4.88 4.88 0 00-1.941-.401zm29.364 6.46c0 4.336-1.626 6.444-5.033 6.444-3.406 0-5.018-2.108-5.018-6.444V22.676h-5.13v15.767c0 3.148.911 5.652 2.712 7.435 1.8 1.783 4.301 2.71 7.436 2.71s5.63-.905 7.437-2.71c1.806-1.804 2.712-4.287 2.712-7.435V22.676h-5.132l.016 14.818zm25.699-6.092h-6.618l-5.668 5.577v-15.49h-4.811V47.97h4.811v-6.606l6.195 6.606h6.708l-8.705-8.991 8.088-7.577zm12.595.033a4.884 4.884 0 00-1.947-.423 5.322 5.322 0 00-4.469 2.477v-2.087h-4.73V47.97h4.811v-7.864c0-1.626.396-2.867 1.171-3.674a3.378 3.378 0 012.522-.987 3.02 3.02 0 011.417.325l.27.147 1.124-4.401-.169-.081zm13.267 1.767a6.667 6.667 0 00-5.18-2.31 7.49 7.49 0 00-5.771 2.5 9.052 9.052 0 00-2.256 6.291 9.172 9.172 0 002.282 6.298 7.425 7.425 0 005.745 2.57 6.511 6.511 0 005.18-2.429v1.832h4.74V31.402h-4.74v1.8zm-1.183 3.251a4.502 4.502 0 011.183 3.252 4.697 4.697 0 01-1.15 3.252 4.165 4.165 0 01-2.983 1.264 4.153 4.153 0 01-2.984-1.264 5.14 5.14 0 010-6.504 3.758 3.758 0 012.93-1.225 4.019 4.019 0 013.009 1.22l-.005.005zm14.222-5.051h-4.805V47.97h4.805V31.402zm13.146-.509a6.288 6.288 0 00-4.935 2.168v-1.659h-4.729V47.97h4.783V39.5c0-3.03 1.085-4.505 3.331-4.505 1.893 0 2.815 1.144 2.815 3.49v9.485h4.811V37.83c0-4.596-2.05-6.937-6.076-6.937zM280 39.662a8.525 8.525 0 00-2.5-6.179 9.174 9.174 0 00-12.822 0 8.896 8.896 0 000 12.39 8.682 8.682 0 006.427 2.629c4.215 0 7.101-1.757 8.586-5.225l.12-.282-4.963-.802-.082.152c-.666 1.273-1.865 1.897-3.661 1.897a3.763 3.763 0 01-2.712-1.025 4.672 4.672 0 01-1.302-2.655h12.887l.022-.9zm-8.895-4.726c2.078 0 3.368.77 3.949 2.347h-7.724a3.86 3.86 0 013.775-2.347zM106.043 22.774h-4.811v4.802h4.811v-4.802zm27.96 0h-4.805v4.802h4.805v-4.802zm106.69 0h-4.805v4.802h4.805v-4.802zM66.086 7.745h-.77L64.23 6.39h-.228v1.355h-.646V4.73h1.188c.272-.008.544.038.797.136a.705.705 0 01.489.7c0 .465-.315.736-.95.823l1.205 1.355zm-.917-2.168c0-.282-.217-.423-.667-.423h-.5v.867h.478c.472-.01.689-.162.689-.46v.016z"/><path d="M64.572 8.823a2.431 2.431 0 01-2.383-2.9 2.427 2.427 0 013.31-1.772 2.43 2.43 0 011.503 2.239 2.433 2.433 0 01-2.43 2.433zm0-4.601a2.17 2.17 0 00-2.127 2.59 2.168 2.168 0 002.958 1.58 2.17 2.17 0 00-.83-4.175v.005zM29.95 11.636c2.404 3.518 4.595 6.59 5.425 10.368a8.368 8.368 0 01-2.468 8.238c-3.195 3.084-2.376 2.916-5.56.065-3.097-2.774-3.748-6.34-2.055-10.091 1.285-2.873 2.994-5.54 4.659-8.58zm-1.582 28.319l-.592-.515c-.542-.466-2.37-.835-4.339-1.236-3.466-.705-7.42-1.507-8.293-3.517a2.491 2.491 0 01.315-2.363c.813-1.312 2.495-2.07 4.61-2.07a8.248 8.248 0 017.934 5.529 8.23 8.23 0 01.43 3.391l-.065.78z"/><path d="M28.98 0a109.61 109.61 0 0129.897 4.282c.352.097.84.542.857.867.482 12.639-1.628 24.795-7.187 36.225a52.588 52.588 0 01-21.658 23.121 1.698 1.698 0 01-1.969 0C16.326 57.276 8.174 46.555 3.688 32.893.765 24.004-.255 14.872.054 5.555a1.235 1.235 0 011.003-1.37A81.143 81.143 0 0121.186.357C23.778.195 26.382.119 28.98 0zm.358 55.65c.428-4.878.667-9.376 1.274-13.826a19.033 19.033 0 012.018-6.173c2.007-3.794 6.85-5.132 10.257-3.084.927.542 1.595 1.317 1.48 2.461a2.534 2.534 0 01-1.822 2.368c-.572.197-1.155.36-1.746.488-1.828.342-3.672.64-5.5.976-1.242.227-1.964.954-1.915 2.26 0 1.495.102 2.99.304 4.471.347 2.005.916 3.967 1.432 6.135a41.649 41.649 0 008.136-9.842c5.64-9.35 8.136-19.598 8.618-30.421a.867.867 0 00-.851-1.046C47.55 9.81 44.096 9.073 40.609 8.65c-5.842-.726-11.732-1.17-17.617-.52-4.703.542-9.384 1.306-14.07 1.983-.743.109-1.085.45-.998 1.312.396 3.382.543 6.796 1.085 10.146 1.839 10.948 6.134 20.703 14.07 28.665 1.903 1.908 4.078 3.55 6.259 5.414z"/></g></svg>