<svg width="188" height="110" fill="none" xmlns="http://www.w3.org/2000/svg"><path d="M157.997 95.045a.366.366 0 00-.269-.284l-.639-.754c-.254-.252-.403-.605-.742-.774-.439-.646-.987-1.195-1.529-1.75l-.85-.927c-.131-.33-.441-.493-.677-.726-.141-.375-.409-.64-.735-.856-.054-.051-.113-.1-.162-.155a196.968 196.968 0 00-6.133-6.86c-.32-.34-.242-.648.027-.977.409-.5.892-.943 1.214-1.514.045.006.077-.012.096-.054l4.225-4.906c.402-.414.863-.784 1.078-1.35h.001v-.002.003c.178-.032.265-.16.332-.31 1.577-1.798 3.154-3.596 4.728-5.396.128-.147.292-.313.185-.529-.093-.188-.304-.142-.473-.14-1.502.006-3.005.018-4.507.028-.345-.013-.698.014-1.035-.05-.599-.112-1.007.083-1.253.634a5.72 5.72 0 00-1.021 1.217l-.001.002-.759.896-.004-.007c-.281.28-.61.52-.773.901-.272.433-.76.693-.944 1.193l-.539.599c-1.516 1.655-2.942 3.385-4.361 5.121l-.483.607c-.574.67-1.151 1.34-1.721 2.014-.132.155-.28.346-.478.304-.264-.057-.149-.329-.164-.51-.023-.296-.016-.594-.022-.892l-.002-11.429c.136-.612-.315-.708-.707-.679-1.353.101-2.705.066-4.053.027-.766-.023-.964.2-.961.96.028 7.745.016 15.49.018 23.234 0 1.078.016 2.154.025 3.232l.001.301c-.064 1.207-.064 1.207 1.112 1.205h2.856c1.8 0 1.8 0 1.709-1.808l.001-4.81c.002-.76-.053-1.539.622-2.1.246-.053.315-.29.463-.446.189-.023.3-.113.272-.32.104-.135.19-.29.314-.4.736-.652.738-.648 1.39.091l4.142 4.69.483.6 1.171 1.359h.001c.197.452.621.71.921 1.073.473.573.949 1.143 1.419 1.718.185.226.409.354.707.354 2.093 0 4.186 0 6.28.003.181 0 .378-.007.457-.184.102-.23-.069-.364-.253-.467zm-12.685-20.388l.031-.029-.001.002-.03.027zm.03-.025v-.001l.003-.001-.003.002zm37.854 6c-1.015-.525-2.066-.948-3.194-1.158-1.334-.394-2.669-.785-4.055-.959l-3.021-.869c-.227-.1-.452-.206-.681-.3-2.187-.897-2.781-2.66-1.556-4.624.678-.639 1.466-1.04 2.373-1.297 1.359-.386 2.711-.22 4.071-.14l1.5.341 1.957.619c.997.59 2.074 1.04 3.023 1.716.16.115.316.089.449-.089.557-.749 1.124-1.49 1.688-2.235.415-.342.737-.76.99-1.232.084-.149.11-.295-.015-.435-.351-.303-.749-.529-1.165-.728-.823-.57-1.72-.98-2.656-1.34-4.325-1.662-8.698-2.013-13.112-.451-1.335.473-2.568 1.212-3.49 2.354-2.849 2.584-2.866 8.33.421 10.566l.005.002c1.528 1.321 3.385 1.908 5.297 2.37l.23.03c1.168.526 2.444.614 3.671.9 1.161.413 2.391.595 3.536 1.069 1.902.786 2.81 1.581 2.523 3.734l-.088.418c-.269.223-.346.573-.594.829-.834.857-1.874 1.228-3.006 1.433-.042-.019-.076-.01-.103.028-1.154.168-2.31.089-3.466.028l-.711-.05a26.81 26.81 0 01-4.514-1.526c-.019.014-.028.033-.041.05l-.001-.003.042-.047a3.911 3.911 0 00-1.061-.595c-.35-.375-.829-.56-1.244-.84-.013-.042-.043-.06-.087-.053-.398-.485-.727-.628-1.232-.031-.846 1-1.789 1.92-2.707 2.857-.202.206-.256.352-.011.54 1.679 1.292 3.446 2.423 5.514 3v-.001h.005c.284.336.733.272 1.082.45.173.144.38.14.588.135.282.176.594.249.923.26l.269.046c4.006.898 7.948.92 11.743-.9 1.611-.773 2.935-1.898 3.743-3.508 1.856-3.7.99-8.438-3.832-10.364zm-6.357-9.611v.001l-.001-.001h.001zM56.47 91.47c.014-.98-.044-1.064-1.04-1.064l-14.798.009c-1.067 0-1.067.001-1.127-1.042.007-.025.018-.049.018-.073.006-7.294.008-14.589.023-21.883 0-.503-.204-.65-.676-.642-1.228.021-2.458.044-3.684-.006-.64-.026-.802.192-.801.804.015 8.649.009 17.297.009 25.947 0 .074.02.148.03.222-.009.3-.022.6-.025.9-.01 1.05-.009 1.052 1.07 1.052l20.057-.001c.872 0 .977-.116.965-.995-.015-1.076-.037-2.153-.021-3.228zm36.76 2.415c.014-.274.04-.548.04-.82.003-8.278.002-16.555 0-24.832 0-.274-.02-.548-.03-.822.126-.556-.207-.632-.64-.63-1.25.007-2.5.025-3.75-.006-.516-.012-.865.157-1.082.615l-1.199 1.35-3.424 3.76c-.35.406-.849.687-1.04 1.228-.44.314-.73.766-1.07 1.17l-.592.633-1.506 1.639c-.757.301-.87-.543-1.339-.752l-.463-.582c-.338-.36-.615-.78-1.053-1.038-.352-.45-.702-.903-1.188-1.224-.279-.565-.765-.947-1.209-1.366-1.611-1.728-3.225-3.456-4.833-5.188-.169-.181-.362-.242-.6-.239-.999.015-1.997.025-2.996.036l-.371-.05c-1.165-.139-1.29-.028-1.29 1.137v23.149c0 6.012.01 12.025-.012 18.037-.002.669.142.944.87.907a35.236 35.236 0 013.53-.002c.743.036.926-.231.924-.941-.022-8.869-.015-17.737-.018-26.606 0-1.001-.017-2.003-.026-3.004.14-.96-.128-1.958.229-2.984.344.315.643.57.92.847 1.523 1.525 3.04 3.055 4.559 4.582l.275.276c.121.294.382.453.616.638.247.334.53.633.867.878l.511.575.616.716c.486.561 1.461.66 2.12.243a.323.323 0 00.106-.063l.008-.008c.372-.194.606-.52.82-.865l.856-.89.594-.63.596-.608c.151-.15.302-.298.454-.446.397-.459.96-.77 1.22-1.352.576-.479 1.117-.99 1.49-1.653l.277-.196c.353-.204.58-.53.818-.846.257-.117.394-.363.592-.541.149-.134.338-.453.585-.083l-.003.905c-.008 5.725-.011 11.45-.028 17.175-.002.482.219.589.644.58 1-.017 2-.008 3-.003 1.763.012 1.763.014 1.624-1.806zM81.043 75.532h.007v.008a.051.051 0 00-.007-.008zm2.75 4.874l.007.005a.126.126 0 01.01.034.257.257 0 00-.016-.04zm41.148-4.154c-.004-1.535-.297-3.025-1.106-4.369l-.003.002.002-.003c-.333-.762-.826-1.417-1.392-2.015-1.602-1.687-3.609-2.618-5.859-3.05-1.523-.29-3.059-.34-4.593-.038h-.002l-.541.05.003.002-.002-.001c-.807.013-1.537.3-2.258.617l-.001.003-.001-.004a2.28 2.28 0 00-1.206.563h.003l-.003.001c-1.813.856-3.096 2.227-3.919 4.04v.002c-.141.186-.333.35-.287.622h.001-.001c-.365.857-.588 1.75-.604 2.678a415.59 415.59 0 00-.043 6.012c-.003 4.483.014 8.968-.008 13.45-.003.69.209.92.907.892 1.25-.051 2.503-.006 3.756-.022.236-.002.585.167.665-.268l.001-.005c.199-.529.096-1.084.105-1.621.032-1.986.134-3.976-.1-5.957l-.001-.017c.003-.413.389-.376.617-.52h.001c.19-.003.38-.006.568-.011l.002-.001-.001.001c.118.037.235.106.353.107 2.472.006 4.944.005 7.417.005.224 0 .454.032.653-.112l1.489.17.022 6.429h-.001c-.01.425-.021.849-.034 1.27-.014.413.169.56.59.553 1.47-.03 2.937-.027 4.407-.038l-.001.001c.435-.036.405-.356.405-.66.002-6.253.019-12.505 0-18.758zm-5.399 5.563c-3.515.164-7.031.028-10.548.078-.344.006-.419-.158-.408-.459.07-2.167-.142-4.337.137-6.5.268-.447.533-.895.802-1.34l.458-.451c1.5-1.188 3.265-1.304 5.07-1.237.094.008.188.016.282.027.856.335 1.746.59 2.476 1.191 1.234 1.017 1.671 2.385 1.76 3.914-.011 1.59-.019 3.184-.029 4.777zm-93.145-5.419c-.093-.627-.313-1.212-.609-1.77a11.608 11.608 0 00-1.161-2.307 16.927 16.927 0 00-1.591-2.055c-1.366-1.523-2.991-2.546-4.907-3.168h-.003c-.721-.354-1.496-.499-2.287-.569-.148-.01-.295-.024-.443-.035a7 7 0 00-1.591-.182 8.65 8.65 0 00-1.631.166c-.805-.045-1.575.134-2.34.354h-.003c-1.01.26-1.995.574-2.865 1.178h-.002c-.48.196-.95.4-1.23.877-.39.15-.713.378-.997.652-.282.271-.526.588-.77.907-.314.15-.537.376-.625.722-.33.294-.614.622-.767 1.049-.11.034-.142.117-.142.214v.034c-.196.189-.362.393-.432.66h-.003c-.236.381-.499.75-.598 1.2-.236.313-.4.657-.427 1.056v.003c-.555 1.296-.788 2.664-.901 4.059v.003c-.065.802-.113 1.599-.022 2.404v.002c.033 3.944 1.307 7.399 4.035 10.288.32.485.762.834 1.245 1.14.225.295.488.536.864.62a10.356 10.356 0 003.085 1.55c1.087.338 2.226.505 3.412.532.802.072 1.604.056 2.407-.022a8.404 8.404 0 002.736-.555c.268-.014.518-.086.732-.258.188-.067.379-.126.564-.2 2.026-.849 3.603-2.24 4.893-3.993 1.535-2.084 2.54-4.375 2.82-6.966v-.003c.263-.488.156-1.027.202-1.54.191-2.055.01-4.08-.648-6.047zM21.84 83.3c-.172.402-.23.826-.284 1.256a18.956 18.956 0 01-1.366 3.007c-.317.394-.633.791-.947 1.186l-.38.351c-.253.148-.494.309-.669.553l-.392.316c-.812.298-1.625.599-2.436.899-1.55.126-3.087.193-4.59-.36-2.666-.981-4.163-3.007-4.978-5.606a11.982 11.982 0 01.008-7.305c1.263-4.008 4.298-6.39 8.587-6.033 1.561.129 2.876.74 4.134 1.575.454.464.904.928 1.358 1.395.319.531.638 1.065.957 1.599l.561 1.38a.125.125 0 00.024.128c.1.349.199.7.295 1.052l.014.3c-.009.16-.102.343.1.459a2.23 2.23 0 01.031.257c0 .005.003.01.003.016.002.043.002.083.005.126v.016l.006.105c.005.214.013.43.083.638.008.03.019.06.032.09.002.385.002.77.005 1.153-.129.473-.152.959-.161 1.447zM5.147 93.897a.771.771 0 01.088-.082c-.015.067-.03.12-.088.082zm95.555-80.087a2.935 2.935 0 01-2.129-4.954C103.992 3.145 111.076 0 118.522 0c7.743 0 15.431 3.3 20.062 8.612a2.934 2.934 0 11-4.422 3.858c-3.551-4.072-9.543-6.601-15.64-6.601-7.852 0-13.201 4.402-15.69 7.026a2.931 2.931 0 01-2.13.915zm41.056 15.454h-19.686a2.934 2.934 0 110-5.87h19.686a2.934 2.934 0 110 5.87z" fill="#000"/><path opacity=".8" d="M141.758 29.264h-19.686a2.934 2.934 0 110-5.87h19.686a2.934 2.934 0 110 5.87z" fill="#000"/><path d="M142.217 31.567a2.934 2.934 0 00-3.702 1.877 20.985 20.985 0 01-19.992 14.486c-11.596 0-21.03-9.434-21.03-21.03 0-14.833-12.068-26.9-26.9-26.9-14.833 0-26.9 12.067-26.9 26.9 0 14.832 12.067 26.899 26.9 26.899 6.117 0 11.882-2.002 16.671-5.788l2.651-2.28a2.935 2.935 0 10-3.829-4.448l-2.508 2.16c-3.733 2.935-8.222 4.486-12.985 4.486-11.597 0-21.03-9.434-21.03-21.03 0-11.596 9.434-21.03 21.03-21.03 11.596 0 21.03 9.434 21.03 21.03 0 14.833 12.068 26.9 26.9 26.9a26.842 26.842 0 0025.571-18.53 2.936 2.936 0 00-1.877-3.701z" fill="#000"/></svg>