<svg width="280" height="98" fill="none" xmlns="http://www.w3.org/2000/svg"><path d="M50.28 27.752l8.527-8.527-8.486-8.486-8.527 8.527 8.486 8.485zM60.933 0l-8.527 8.527 8.484 8.484 8.529-8.526L60.931 0zm10.802 10.688l-8.527 8.527 8.485 8.485 8.527-8.525-8.485-8.486v-.001zm-10.85 10.564l-8.528 8.527 8.484 8.485 8.529-8.526-8.486-8.486zm86.348 12.11h-7.453l-11.905 16.355h-10.398V33.363H110.8V72.3h6.676V55.947h10.343L139.724 72.3h8.232l-14.519-19.97 13.795-18.968zm125.907 0v16.355h-25.23V33.363h-6.676V72.3h6.676V55.947h25.23V72.3h6.675V33.364h-6.675v-.001zM103.243 45.418L91.392 33.566v-.092H76.641v.115l-.108-.108-11.935 11.937.016.015h-.02v26.869h6.675V59.508H96.65v12.794h6.675v-26.87h-.098l.016-.015zM71.27 52.832v-4.645l8.038-8.038h9.227l8.117 8.117v4.566H71.27zm109.976-19.456l-.023.025v-.032h-24.49v.024l-.016-.017-7.052 7.052.039.04h-.138V65.2h.138l-.04.042 7.052 7.052.017-.019v.025h24.49v-.03l.023.022 7.052-7.051-.04-.04h.04V40.466h-.039l.039-.039-7.052-7.052zm-2.771 32.25h-18.986l-3.247-3.246V43.29l3.247-3.246h18.986l3.148 3.148v19.285l-3.148 3.149zm54.972-16.81h-31.221V43.18l3.141-3.141h27.656V33.36h-30.378v.045l-.044-.043-7.051 7.051.013.013h-.013V55.49h31.222v6.993l-3.141 3.142H195.55V72.3h30.802v-.044l.043.044 7.053-7.052-.014-.012h.014V54.292l-.001-5.475zm-176.112-3.4l-11.85-11.85v-.092h-7.973v.115l-.108-.108-8.643 8.643-8.558-8.558v-.092h-7.97v.115l-.108-.108L.19 45.418l.016.015H.187v26.869h6.675V48.187L14.9 40.15h2.449l8.117 8.117v24.036h6.675V48.187l8.037-8.038h2.45l8.117 8.117v24.036h6.674v-26.87h-.097l.014-.015zM0 83.75h2.853l-1.35 2.823h-.151L0 83.75zm.376 3.68h2.087v7.508H.376V87.43zm4.55 0v7.51h2.088v-3.92c0-.52.17-.952.51-1.292.34-.34.772-.51 1.292-.51.49 0 .879.159 1.163.48.287.32.435.76.445 1.322v3.92h2.101v-4.25c0-.683-.137-1.28-.412-1.796a2.924 2.924 0 00-1.157-1.195 3.414 3.414 0 00-1.704-.42c-.49 0-.942.089-1.352.264-.403.17-.767.423-1.066.743v-.857l-1.908.001zm17.393 0h-2.253l-2.045 5.677h-.12l-2.042-5.677h-2.298l2.943 7.508h2.854l2.96-7.508zm8.576 3.724c0-.74-.172-1.406-.518-1.998a3.64 3.64 0 00-1.428-1.38 4.15 4.15 0 00-2.02-.497 4.247 4.247 0 00-2.064.511 3.86 3.86 0 00-2.035 3.455c0 .75.172 1.416.517 1.997a3.573 3.573 0 001.45 1.359c.62.325 1.331.488 2.132.488.661 0 1.26-.112 1.796-.338a3.602 3.602 0 001.298-.886c.33-.365.541-.763.632-1.194h-2.088a1.432 1.432 0 01-.639.525 2.255 2.255 0 01-.954.196c-.56 0-1.03-.153-1.411-.459a1.903 1.903 0 01-.705-1.148h5.991c.03-.21.046-.42.046-.63zm-5.993-.736c.113-.42.37-.787.728-1.036.366-.26.784-.391 1.254-.391.49 0 .91.129 1.255.383.345.256.578.604.698 1.044h-3.935zm11.94 2.936c-.317.12-.653.179-.992.173-.5 0-.915-.105-1.246-.315a1.33 1.33 0 01-.616-.857h-2.132c.11.922.533 1.619 1.27 2.089.734.47 1.639.705 2.71.705 1.02 0 1.874-.21 2.56-.63.687-.42 1.03-1.017 1.03-1.788 0-.481-.142-.87-.42-1.163a2.747 2.747 0 00-1.105-.684 13.268 13.268 0 00-1.72-.45 4.883 4.883 0 00-.39-.077c-.59-.118-.998-.224-1.225-.314-.225-.09-.338-.245-.338-.466 0-.24.129-.413.383-.519a2.28 2.28 0 01.865-.156c.44 0 .825.087 1.157.262.33.176.544.433.645.773h2.133c-.11-.93-.517-1.616-1.217-2.056-.7-.441-1.548-.661-2.538-.661a5.848 5.848 0 00-1.69.24c-.536.159-.972.417-1.306.773-.337.355-.504.808-.504 1.36.01.51.159.922.443 1.238a2.66 2.66 0 001.097.714c.445.159 1.013.31 1.704.45l.436.091c.56.1.941.192 1.14.278.202.086.302.228.302.428 0 .26-.146.446-.436.562zm5.121-7.727v.857c0 .31-.08.544-.24.705-.16.16-.39.24-.691.24h-.93v1.893h1.696v3.26c0 1.672.961 2.507 2.883 2.507.562 0 1.197-.065 1.909-.196v-1.877c-.525.1-1.058.15-1.592.151-.401 0-.687-.076-.857-.225-.171-.15-.256-.407-.256-.767v-2.852h2.705V87.43h-2.705v-1.803h-1.922zm6.444 1.803v7.51h2.087v-3.92c0-.52.153-.955.458-1.3a1.452 1.452 0 011.134-.518c.461 0 .828.159 1.104.473.275.315.417.734.428 1.254v4.01h2.087v-3.92c0-.52.153-.954.457-1.298a1.469 1.469 0 011.149-.52c.452 0 .816.16 1.097.474.28.315.42.734.42 1.254v4.01h2.103v-4.342c0-.66-.137-1.241-.413-1.742a2.886 2.886 0 00-1.171-1.163c-.506-.275-1.09-.414-1.751-.414a3.268 3.268 0 00-1.426.315 3.17 3.17 0 00-1.11.872 2.697 2.697 0 00-1.045-.88 3.262 3.262 0 00-1.435-.307c-.45 0-.872.088-1.26.263a2.815 2.815 0 00-1.007.76v-.872h-1.908l.002.001zm22.243 3.724c0-.74-.174-1.406-.519-1.998a3.638 3.638 0 00-1.426-1.38 4.15 4.15 0 00-2.02-.497c-.752 0-1.44.17-2.065.511a3.863 3.863 0 00-2.035 3.455c0 .75.171 1.416.518 1.997a3.562 3.562 0 001.45 1.359c.62.325 1.33.488 2.132.488a4.591 4.591 0 001.795-.338 3.603 3.603 0 001.297-.886c.315-.334.533-.746.632-1.194h-2.087a1.432 1.432 0 01-.638.525c-.3.134-.626.201-.955.196-.56 0-1.03-.153-1.412-.459a1.905 1.905 0 01-.705-1.148h5.993c.03-.21.045-.42.045-.63zm-5.992-.736c.112-.42.37-.787.727-1.036.367-.26.783-.391 1.255-.391.49 0 .908.129 1.253.383.346.256.578.604.698 1.044h-3.933zm7.719-2.988v7.51h2.087v-3.92c0-.52.171-.952.51-1.292.34-.34.772-.51 1.292-.51.491 0 .88.159 1.164.48.286.32.434.76.444 1.322v3.92h2.103v-4.25c0-.683-.138-1.28-.414-1.796a2.923 2.923 0 00-1.157-1.195 3.409 3.409 0 00-1.704-.42c-.49 0-.942.089-1.352.264-.403.17-.766.423-1.065.743v-.857h-1.91l.002.001zm10.588-1.803v.857c0 .31-.08.544-.24.705-.159.16-.391.24-.69.24h-.93v1.893H82.8v3.26c0 1.672.961 2.507 2.885 2.507.56 0 1.196-.065 1.907-.196v-1.877c-.525.1-1.058.15-1.592.151-.401 0-.686-.076-.857-.225-.171-.15-.255-.407-.255-.767v-2.852h2.704V87.43h-2.704v-1.803h-1.923zm10.438 3.86H89.17v1.878h4.236l-.002-1.878zm2.224-2.057v10.513h2.087v-3.71c.596.554 1.38.86 2.193.857a3.645 3.645 0 003.266-1.907c.332-.613.5-1.301.49-1.998 0-.742-.164-1.408-.49-1.998a3.638 3.638 0 00-3.266-1.908 3.22 3.22 0 00-2.373 1.007v-.857l-1.907.001zm2.59 2.342c.366-.38.824-.57 1.375-.57s1.011.19 1.381.57c.37.382.556.852.556 1.413 0 .56-.186 1.03-.556 1.412a1.839 1.839 0 01-1.38.571c-.552 0-1.01-.19-1.376-.572-.366-.379-.548-.85-.548-1.411 0-.56.184-1.032.548-1.413zm8.689 4.807c.647.344 1.37.52 2.102.51.771 0 1.469-.17 2.096-.51a3.864 3.864 0 001.479-1.405c.362-.6.549-1.29.541-1.99a3.763 3.763 0 00-2.013-3.394 4.355 4.355 0 00-2.103-.51c-.771 0-1.471.17-2.102.51a3.773 3.773 0 00-2.013 3.395c0 .73.178 1.394.533 1.99a3.79 3.79 0 001.48 1.404zm.676-4.822c.371-.37.846-.555 1.426-.555.571 0 1.044.184 1.42.555.375.371.563.846.563 1.428 0 .58-.188 1.056-.563 1.426-.376.371-.849.556-1.42.556-.57 0-1.043-.185-1.419-.556-.374-.37-.563-.846-.563-1.426 0-.582.185-1.057.556-1.428zm12.136-.045l1.381 5.228h2.583l1.908-7.51h-2.058l-1.323 5.287-1.381-5.287h-2.162l-1.396 5.332-1.353-5.332h-2.072l1.908 7.508h2.583l1.382-5.226zm14.673 1.442c0-.74-.173-1.406-.518-1.998a3.638 3.638 0 00-1.427-1.38 4.15 4.15 0 00-2.02-.497c-.751 0-1.44.17-2.066.511a3.866 3.866 0 00-2.035 3.455c0 .75.173 1.416.518 1.997.346.58.848 1.051 1.45 1.359.621.325 1.332.488 2.133.488a4.58 4.58 0 001.794-.338 3.602 3.602 0 001.301-.886c.313-.334.53-.747.63-1.194h-2.089a1.42 1.42 0 01-.637.525 2.264 2.264 0 01-.954.196c-.561 0-1.031-.153-1.412-.459a1.91 1.91 0 01-.706-1.148h5.993c.03-.209.045-.42.045-.63zm-5.993-.736c.113-.42.371-.787.729-1.036a2.11 2.11 0 011.254-.391c.49 0 .909.129 1.254.383.345.257.578.604.698 1.044h-3.935zm7.72-2.988v7.51h2.088v-4.056c0-.46.147-.851.443-1.17a1.42 1.42 0 011.088-.482c.371 0 .666.095.887.285.22.191.33.466.33.827v.3h2.088v-.51c0-.882-.261-1.578-.781-2.09-.521-.51-1.192-.765-2.013-.765-.441 0-.853.089-1.239.264-.38.17-.716.424-.984.743v-.857l-1.907.001zm15.605 3.724c0-.74-.173-1.406-.518-1.998a3.638 3.638 0 00-1.427-1.38 4.154 4.154 0 00-2.02-.497c-.751 0-1.44.17-2.066.511a3.871 3.871 0 00-2.034 3.454c0 .751.172 1.417.517 1.998a3.574 3.574 0 001.45 1.359c.619.325 1.331.488 2.133.488.659 0 1.258-.112 1.793-.338.536-.225.97-.52 1.299-.886a2.53 2.53 0 00.632-1.194h-2.088a1.42 1.42 0 01-.637.525 2.264 2.264 0 01-.954.196c-.561 0-1.032-.153-1.412-.459a1.898 1.898 0 01-.706-1.148h5.993c.03-.209.045-.42.045-.63zm-5.993-.736c.12-.43.363-.776.727-1.036.367-.26.806-.398 1.255-.391.49 0 .91.129 1.255.383.345.256.578.604.698 1.044h-3.935zm15.2 4.52V84.275h-2.089v3.86a3.192 3.192 0 00-2.207-.857 3.639 3.639 0 00-3.252 1.908 4.071 4.071 0 00-.489 1.998c0 .742.163 1.408.489 1.998.326.59.771 1.055 1.337 1.397.565.34 1.203.51 1.915.51.47 0 .908-.088 1.314-.263a3.142 3.142 0 001.059-.743v.857l1.923-.001zm-2.598-2.341a1.84 1.84 0 01-1.368.57 1.855 1.855 0 01-1.382-.57 1.947 1.947 0 01-.556-1.413c0-.561.185-1.031.556-1.412.371-.38.831-.57 1.382-.57a1.837 1.837 0 011.368.57c.369.38.554.851.554 1.412 0 .56-.185 1.032-.554 1.412zm8.816-5.167v10.513h2.087v-3.71a3.192 3.192 0 002.193.857 3.68 3.68 0 001.922-.511 3.634 3.634 0 001.344-1.397 4.07 4.07 0 00.489-1.998c0-.741-.163-1.406-.489-1.996a3.64 3.64 0 00-3.266-1.909 3.214 3.214 0 00-2.374 1.007v-.857l-1.906.001zm2.59 2.342a1.83 1.83 0 011.374-.57c.551 0 1.011.19 1.382.57.37.382.556.852.556 1.413 0 .56-.186 1.03-.556 1.412a1.852 1.852 0 01-1.382.571 1.827 1.827 0 01-1.374-.572c-.366-.379-.548-.85-.548-1.411 0-.56.182-1.032.548-1.413zm9.318-5.497h-2.087v10.663h2.087V84.275zm6.625 6.053c-.221.1-.59.171-1.111.21-2.523.151-3.785.968-3.785 2.45 0 .65.23 1.166.69 1.545.461.381 1.092.572 1.893.572.58 0 1.129-.098 1.645-.294.516-.196.933-.463 1.254-.803v.947l2.614-.016v-1.832h-.872v-2.764c0-.93-.297-1.675-.893-2.231-.595-.555-1.395-.833-2.395-.833-.982 0-1.799.25-2.449.751-.651.502-1.037 1.172-1.157 2.013h1.954c.08-.352.257-.621.533-.812.275-.19.618-.285 1.028-.285.401 0 .731.088.992.263.259.175.39.398.39.668-.001.201-.111.352-.331.45zm.421 1.126v.09c0 .342-.103.662-.309.962a2.229 2.229 0 01-.826.722c-.345.179-.713.27-1.103.27-.311 0-.549-.063-.714-.188a.623.623 0 01-.248-.534c0-.28.138-.498.413-.653.276-.154.729-.257 1.359-.308.331-.03.63-.08.894-.15.265-.07.443-.141.534-.21zm4.504-4.024v7.51h2.089v-3.92c0-.52.17-.952.51-1.292.34-.34.771-.51 1.292-.51.491 0 .879.159 1.164.48.285.32.432.76.442 1.322v3.92h2.103v-4.25c0-.683-.138-1.28-.414-1.796a2.926 2.926 0 00-1.155-1.195 3.41 3.41 0 00-1.706-.42c-.491 0-.94.089-1.351.264a3.14 3.14 0 00-1.067.743v-.857l-1.907.001zm10.589-1.803v.857c0 .31-.08.544-.24.705-.161.16-.391.24-.691.24h-.931v1.893h1.698v3.26c0 1.672.961 2.507 2.883 2.507.561 0 1.196-.065 1.907-.196v-1.877a8.54 8.54 0 01-1.591.151c-.402 0-.686-.076-.857-.225-.17-.15-.255-.407-.255-.767v-2.852h2.703V87.43h-2.703v-1.803h-1.923zm10.198 1.803v7.51h2.089v-3.92c0-.52.168-.952.51-1.292.34-.34.77-.51 1.29-.51.491 0 .879.159 1.165.48.286.32.434.76.443 1.322v3.92h2.103v-4.25c0-.683-.138-1.28-.414-1.796a2.926 2.926 0 00-1.155-1.195 3.41 3.41 0 00-1.706-.42 3.403 3.403 0 00-1.351.264c-.404.17-.767.423-1.067.743v-.857l-1.907.001zm17.363 7.508V87.43h-2.088v3.919c0 .522-.17.951-.51 1.292-.341.341-.772.511-1.292.511-.491 0-.879-.162-1.164-.488-.285-.326-.429-.763-.429-1.314l-.014-3.92h-2.104v4.25c0 .681.139 1.279.414 1.794a2.92 2.92 0 001.157 1.195c.495.28 1.063.42 1.704.42a3.41 3.41 0 001.352-.262 3.11 3.11 0 001.066-.744v.857l1.908-.001zm3.333-9.311v.857c0 .31-.079.544-.24.705-.159.16-.39.24-.69.24h-.932v1.893h1.698v3.26c0 1.672.961 2.507 2.883 2.507.561 0 1.196-.065 1.908-.196v-1.877c-.525.1-1.058.15-1.592.151-.4 0-.687-.076-.857-.225-.17-.15-.254-.407-.254-.767v-2.852h2.703V87.43h-2.703v-1.803h-1.924zm6.444 1.803v7.51h2.087v-4.056c0-.46.148-.851.443-1.17a1.424 1.424 0 011.09-.482c.37 0 .666.095.885.285.22.191.33.466.33.827v.3h2.088v-.51c0-.882-.26-1.578-.78-2.09-.522-.51-1.192-.765-2.013-.765-.44 0-.853.089-1.239.264-.379.17-.716.424-.984.743v-.857l-1.907.001zm7.72-3.68l1.351 2.823h.15l1.351-2.823h-2.852zm2.463 3.68h-2.088v7.508h2.088V87.43zm3.334-1.803v.857c0 .31-.08.544-.24.705-.161.16-.391.24-.691.24h-.931v1.893h1.698v3.26c0 1.672.961 2.507 2.883 2.507.561 0 1.196-.065 1.907-.196v-1.877c-.524.1-1.057.15-1.591.151-.401 0-.687-.076-.857-.225-.17-.15-.255-.407-.255-.767v-2.852h2.703V87.43h-2.703v-1.803h-1.923zm8.531 1.803h-2.088v7.508h2.088V87.43zm-2.462-3.68l1.351 2.823h.149l1.352-2.823h-2.852zm6.276 10.829a4.37 4.37 0 002.104.51c.771 0 1.469-.17 2.094-.51a3.87 3.87 0 001.481-1.405c.361-.6.549-1.29.541-1.99 0-.731-.179-1.394-.534-1.99a3.77 3.77 0 00-1.479-1.404 4.357 4.357 0 00-2.103-.51c-.77 0-1.472.17-2.102.51a3.782 3.782 0 00-1.481 1.404 3.817 3.817 0 00-.532 1.99 3.77 3.77 0 002.011 3.395zm.676-4.822c.371-.37.846-.555 1.428-.555.57 0 1.043.184 1.419.555.375.371.563.846.563 1.428 0 .58-.188 1.056-.563 1.426-.376.371-.849.556-1.419.556-.571 0-1.045-.185-1.419-.556-.376-.37-.563-.846-.563-1.426 0-.582.184-1.057.554-1.428zm13.359-2.058a3.41 3.41 0 00-1.705-.42c-.49 0-.94.089-1.35.264-.404.17-.768.423-1.068.743v-.857H272.4v7.51h2.088v-3.92c0-.52.17-.95.511-1.291.34-.34.77-.51 1.29-.51.491 0 .88.159 1.164.48.287.32.435.76.445 1.322v3.92H280v-4.25c0-.683-.138-1.28-.414-1.796a2.908 2.908 0 00-1.156-1.195z" fill="#000"/></svg>