<svg width="280" height="32" fill="none" xmlns="http://www.w3.org/2000/svg"><path d="M244.537 31.058h-7.28v-17.38l-.192-.06c-.126.287-.26.57-.378.862-2.106 5.292-4.207 10.585-6.304 15.88-.21.534-.446.779-1.061.75a42.137 42.137 0 00-3.67 0c-.589.023-.851-.174-1.069-.724-2.073-5.276-4.18-10.536-6.279-15.8a2.065 2.065 0 00-.543-.84v17.3h-7.376V.643h1.246c2.125 0 4.251.025 6.374-.016.6-.01.851.205 1.075.736a3918.964 3918.964 0 007.986 18.773c.122.288.26.57.446.972 1.149-2.707 2.254-5.297 3.353-7.89 1.655-3.908 3.32-7.811 4.943-11.73.257-.616.546-.873 1.262-.873 2.468.056 4.937.021 7.467.021v30.422zm-59.064-12.376v12.36h-7.411V.704h25.884V18.64h-6.291l8.963 12.376c-.301.033-.512.075-.722.077-2.359 0-4.718-.016-7.077.015-.537 0-.83-.189-1.122-.613-2.557-3.717-5.145-7.411-7.689-11.133-.349-.524-.729-.727-1.352-.7-1.016.059-2.034.02-3.183.02zm11.838-11.297h-11.768v4.611h11.773l-.005-4.611zM157.226 0c4.246.08 8.122 1.118 11.268 4.152 2.446 2.363 3.697 5.316 4.153 8.632.4 2.913.332 5.825-.512 8.65-1.712 5.732-5.668 8.977-11.486 9.99a19.493 19.493 0 01-8.65-.398c-5.787-1.616-9.654-6.383-10.217-12.471-.245-2.66-.206-5.295.498-7.881 1.606-5.895 5.564-9.218 11.479-10.31 1.134-.22 2.31-.25 3.467-.364zm8.071 16.19c-.104-1.082-.152-1.922-.274-2.756-.585-3.965-3.404-6.601-7.227-6.788-4.145-.205-7.21 2.042-8.213 6.051a13.802 13.802 0 00-.088 6.057c.755 3.772 3.598 6.219 7.362 6.37 3.904.158 6.938-1.998 7.925-5.726.295-1.113.372-2.289.515-3.208zm-139.26 2.5H7.446v12.332H0V.684h26.037v18.008zm-18.59-6.708h11.948V7.37H7.448v4.613zm78.741 19.107c-2.565 0-5.038.016-7.514-.028-.223 0-.548-.35-.645-.615a419.536 419.536 0 01-2.853-7.864c-.192-.55-.454-.755-1.06-.746-2.473.04-4.947.04-7.422 0-.62 0-.914.175-1.122.776-.905 2.607-1.88 5.19-2.796 7.792-.175.515-.428.71-.994.699-2.377-.035-4.755-.016-7.249-.016l2.655-6.921c2.897-7.573 5.79-15.145 8.677-22.717.231-.612.5-.846 1.173-.832 2.272.047 4.543.028 6.815 0 .49 0 .776.1.973.617a9515.71 9515.71 0 0011.202 29.33c.05.127.082.266.16.525zM70.386 8.829c-.92 2.573-1.765 4.929-2.621 7.34h5.254c-.871-2.411-1.71-4.753-2.633-7.34zm177.943 22.26l3.189-8.325c2.723-7.106 5.439-14.217 8.149-21.331.237-.627.524-.823 1.186-.81 2.272.041 4.544.024 6.815.008.446 0 .738.061.925.552 3.743 9.828 7.497 19.651 11.264 29.47.038.106.07.214.143.436-1.922 0-3.775.009-5.622 0-.777 0-1.737.206-2.282-.164-.51-.35-.585-1.337-.844-2.047-.756-2.074-1.525-4.145-2.25-6.23-.198-.569-.444-.824-1.103-.812a228.97 228.97 0 01-7.514 0c-.57 0-.811.198-.993.711-.919 2.602-1.885 5.187-2.796 7.79-.188.54-.41.78-1.034.77-2.359-.039-4.715-.018-7.233-.018zm18.476-14.925c-.874-2.424-1.711-4.769-2.632-7.34-.921 2.582-1.759 4.932-2.621 7.34h5.253zM123.299 7.046v4.627h14.011v6.366h-13.99v12.984h-7.441V.72h22.892v6.326h-15.472zm-22.054 24.017h-7.453V7.308c-.384-.02-.698-.049-.996-.049-2.939 0-5.88-.02-8.819.01-.634 0-.874-.152-.853-.824.044-1.886.016-3.775.016-5.732h28.566v6.546h-10.461v23.804zm-70.681-.018V.72h7.403v23.765h15.646v6.557l-23.049.003z" fill="#000"/></svg>