<svg width="182" height="142" fill="none" xmlns="http://www.w3.org/2000/svg"><path opacity=".9" d="M84.201 2.146c-7.538-3.561-30.213-5.745-51.699 19.38C11.016 46.651-4.288 85.366 1.08 93.781c5.368 8.417 33.625-2.846 45.817 2.555 12.192 5.4 61.188 56.742 85.221 42.139 21.044-12.797 5.986-50.302-15.214-75.148-17.346-20.322-8.267-49.639-32.703-61.18z" fill="#F7F7F7"/><path opacity=".9" d="M83.363 10.1c-6.746-3.093-26.97-5.146-46.045 16.781C18.243 48.81 4.732 82.655 9.548 90.051c4.815 7.396 28.965-4.309 39.858.462 10.892 4.77 55.8 51.874 77.181 39.169 18.724-11.133-.299-42.971-17.007-62.494C94.203 49.212 102.353 18.79 83.363 10.1z" fill="#F1F1F1"/><path opacity=".9" d="M82.856 16.093C77.17 12.739 58.81 11.505 41.79 31.086 24.768 50.667 12.712 80.881 17.008 87.484c4.296 6.603 25.833-3.854 35.55.403 9.715 4.257 49.755 46.299 68.823 34.951 16.703-9.943-2.534-39.851-17.436-57.275-13.726-16.04-4.862-39.865-21.09-49.47z" fill="#DFDFDF"/><path opacity=".9" d="M82.232 23.014c-5.096-2.6-20.797-3.977-35.524 12.881-14.726 16.859-25.112 42.893-21.394 48.56 3.717 5.668 22.35-3.301 30.76.377 8.409 3.679 43.087 39.93 59.582 30.169 14.44-8.546-3.809-33.756-16.716-48.775-11.886-13.836-3.587-36.524-16.708-43.212z" fill="#C8C8C8"/><path opacity=".9" d="M80.439 30.209c-4.16-1.827-13.492-2.275-25.872 10.658C42.185 53.8 32.834 74.194 35.55 78.86c2.717 4.666 17.873-1.859 24.391 1.365 6.519 3.223 32.495 33.326 46.006 26.112 11.822-6.323-.838-28.108-12.068-40.371-11.913-13.004-3.47-31.377-13.44-35.757z" fill="#B4B4B4"/><path d="M60.59 83.435h-1.397V63.392h10.964v1.3h-9.566v8.488h9.04v1.3h-9.04v8.955zm21.375 0l-.344-2.353h-.11a7.072 7.072 0 01-2.308 2.035 6.162 6.162 0 01-2.8.598 4.842 4.842 0 01-3.413-1.125 4.016 4.016 0 01-1.221-3.106 3.836 3.836 0 011.813-3.38c1.209-.801 2.959-1.234 5.25-1.3l2.834-.084v-.988a5.062 5.062 0 00-.85-3.19 3.348 3.348 0 00-2.782-1.08 9.302 9.302 0 00-4.29 1.15l-.507-1.176a11.341 11.341 0 014.849-1.15c1.633 0 2.855.433 3.665 1.3.81.866 1.213 2.19 1.209 3.97v9.905h-1.001l.006-.026zm-5.478-.962a4.739 4.739 0 005.134-5.147v-1.462l-2.6.11c-2.092.1-3.583.427-4.47.982a2.82 2.82 0 00-1.34 2.6 2.776 2.776 0 00.858 2.17c.683.544 1.547.81 2.418.747zM93.65 68.26c.68.004 1.359.067 2.028.188l-.26 1.3a7.928 7.928 0 00-1.95-.234 3.75 3.75 0 00-3.12 1.618 6.584 6.584 0 00-1.221 4.082v8.215h-1.358V68.546h1.15l.136 2.684h.098a6.317 6.317 0 011.95-2.307 4.588 4.588 0 012.547-.663zm23.651 15.175v-9.748c0-1.452-.284-2.511-.851-3.178a3.258 3.258 0 00-2.6-1.001c-1.525 0-2.652.42-3.38 1.26-.727.841-1.094 2.16-1.098 3.959v8.721h-1.384v-10.19c0-2.509-1.15-3.765-3.451-3.77-1.56 0-2.697.455-3.412 1.365-.715.91-1.072 2.364-1.072 4.36v8.216h-1.359V68.546h1.125l.286 2.04h.084a4.26 4.26 0 011.755-1.715 5.197 5.197 0 012.508-.611c2.344 0 3.861.882 4.55 2.645h.052a5.066 5.066 0 011.949-1.95 5.618 5.618 0 012.788-.682c1.625 0 2.845.433 3.659 1.3.815.866 1.222 2.244 1.222 4.133v9.749h-1.345l-.026-.02zm5.971-19.022c0-.867.289-1.3.865-1.3a.769.769 0 01.65.344c.177.293.261.633.24.975a1.72 1.72 0 01-.24.975.761.761 0 01-.65.357c-.576-.017-.865-.468-.865-1.351zm1.547 19.022h-1.371V68.546h1.358v14.89h.013zm15.365 0v-9.644c0-1.5-.314-2.582-.942-3.25a3.819 3.819 0 00-2.932-1.02c-1.78 0-3.08.45-3.899 1.352-.819.9-1.233 2.359-1.241 4.373v8.215h-1.358V68.546h1.15l.26 2.04h.084c.966-1.55 2.687-2.326 5.16-2.326 3.38 0 5.07 1.813 5.07 5.44v9.748h-1.339l-.013-.013zm17.774-14.889v.942l-3.081.195a5.252 5.252 0 011.235 3.367 4.546 4.546 0 01-1.43 3.483 5.407 5.407 0 01-3.841 1.333 8.352 8.352 0 01-1.423-.085 3.545 3.545 0 00-1.235 1c-.27.351-.419.78-.422 1.223a1.127 1.127 0 00.539 1.04 3.687 3.687 0 001.813.331h2.6a6.044 6.044 0 013.711.981 3.426 3.426 0 011.3 2.899 4.121 4.121 0 01-1.911 3.633c-1.274.866-3.089 1.3-5.446 1.3a7.494 7.494 0 01-4.348-1.08 3.484 3.484 0 01-1.54-3.015 3.57 3.57 0 01.949-2.547 4.93 4.93 0 012.599-1.385 2.602 2.602 0 01-1.072-.812 1.948 1.948 0 01-.403-1.209c0-.996.635-1.863 1.904-2.6a4.243 4.243 0 01-2.027-1.676 4.776 4.776 0 01-.728-2.6 4.707 4.707 0 011.416-3.58 5.325 5.325 0 013.828-1.352 7.059 7.059 0 012.275.286h4.764l-.026-.072zM145.909 85.95c0 2.045 1.516 3.068 4.549 3.068 3.899 0 5.849-1.246 5.849-3.737a2.16 2.16 0 00-.916-1.95 5.592 5.592 0 00-2.97-.604h-2.438c-2.716.004-4.074 1.079-4.074 3.223zm1.137-12.764a3.435 3.435 0 001.046 2.678 4.694 4.694 0 005.654 0 3.598 3.598 0 00.995-2.736 3.727 3.727 0 00-1.021-2.853 4.022 4.022 0 00-2.853-.95 3.785 3.785 0 00-2.801 1.021 3.834 3.834 0 00-1.02 2.84z" fill="#262424"/><path opacity=".9" d="M179.092 83.26H167.05a2.808 2.808 0 100 5.615h12.042a2.808 2.808 0 100-5.615z" fill="#000"/><path d="M65.31 40.516a4.366 4.366 0 00-2.386.591 1.949 1.949 0 00-.929 1.788 2.08 2.08 0 00.93 1.832 14.03 14.03 0 003.964 1.365 10.913 10.913 0 014.55 2.06 4.881 4.881 0 011.533 3.9 5.198 5.198 0 01-1.95 4.185 7.753 7.753 0 01-5.102 1.605 11.984 11.984 0 01-8.201-3.184l2.086-2.509a9.391 9.391 0 006.206 2.6 4.237 4.237 0 002.555-.69 2.165 2.165 0 00.942-1.832 2.06 2.06 0 00-.89-1.774 9.352 9.352 0 00-3.061-1.157 27.393 27.393 0 01-3.296-.955 7.432 7.432 0 01-2.001-1.144c-1.166-.867-1.748-2.22-1.748-4.062a4.94 4.94 0 011.988-4.218 8.007 8.007 0 014.92-1.482c1.277.013 2.543.232 3.75.65a9.807 9.807 0 013.217 1.749l-1.774 2.508a6.725 6.725 0 00-2.366-1.3 9.136 9.136 0 00-2.937-.526zm47.24 1.436l2.639 5.98 3.555.019-4.419-10.028h-3.549l-4.393 9.963 3.542.02 2.625-5.954zm-10.457 15.676h3.548l1.976-4.478.994-2.255-3.548-.02-2.97 6.753zm14.422-6.688l.968 2.21 1.976 4.478h3.555l-2.944-6.668-3.555-.02z" fill="#262424"/><path d="M120.166 50.96l6.772.052-.019-3.016-8.176-.045 1.326 3.009h.097zm-4.978-3.029l-5.264-.026-.955 2.17-.358.82 3.354.02 4.549.025-.383-.864-.943-2.145zm-26.944 2.366l-5.947-12.374h-5.186v19.705h3.328v-15.39l6.85 13.674h1.858l9.073-17.99h-4.023l-5.953 12.375zm9.527.617l-1.742-.006v6.72h3.328V50.92l-1.586-.007z" fill="#262424"/><path d="M97.771 37.936l-1.742-.013v9.768h3.328v-9.742l-1.586-.013zm20.972 10.014l-3.555-.019.943 2.145.383.864 3.555.02-1.326-3.01zm10.333-7.012h4.231c1.785 0 3.027.24 3.724.722.698.48 1.044 1.365 1.04 2.651a3.51 3.51 0 01-1.014 2.808c-.676.58-1.954.87-3.834.87h-1.911l6.844 9.645h4.23l-5.16-7.149c2.838-.866 4.257-2.916 4.257-6.148 0-2.235-.65-3.862-1.95-4.88-1.299-1.019-3.453-1.526-6.46-1.521h-7.324v19.711h3.327V40.938zm24.359.026v16.664h-3.341V40.964h-5.979v-3.048h15.279v3.048h-5.979.02z" fill="#262424"/></svg>