<svg width="280" height="74" fill="none" xmlns="http://www.w3.org/2000/svg"><g clip-path="url(#clip0_202_161)" fill-rule="evenodd" clip-rule="evenodd" fill="#000"><path d="M274.636 41.013c.74.91 1.531 1.613 2.364 2.121.84.509 1.84.91 3 1.205l-.148 1.124c-1.58 0-3.061-.093-4.444-.28-1.383-.188-2.655-.51-3.815-.964-1.408-.563-2.629-1.5-3.666-2.811l-7.74-9.958 4.962-6.023c1.284-1.553 2.148-2.704 2.592-3.453.371-.643.556-1.165.556-1.567 0-.802-.704-1.338-2.11-1.606v-1.124h11.257v1.124c-2.148.482-3.963 1.245-5.444 2.29-1.111.802-2.592 2.234-4.444 4.296l-3.024 3.426 10.104 12.2z"/><path d="M237.448 31.811l-3.371-9.316-3.197 9.316h6.568zm17.405-5.22c0-3.48-.259-5.581-.777-6.304-.395-.562-1.766-1.057-4.111-1.486v-1.124h14.665v1.124c-2.32.429-3.678.91-4.073 1.446-.544.75-.815 2.864-.815 6.344v9.477c0 3.48.259 5.58.778 6.303.394.563 1.765 1.058 4.11 1.486v1.124h-27.257v-1.124c1.161-.214 1.963-.468 2.408-.763.444-.294.667-.803.667-1.526 0-.482-.099-1.077-.298-1.786-.197-.71-.53-1.72-1-3.032l-.888-2.53h-8.073l-.667 2.048c-.692 2.142-1.037 3.721-1.037 4.738 0 1.071.383 1.794 1.148 2.169.469.24 1.543.468 3.223.682v1.124h-11.519v-1.124c1.457-.482 2.364-.897 2.723-1.245.357-.348.685-.896.981-1.646l2.413-6.103 5.771-14.616-.369-1.205a6.589 6.589 0 001.906-1.204 9.096 9.096 0 001.611-1.887h.704l6.925 19.554c1.186 3.212 1.82 4.942 1.926 5.18.634 1.422 1.988 2.476 4.037 3.172 2.321-.428 3.679-.91 4.073-1.445.544-.75.815-2.865.815-6.344V26.59zm-67.699 5.22l-3.369-9.316-3.197 9.316h6.566zm22.295 4.257c0 2.57.075 4.189.223 4.858.444 1.954 2.284 2.931 5.517 2.931v1.124h-28.108v-1.124c1.16-.214 1.963-.468 2.407-.763.444-.294.666-.803.666-1.526 0-.482-.098-1.077-.296-1.786-.197-.71-.53-1.72-1-3.032l-.889-2.53h-8.073l-.667 2.048c-.691 2.142-1.037 3.721-1.037 4.738 0 1.071.382 1.794 1.148 2.169.469.24 1.544.468 3.222.682v1.124h-11.517v-1.124c1.456-.482 2.364-.897 2.721-1.245.359-.348.686-.896.982-1.646l2.413-6.103 5.772-14.616-.371-1.205a6.566 6.566 0 001.907-1.204 9.16 9.16 0 001.612-1.887h.703l6.925 19.554c1.185 3.212 1.82 4.942 1.927 5.18.634 1.422 1.986 2.476 4.036 3.172 2.321-.428 3.678-.91 4.074-1.445.543-.75.815-2.865.815-6.344V25.387c0-2.945-.216-4.692-.648-5.24-.432-.55-1.847-.998-4.241-1.346v-1.124h11.518c3.926 0 6.728.589 8.407 1.767 1.679 1.178 2.517 2.971 2.517 5.38 0 2.731-1.134 4.832-3.406 6.305-1.507.99-3.79 1.806-6.851 2.449l-.26-1.165c1.58-.455 2.803-1.224 3.667-2.308.864-1.085 1.296-2.497 1.296-4.237 0-2.221-.642-3.874-1.926-4.958-1.284-1.085-3.012-1.627-5.185-1.627v16.785zM90.023 31.812l-3.37-9.316-3.197 9.316h6.567zm50.552 4.256c0 3.48.258 5.581.777 6.304.396.562 1.765 1.057 4.111 1.486v1.124h-14.665c-2.128.003-6.459-.098-8.277-1.486-.877-.669-1.846-1.82-2.908-3.453a40.792 40.792 0 01-2.296-4.055c-.864-1.794-1.475-2.824-1.833-3.092-.358-.268-1.413-.549-3.166-.843v4.015c0 2.57.074 4.19.222 4.858.444 1.955 2.284 2.932 5.518 2.932v1.124H89.949v-1.124c1.16-.214 1.963-.469 2.407-.763.445-.295.667-.803.667-1.526 0-.482-.099-1.077-.296-1.787-.198-.71-.531-1.72-1-3.031l-.89-2.53h-8.073l-.666 2.048c-.692 2.141-1.037 3.72-1.037 4.738 0 1.07.382 1.793 1.148 2.168.469.241 1.543.469 3.222.683v1.124H73.913v-1.124c1.457-.482 2.364-.897 2.722-1.245.358-.348.685-.897.982-1.646l2.413-6.104 5.771-14.615-.37-1.205a6.583 6.583 0 001.907-1.205 9.163 9.163 0 001.611-1.887h.704l6.925 19.555c1.185 3.212 1.82 4.942 1.926 5.18.634 1.422 1.987 2.476 4.037 3.172 2.32-.429 3.678-.91 4.073-1.446.543-.75.815-2.864.815-6.344v-10.68c0-2.838-.234-4.605-.704-5.301-.567-.857-1.962-1.285-4.184-1.285v-1.124h11.517c3.333 0 5.679.254 7.037.763 2.444.91 3.666 2.784 3.666 5.621 0 1.5-.45 2.824-1.352 3.975-.901 1.151-2.055 2.021-3.462 2.61 1.086 2.33 2.123 4.256 3.111 5.782 1.333 2.061 2.714 3.723 4.147 4.98 1.431 1.252 2.975 1.788 4.629 2.24 1.693-.375 2.706-.787 3.038-1.237.543-.75.815-2.864.815-6.344v-9.476c0-3.48-.26-5.581-.779-6.304-.395-.562-1.765-1.058-4.11-1.486v-1.124h27.769v1.124c-2.42.616-3.63 1.365-3.63 2.249 0 .722.494 2.315 1.482 4.778l5.148 13.25 3.221-8.753c1.629-4.444 2.444-7.348 2.444-8.713 0-.776-.209-1.352-.629-1.727-.42-.375-1.655-.736-3.703-1.084v-1.124h11.591v1.124c-1.852.268-3.346 1.526-4.482 3.774-.418.857-1.221 2.771-2.406 5.742l-7.036 17.788-1.519-.321-8.815-21.723c-.864-2.115-1.528-3.415-2-3.895-.342-.35-1.24-.803-2.77-1.365-2.32.428-3.679.91-4.074 1.446-.542.75-.814 2.864-.814 6.344v9.476zm-28.257-5.42c1.901 0 3.481-.496 4.74-1.486 1.432-1.125 2.148-2.704 2.148-4.739 0-1.9-.728-3.292-2.185-4.175-1.185-.723-2.753-1.085-4.703-1.085v11.484zM73.911 64.767V52.534h4.612c.812 0 1.432.04 1.86.117.6.1 1.104.29 1.511.572.404.28.732.675.98 1.18.247.507.37 1.062.37 1.669 0 1.039-.33 1.922-.991 2.642-.664.718-1.86 1.08-3.588 1.08h-3.137v4.973h-1.617zm1.617-6.417h3.163c1.045 0 1.788-.194 2.227-.584.438-.39.657-.937.657-1.643 0-.513-.128-.951-.387-1.316a1.806 1.806 0 00-1.022-.72c-.273-.072-.775-.109-1.509-.109h-3.129v4.372zm7.166 6.417l4.698-12.233h1.742l5.005 12.233h-1.845l-1.426-3.706h-5.113l-1.341 3.706h-1.72zm3.528-5.024h4.148l-1.279-3.387c-.387-1.028-.677-1.874-.865-2.538a15.593 15.593 0 01-.66 2.339l-1.344 3.586zm17.933.734l1.62.41c-.339 1.328-.951 2.341-1.831 3.042-.882.698-1.959 1.045-3.234 1.045-1.318 0-2.389-.267-3.214-.803-.826-.538-1.455-1.316-1.885-2.332a8.358 8.358 0 01-.646-3.281c0-1.273.242-2.384.728-3.332.487-.949 1.18-1.67 2.079-2.162.897-.493 1.884-.738 2.964-.738 1.224 0 2.252.31 3.086.934.834.624 1.415 1.498 1.742 2.63l-1.591.375c-.285-.891-.695-1.538-1.236-1.945-.538-.407-1.216-.61-2.036-.61-.94 0-1.722.225-2.354.675a3.56 3.56 0 00-1.33 1.817 7.278 7.278 0 00-.384 2.347c0 1.043.15 1.948.453 2.726.304.775.774 1.355 1.415 1.74.64.385 1.332.575 2.078.575.905 0 1.671-.262 2.3-.783.629-.524 1.054-1.302 1.276-2.33zm3.544 4.29V52.534h1.62v6.067l6.073-6.067h2.192l-5.13 4.956 5.355 7.277h-2.135l-4.353-6.192-2.002 1.954v4.238h-1.62zm10.118 0l4.698-12.233h1.742l5.005 12.233h-1.844l-1.427-3.706h-5.113l-1.341 3.706h-1.72zm3.528-5.024h4.148l-1.278-3.387c-.388-1.028-.678-1.874-.866-2.538a15.603 15.603 0 01-.66 2.339l-1.344 3.586zm14.932.225v-1.433l5.179-.009v4.537a9.146 9.146 0 01-2.46 1.433 7.32 7.32 0 01-2.602.478c-1.201 0-2.294-.256-3.274-.771a5.1 5.1 0 01-2.223-2.23c-.501-.974-.752-2.062-.752-3.264 0-1.19.251-2.302.749-3.333.495-1.033 1.212-1.8 2.146-2.3.934-.5 2.01-.75 3.229-.75.883 0 1.683.143 2.397.43.715.285 1.275.684 1.68 1.197.407.512.715 1.179.928 2.002l-1.461.401c-.184-.623-.412-1.113-.683-1.47-.273-.355-.664-.64-1.17-.854a4.276 4.276 0 00-1.683-.322c-.74 0-1.38.114-1.919.34-.541.224-.973.52-1.306.888a4.245 4.245 0 00-.772 1.21 6.415 6.415 0 00-.467 2.46c0 1.092.188 2.003.564 2.738a3.607 3.607 0 001.64 1.635 5.064 5.064 0 002.283.535 5.4 5.4 0 002.053-.407c.669-.268 1.173-.555 1.517-.863v-2.278h-3.593zm7.841 4.799V52.534h1.618v12.233h-1.618zm4.452 0V52.534h1.66l6.423 9.604v-9.604h1.552v12.233h-1.66l-6.423-9.613v9.613h-1.552zm18.076-4.8v-1.432l5.179-.009v4.537a9.176 9.176 0 01-2.46 1.433 7.311 7.311 0 01-2.601.478c-1.202 0-2.295-.256-3.275-.771a5.097 5.097 0 01-2.224-2.23c-.5-.974-.751-2.062-.751-3.264 0-1.19.251-2.302.748-3.333.496-1.033 1.214-1.8 2.147-2.3.935-.5 2.011-.75 3.229-.75.883 0 1.682.143 2.396.43.715.285 1.276.684 1.68 1.197.408.512.715 1.179.928 2.002l-1.46.401c-.185-.623-.413-1.113-.682-1.47-.274-.355-.664-.64-1.171-.854a4.28 4.28 0 00-1.683-.322c-.74 0-1.381.114-1.918.34-.542.224-.974.52-1.307.888a4.245 4.245 0 00-.772 1.21 6.396 6.396 0 00-.467 2.46c0 1.092.188 2.003.564 2.738a3.607 3.607 0 001.64 1.635 5.07 5.07 0 002.283.535 5.4 5.4 0 002.053-.407c.668-.268 1.172-.555 1.518-.863v-2.278h-3.594zm12.587 4.8V52.534h1.617v12.233h-1.617zm4.452 0V52.534h1.66l6.423 9.604v-9.604h1.552v12.233h-1.66l-6.423-9.613v9.613h-1.552zm12.336 0V52.534h1.66l6.423 9.604v-9.604h1.552v12.233h-1.66l-6.423-9.613v9.613h-1.552zm11.861-5.959c0-2.03.544-3.62 1.635-4.767 1.089-1.148 2.496-1.723 4.221-1.723 1.128 0 2.147.27 3.052.809a5.304 5.304 0 012.074 2.258c.474.963.71 2.06.71 3.281 0 1.242-.246 2.353-.748 3.33-.501.98-1.21 1.72-2.126 2.224a6.075 6.075 0 01-2.97.754c-1.153 0-2.181-.276-3.086-.834a5.357 5.357 0 01-2.062-2.279 6.907 6.907 0 01-.7-3.053zm1.668.026c0 1.475.396 2.634 1.188 3.483.794.849 1.788 1.273 2.983 1.273 1.219 0 2.221-.427 3.007-1.284.785-.858 1.181-2.074 1.181-3.648 0-.995-.171-1.863-.507-2.607-.336-.743-.828-1.318-1.474-1.728a4.02 4.02 0 00-2.182-.613c-1.146 0-2.132.393-2.957 1.182-.825.786-1.239 2.102-1.239 3.942zm15.604 5.933l-4.737-12.233h1.755l3.177 8.886c.256.712.469 1.381.64 2.002.191-.666.411-1.333.66-2.002l3.303-8.886h1.652l-4.79 12.233h-1.66zm5.291 0l4.697-12.233h1.743l5.004 12.233h-1.844l-1.427-3.706h-5.113l-1.341 3.706h-1.719zm3.527-5.024h4.148l-1.278-3.387c-.388-1.028-.677-1.874-.865-2.538a15.607 15.607 0 01-.661 2.339l-1.344 3.586zm11.056 5.024V53.978h-4.03v-1.444h9.692v1.444h-4.046v10.789h-1.616zm7.597 0V52.534h1.617v12.233h-1.617zm3.977-5.959c0-2.03.544-3.62 1.635-4.767 1.091-1.148 2.497-1.723 4.223-1.723 1.126 0 2.146.27 3.052.809a5.306 5.306 0 012.072 2.258c.476.963.712 2.06.712 3.281 0 1.242-.248 2.353-.75 3.33-.501.98-1.209 1.72-2.126 2.224a6.07 6.07 0 01-2.97.754c-1.153 0-2.18-.276-3.085-.834a5.342 5.342 0 01-2.061-2.279 6.883 6.883 0 01-.702-3.053zm1.67.026c0 1.475.394 2.634 1.186 3.483.795.849 1.788 1.273 2.984 1.273 1.219 0 2.22-.427 3.007-1.284.785-.858 1.181-2.074 1.181-3.648 0-.995-.17-1.863-.506-2.607-.336-.743-.83-1.318-1.475-1.728a4.02 4.02 0 00-2.181-.613c-1.148 0-2.132.393-2.959 1.182-.825.786-1.237 2.102-1.237 3.942zm12.093 5.933V52.534h1.66l6.423 9.604v-9.604H280v12.233h-1.66l-6.423-9.613v9.613h-1.552zM59.587 73.066H57.84V0h1.747v73.066zM54.91 50.741L39.982 35.773l3.268-2.92-.021-6.67-5.593 5.556a6.807 6.807 0 012.133 4.957 6.8 6.8 0 01-1.602 4.394l16.741 15.893v16.083h1.747V4.727H54.91v46.014zM7 12.243v6.184l18.99 19.045-3.267 2.92.021 6.67 5.477-5.442a6.807 6.807 0 01-2.099-4.924 6.8 6.8 0 011.676-4.479l.031-.04L7.001 12.243zm59.125 60.823h-4.66V0h4.66v73.066z"/><path d="M0 72.887h8.4L34.279 47.25l3.967 4.411 9.061-.028-9.776-9.778a6.854 6.854 0 01-4.364 1.558 6.856 6.856 0 01-3.726-1.092L0 72.887zM66.392 0h-8.4L32.113 25.636l-3.967-4.412-9.061.029 9.89 9.893c.258-.173.527-.328.808-.464a6.86 6.86 0 013.382-.885c1.307 0 2.528.364 3.568.994L66.392 0z"/></g><defs><clipPath id="clip0_202_161"><path fill="#fff" d="M0 0h280v73.333H0z"/></clipPath></defs></svg>