<svg width="77" height="78" viewBox="0 0 77 78" fill="none" xmlns="http://www.w3.org/2000/svg">
<g clip-path="url(#clip0_183_118)">
<path d="M39.2852 31.9092V47.0129H60.4281C59.4997 51.8702 56.7136 55.9831 52.5351 58.7485L65.2851 68.5696C72.7137 61.7625 76.9994 51.7642 76.9994 39.8869C76.9994 37.1215 76.7495 34.4621 76.2851 31.9096L39.2852 31.9092Z" fill="#4285F4"/>
<path d="M17.2683 46.4233L14.3927 48.6086L4.21387 56.4794C10.6782 69.2075 23.9273 78.0004 39.2844 78.0004C49.8913 78.0004 58.7841 74.5259 65.2843 68.5696L52.5343 58.7485C49.0342 61.0885 44.5699 62.5069 39.2844 62.5069C29.0701 62.5069 20.3917 55.6642 17.2843 46.4458L17.2683 46.4233Z" fill="#34A853"/>
<path d="M4.214 21.521C1.53556 26.7681 0 32.6892 0 39C0 45.3108 1.53556 51.2319 4.214 56.479C4.214 56.5142 17.2857 46.4098 17.2857 46.4098C16.5 44.0698 16.0356 41.5881 16.0356 38.9996C16.0356 36.4111 16.5 33.9294 17.2857 31.5894L4.214 21.521Z" fill="#FBBC05"/>
<path d="M39.2852 15.5292C45.071 15.5292 50.2138 17.5146 54.321 21.3437L65.5709 10.1756C58.7494 3.86481 49.8925 0 39.2852 0C23.9281 0 10.6782 8.75731 4.21387 21.5211L17.2852 31.5902C20.3922 22.3719 29.0709 15.5292 39.2852 15.5292Z" fill="#EA4335"/>
</g>
<defs>
<clipPath id="clip0_183_118">
<rect width="77" height="78" fill="white"/>
</clipPath>
</defs>
</svg>
