<svg width="44" height="44" viewBox="0 0 44 44" fill="none" xmlns="http://www.w3.org/2000/svg">
    <path d="M32 2H12C6.47715 2 2 6.47715 2 12V32C2 37.5228 6.47715 42 12 42H32C37.5228 42 42 37.5228 42 32V12C42 6.47715 37.5228 2 32 2Z"
          stroke="#FDF551" stroke-width="3" stroke-linecap="round" stroke-linejoin="round"/>
    <path d="M29.9999 20.7396C30.2467 22.4041 29.9624 24.1041 29.1874 25.5977C28.4124 27.0913 27.1862 28.3025 25.6832 29.059C24.1801 29.8155 22.4768 30.0788 20.8155 29.8115C19.1542 29.5442 17.6194 28.7598 16.4296 27.5699C15.2397 26.3801 14.4554 24.8454 14.188 23.1841C13.9207 21.5227 14.184 19.8194 14.9406 18.3164C15.6971 16.8133 16.9083 15.5871 18.4019 14.8121C19.8955 14.0371 21.5954 13.7528 23.2599 13.9996C24.9577 14.2514 26.5296 15.0426 27.7433 16.2562C28.957 17.4699 29.7481 19.0418 29.9999 20.7396Z"
          stroke="#FDF551" stroke-width="3" stroke-linecap="round" stroke-linejoin="round"/>
</svg>
