<svg width="44" height="44" viewBox="0 0 44 44" fill="none" xmlns="http://www.w3.org/2000/svg">
<path d="M31.3333 42H12.6667C6.8 42 2 37.2 2 31.3333V12.6667C2 6.8 6.8 2 12.6667 2H31.3333C37.2 2 42 6.8 42 12.6667V31.3333C42 37.2 37.2 42 31.3333 42Z" stroke="#FDF551" stroke-width="3" stroke-miterlimit="10" stroke-linecap="round" stroke-linejoin="round"/>
<path d="M35.3334 22H28.6667V18.2667C28.6667 17.3333 29.3334 16.6667 30.2667 16.6667H34.0001V10H28.6667C24.9334 10 22.0001 12.9333 22.0001 16.6667V22H16.6667V28.6667H22.0001V42H28.6667V28.6667H32.6667L35.3334 22Z" stroke="#FDF551" stroke-width="3" stroke-miterlimit="10" stroke-linecap="round" stroke-linejoin="round"/>
</svg>
