<svg width="342" height="39" viewBox="0 0 342 39" fill="none" xmlns="http://www.w3.org/2000/svg">
<g clip-path="url(#clip0_131_286)">
<path d="M298.69 38.1732H289.798V16.8132L289.564 16.7401C289.41 17.0924 289.246 17.4403 289.103 17.799C286.53 24.3026 283.963 30.8083 281.402 37.3162C281.145 37.9734 280.857 38.2741 280.106 38.2397C278.612 38.171 277.118 38.1775 275.624 38.2397C274.904 38.2677 274.584 38.025 274.317 37.3484C271.786 30.8642 269.212 24.3992 266.648 17.93C266.514 17.5362 266.286 17.1815 265.985 16.8969V38.1603H256.975V0.790469H258.497C261.092 0.790469 263.69 0.820538 266.283 0.771138C267.015 0.758251 267.323 1.02243 267.596 1.67537C270.828 9.376 274.079 17.0673 277.35 24.7493C277.5 25.1037 277.668 25.4495 277.895 25.9435C279.299 22.6165 280.648 19.4335 281.991 16.2461C284.012 11.4436 286.046 6.64541 288.029 1.83001C288.343 1.07183 288.695 0.756104 289.57 0.756104C292.584 0.824834 295.6 0.781877 298.69 0.781877V38.1732Z" fill="white"/>
<path d="M226.546 22.9622V38.1537H217.494V0.865479H249.109V22.9106H241.425L252.373 38.1215C252.006 38.1623 251.748 38.2138 251.491 38.216C248.61 38.216 245.728 38.1966 242.847 38.2353C242.192 38.2353 241.833 38.0033 241.477 37.4814C238.354 32.913 235.193 28.3725 232.085 23.7977C231.658 23.1533 231.195 22.9042 230.433 22.9386C229.193 23.0094 227.949 22.9622 226.546 22.9622ZM241.005 9.07657H226.632V14.7446H241.011L241.005 9.07657Z" fill="white"/>
<path d="M192.043 0C197.23 0.0987994 201.964 1.3746 205.806 5.10321C208.794 8.00705 210.323 11.6369 210.88 15.7134C211.369 19.2938 211.285 22.8721 210.254 26.3451C208.163 33.3899 203.33 37.3784 196.225 38.6241C192.711 39.2595 189.1 39.0922 185.659 38.1344C178.59 36.1477 173.867 30.2885 173.179 22.8055C172.881 19.5365 172.927 16.2976 173.788 13.1188C175.749 5.87427 180.584 1.78913 187.809 0.446745C189.194 0.176121 190.63 0.139608 192.043 0ZM201.902 19.8995C201.774 18.57 201.717 17.5369 201.567 16.5124C200.852 11.639 197.409 8.39795 192.739 8.16814C187.676 7.91684 183.933 10.6789 182.707 15.606C182.125 18.0489 182.088 20.5915 182.601 23.0503C183.523 27.6875 186.996 30.6944 191.593 30.8813C196.361 31.0746 200.067 28.4242 201.273 23.8429C201.633 22.4747 201.727 21.0292 201.902 19.8995Z" fill="white"/>
<path d="M31.803 22.9731H9.09481V38.1302H0V0.839844H31.803V22.9731ZM9.09695 14.7276H23.6901V9.05738H9.09695V14.7276Z" fill="white"/>
<path d="M105.275 38.2119C102.141 38.2119 99.121 38.2312 96.0965 38.1775C95.8233 38.1775 95.4263 37.7479 95.3089 37.4215C94.1151 34.2112 92.9532 30.9895 91.8234 27.7563C91.5886 27.0797 91.2685 26.8285 90.5278 26.8392C87.5083 26.8879 84.4867 26.8879 81.4629 26.8392C80.7052 26.8392 80.3466 27.054 80.0926 27.7928C78.9869 30.9974 77.7959 34.1718 76.6775 37.3699C76.464 38.0035 76.1546 38.2419 75.463 38.229C72.5602 38.1861 69.6552 38.2097 66.6094 38.2097C67.7235 35.2865 68.7886 32.4944 69.8516 29.7022C73.3905 20.395 76.9237 11.0878 80.4512 1.78065C80.7329 1.02892 81.0616 0.741108 81.8834 0.758291C84.6581 0.816282 87.4329 0.792656 90.2077 0.758291C90.8053 0.758291 91.1553 0.880716 91.3965 1.51647C95.9386 13.5442 100.499 25.5612 105.078 37.5675C105.14 37.7222 105.179 37.894 105.275 38.2119ZM85.9729 10.853C84.8481 14.0146 83.8172 16.9098 82.7713 19.8738H89.1895C88.1244 16.9098 87.0999 14.0318 85.9729 10.853Z" fill="white"/>
<path d="M303.322 38.2117C304.658 34.7022 305.939 31.3387 307.217 27.9795C310.543 19.2451 313.86 10.5056 317.17 1.76116C317.46 0.990093 317.81 0.749538 318.619 0.764572C321.394 0.81612 324.169 0.794642 326.944 0.775311C327.488 0.775311 327.844 0.850485 328.073 1.45402C332.645 13.5333 337.231 25.6076 341.831 37.6769C341.878 37.8058 341.917 37.9389 342.006 38.2117C339.658 38.2117 337.396 38.2224 335.14 38.2117C334.19 38.2117 333.018 38.4651 332.352 38.0098C331.729 37.5802 331.637 36.3667 331.321 35.4947C330.397 32.9453 329.458 30.4001 328.572 27.8378C328.331 27.1376 328.03 26.824 327.225 26.839C324.169 26.8949 321.112 26.8841 318.047 26.839C317.351 26.839 317.057 27.0817 316.835 27.7132C315.712 30.9113 314.532 34.0879 313.42 37.2881C313.189 37.9518 312.918 38.2461 312.156 38.2332C309.275 38.1859 306.397 38.2117 303.322 38.2117ZM325.889 19.8672C324.822 16.8882 323.8 14.0058 322.675 10.8464C321.55 14.0187 320.525 16.9075 319.473 19.8672H325.889Z" fill="white"/>
<path d="M150.603 8.66009V14.3475H167.717V22.172H150.629V38.1302H141.541V0.88501H169.502V8.66009H150.603Z" fill="white"/>
<path d="M123.667 38.1795H114.563V8.98207C114.094 8.95844 113.71 8.92193 113.347 8.92193C109.757 8.92193 106.165 8.8983 102.574 8.93482C101.8 8.93482 101.507 8.74796 101.533 7.92105C101.586 5.60356 101.552 3.28177 101.552 0.876221H136.444V8.92193H123.667V38.1795Z" fill="white"/>
<path d="M37.3335 38.1582V0.88501H46.3749V30.0953H65.4867V38.1539L37.3335 38.1582Z" fill="white"/>
</g>
<defs>
<clipPath id="clip0_131_286">
<rect width="342" height="39" fill="white"/>
</clipPath>
</defs>
</svg>
