<svg width="351" height="68" viewBox="0 0 351 68" fill="none" xmlns="http://www.w3.org/2000/svg">
<path d="M105.09 21.4857L105.014 20.9905L104.938 21.4857C103.761 28.5714 98.2539 34.1333 91.1517 35.3143L90.658 35.3905L91.1517 35.4667C98.216 36.6476 103.761 42.1714 104.938 49.2952L105.014 49.7905L105.09 49.2952C106.268 42.2095 111.775 36.6476 118.877 35.4667L119.371 35.3905L118.877 35.3143C111.813 34.1333 106.268 28.5714 105.09 21.4857Z" fill="white"/>
<path d="M105.014 2.78101C87.0879 2.78101 72.5037 17.4096 72.5037 35.3905C72.5037 53.3715 87.0879 68.0001 105.014 68.0001C122.941 68.0001 137.525 53.3715 137.525 35.3905C137.525 17.4096 122.979 2.78101 105.014 2.78101ZM133.006 33.0667L123.169 31.7715C122.371 22.6667 118.611 14.3239 112.686 8.26672C123.739 11.4286 132.056 21.2191 133.006 33.0667ZM118.649 31.2001L113.256 30.4762C111.547 30.1715 110.218 28.8381 109.914 27.1239L107.635 9.63815C113.712 14.8572 117.662 22.5905 118.649 31.2001ZM102.432 9.67624L100.153 27.162C99.8492 28.8762 98.5199 30.2096 96.8108 30.5143L91.4177 31.2001C92.4051 22.5905 96.393 14.8572 102.432 9.67624ZM97.3805 8.26672C91.4556 14.3239 87.6956 22.6667 86.8981 31.7715L77.0233 33.0667C78.0108 21.2191 86.3283 11.4286 97.3805 8.26672ZM77.0613 37.6762L86.936 38.9715C87.7336 48.0762 91.4936 56.4191 97.4185 62.4762C86.3284 59.3524 78.0107 49.5239 77.0613 37.6762ZM91.4177 39.581L96.8108 40.2667C98.5199 40.5715 99.8492 41.9048 100.153 43.6191L102.432 61.1048C96.393 55.9239 92.4051 48.1524 91.4177 39.581ZM105.508 43.0096L105.014 46.7048L104.521 43.0096C104.521 42.9715 104.521 42.9715 104.521 42.9334C103.913 39.3143 101.103 36.4953 97.4944 35.8858C97.4565 35.8858 97.4565 35.8858 97.4185 35.8858L93.7344 35.3905L97.4185 34.8953C97.4565 34.8953 97.4565 34.8953 97.4944 34.8953C101.103 34.2858 103.913 31.4667 104.521 27.8477C104.521 27.8096 104.521 27.8096 104.521 27.7715L105.014 24.0762L105.508 27.7715C105.508 27.8096 105.508 27.8096 105.508 27.8477C106.116 31.4667 108.926 34.2858 112.534 34.8953C112.572 34.8953 112.572 34.8953 112.61 34.8953L116.295 35.3905L112.61 35.8858C112.572 35.8858 112.572 35.8858 112.534 35.8858C108.926 36.4953 106.116 39.3143 105.508 42.9334C105.508 42.9334 105.508 42.9715 105.508 43.0096ZM107.635 61.1048L109.914 43.6191C110.218 41.9048 111.547 40.5715 113.256 40.2667L118.649 39.5429C117.662 48.1905 113.712 55.9239 107.635 61.1048ZM112.686 62.4762C118.611 56.4191 122.371 48.0762 123.169 38.9715L133.006 37.6762C132.056 49.5239 123.739 59.3143 112.686 62.4762Z" fill="black"/>
<path d="M9.11518 57.1428L0 14.2857H18.0784L20.851 32.838C21.1548 34.819 21.5346 38.019 21.8005 41.5999H22.4081C22.674 38.019 23.0158 34.8571 23.3576 32.6857L25.9783 14.2476H43.0312L46.0696 32.6095C46.4494 35.0095 46.8292 38.1714 47.0571 41.5999H47.7407C47.9306 38.1714 48.2725 35.0476 48.5763 32.838L50.969 14.2857H68.5157L59.4385 57.1428H37.3342L35.7771 44.6476C35.2453 40.3047 34.8276 36.1904 34.4858 31.3523H33.8401C33.6122 36.1904 33.1944 40.3809 32.6627 44.6476L31.2195 57.1428H9.11518Z" fill="black"/>
<path d="M145.615 57.1427V14.2856H165.061C165.175 17.2189 164.757 19.4285 163.276 23.6189L163.883 24.1142C167.947 16.9904 173.112 13.4475 181.088 13.4475C190.051 13.4475 195.027 18.1332 195.027 27.8094V57.1427H175.239V35.1237C175.239 31.1999 173.91 29.3713 171.1 29.3713C167.415 29.3713 165.365 33.2951 165.365 40.3808V57.1427H145.615Z" fill="black"/>
<path d="M201.711 35.7714V35.619C201.711 20.381 207.104 13.0667 218.308 13.0667C225.183 13.0667 230.006 16.4952 233.197 23.619L233.804 23.2C232.475 18.4762 232.019 15.1238 232.019 10.5524V0H251.807V57.1429H232.057C232.057 55.3524 232.589 52.2286 233.842 47.7714L233.234 47.3905C230.082 54.5143 225.259 57.9429 218.346 57.9429C207.142 57.9429 201.711 50.7048 201.711 35.7714ZM232.057 36.0762V34.9333C232.057 29.1809 230.272 26.4 226.664 26.4C223.208 26.4 221.537 29.1809 221.537 34.9333V36.0762C221.537 41.7905 223.208 44.5333 226.664 44.5333C230.272 44.5333 232.057 41.7905 232.057 36.0762Z" fill="black"/>
<path d="M309.232 40.1524H279.19C279.57 44.2285 281.241 46.2095 284.355 46.2095C287.09 46.2095 288.609 44.8381 289.027 41.9809L309.194 43.1619C308.093 53.4476 300.041 58.4 284.393 58.4C267.075 58.4 258.719 51.3905 258.719 36.7238V34.8571C258.719 20.1905 267.075 13.1047 284.393 13.1047C301.408 13.1047 309.612 20.0762 309.612 34.4762C309.574 36.4952 309.46 38.3619 309.232 40.1524ZM289.331 30.5143V30.3619C289.331 26.8571 287.736 25.1809 284.355 25.1809C281.507 25.1809 279.836 26.9333 279.304 30.5143H289.331Z" fill="black"/>
<path d="M316.031 57.143V14.2858H335.476C335.59 17.0668 335.059 19.6953 333.691 23.543L334.299 24.0763C339.844 15.8858 342.769 13.562 349.187 12.6096L350.327 31.6572L343.49 32.1525C337.3 32.6096 335.818 35.3525 335.818 45.3715V57.143H316.031Z" fill="black"/>
</svg>
