<svg width="259" height="77" viewBox="0 0 259 77" fill="none" xmlns="http://www.w3.org/2000/svg">
<g clip-path="url(#clip0_131_316)">
<path d="M238.692 21.8178C238.792 21.9962 238.853 22.1935 238.871 22.397C238.888 22.6004 238.863 22.8053 238.795 22.9982C238.728 23.191 238.621 23.3676 238.48 23.5162C238.34 23.6648 238.169 23.7821 237.98 23.8605C237.611 24.0361 237.188 24.06 236.802 23.9272C236.416 23.7944 236.097 23.5154 235.916 23.1506C233.248 17.6278 229.189 12.8889 224.135 9.39696C219.08 5.90498 213.203 3.77929 207.078 3.22753C200.953 2.67577 194.789 3.71681 189.188 6.24895C183.587 8.7811 178.741 12.7178 175.123 17.6744C174.87 17.9425 174.528 18.1108 174.16 18.1486C173.793 18.1865 173.424 18.0913 173.12 17.8805C172.817 17.6697 172.6 17.3574 172.509 17.0004C172.418 16.6434 172.458 16.2656 172.623 15.9359C178.375 8.03916 186.922 2.61427 196.534 0.75852C206.147 -1.09723 216.108 0.754682 224.403 5.93967C230.575 9.80703 235.527 15.3304 238.692 21.8757M172.623 61.1218C172.468 60.9617 172.349 60.7697 172.275 60.5593C172.202 60.3488 172.175 60.1249 172.197 59.9031C172.219 59.6813 172.289 59.4669 172.402 59.2748C172.515 59.0827 172.669 58.9175 172.853 58.7907C173.037 58.6639 173.247 58.5785 173.467 58.5404C173.687 58.5024 173.913 58.5126 174.129 58.5704C174.345 58.6281 174.546 58.7321 174.718 58.875C174.89 59.0179 175.028 59.1963 175.123 59.3978C178.432 63.8999 182.761 67.5589 187.758 70.0766C192.755 72.5943 198.278 73.8993 203.877 73.8851C210.562 73.8779 217.109 71.9912 222.766 68.4418C228.423 64.8925 232.961 59.8245 235.858 53.8202C235.946 53.6382 236.07 53.4754 236.221 53.3412C236.373 53.207 236.55 53.1039 236.742 53.038C236.934 52.972 237.137 52.9444 237.339 52.9569C237.542 52.9693 237.74 53.0214 237.922 53.1103C238.111 53.1887 238.282 53.306 238.422 53.4546C238.563 53.6032 238.67 53.7797 238.737 53.9726C238.805 54.1655 238.83 54.3704 238.812 54.5738C238.795 54.7772 238.734 54.9746 238.634 55.153C235.735 61.1555 231.323 66.3057 225.829 70.1005C220.335 73.8953 213.948 76.2048 207.29 76.8033C200.633 77.4018 193.934 76.2689 187.847 73.5152C181.761 70.7615 176.495 66.4813 172.565 61.0928L172.623 61.1218Z" fill="#2B2A29"/>
<path d="M228.226 25.8018C231.172 22.8767 235.045 21.0598 239.185 20.6607C243.324 20.2616 247.475 21.3048 250.929 23.6128C254.384 25.9208 256.929 29.3508 258.131 33.3188C259.333 37.2867 259.118 41.5472 257.522 45.3747C255.926 49.2023 253.048 52.3602 249.379 54.3107C245.709 56.2612 241.474 56.8837 237.396 56.0722C233.317 55.2607 229.647 53.0653 227.01 49.86C224.374 46.6547 222.933 42.6375 222.935 38.4927C222.931 36.1338 223.397 33.7977 224.305 31.6194C225.214 29.4411 226.546 27.4638 228.226 25.8018ZM226.06 37.4786H239.942V34.0451H226.772C226.401 35.1579 226.162 36.3103 226.06 37.4786ZM228.967 47.3445V39.5213H226.06C226.256 42.3507 227.259 45.0652 228.953 47.3445H228.967ZM234.462 51.8935V39.5213H231.017V49.59C232.045 50.5169 233.2 51.2926 234.448 51.8935H234.462ZM239.957 53.3422V39.5213H236.512V52.7048C237.626 53.0541 238.777 53.2728 239.942 53.3567L239.957 53.3422ZM249.857 50.4447H242.007V53.3422C244.839 53.1488 247.557 52.1536 249.842 50.4737L249.857 50.4447ZM254.392 44.9975H241.978V48.4165H252.081C253.011 47.3925 253.789 46.2412 254.392 44.9975ZM255.846 39.5213H241.963V42.9548H255.191C255.543 41.8396 255.763 40.6873 255.846 39.5213ZM252.938 29.6555V37.4786H255.846C255.646 34.6478 254.637 31.9331 252.938 29.6555ZM247.443 25.1065V37.4786H250.874V27.4099C249.86 26.4865 248.72 25.7109 247.487 25.1065H247.443ZM241.949 23.6577V37.4931H245.394V24.3097C244.289 23.9576 243.148 23.734 241.992 23.6432L241.949 23.6577ZM232.049 26.5552H239.899V23.6577C237.076 23.8566 234.369 24.8515 232.093 26.5262L232.049 26.5552ZM239.899 28.5979H229.723C228.802 29.631 228.029 30.7865 227.426 32.0314H239.841L239.899 28.5979Z" fill="white"/>
<path d="M16.848 39.3766C17.5025 40.1993 17.8471 41.2245 17.822 42.2741C17.862 43.0717 17.6959 43.8662 17.3396 44.5816C16.9832 45.2969 16.4486 45.9091 15.7868 46.3595C14.0432 47.4243 12.0135 47.93 9.97216 47.8082H0V28.3952H9.41977C11.3351 28.2874 13.2402 28.7407 14.9001 29.6991C15.5303 30.0868 16.0455 30.6346 16.393 31.2864C16.7404 31.9382 16.9075 32.6704 16.8771 33.4078C16.8925 34.3057 16.6284 35.1864 16.1212 35.9286C15.5899 36.688 14.8613 37.289 14.0134 37.6671C15.1111 37.9353 16.1003 38.5319 16.848 39.3766ZM4.65174 36.4791H9.01274C9.82715 36.5331 10.6374 36.3249 11.3241 35.8852C11.5722 35.665 11.7709 35.395 11.9069 35.0928C12.0429 34.7907 12.1132 34.4633 12.1132 34.1322C12.1132 33.8011 12.0429 33.4737 11.9069 33.1716C11.7709 32.8694 11.5722 32.5994 11.3241 32.3792C10.6467 31.9297 9.83924 31.7158 9.02728 31.7708H4.66627L4.65174 36.4791ZM13.083 42.0133C13.083 40.4052 11.9928 39.6084 9.79772 39.6084H4.65174V44.5051H9.79772C11.9928 44.4472 13.083 43.6214 13.083 42.0133Z" fill="#2B2A29"/>
<path d="M28.7682 40.1587L26.0643 42.8678V47.808H21.4126V28.395H26.0643V37.4496L35.0189 28.395H40.2085L31.8354 37.0874L40.7028 47.808H35.237L28.7682 40.1587Z" fill="#2B2A29"/>
<path d="M59.9783 28.395L51.358 43.7226C50.671 45.0574 49.6743 46.2097 48.4507 47.0836C47.3204 47.8257 45.9956 48.2188 44.6421 48.2136C43.5145 48.201 42.3996 47.9749 41.3568 47.5472L42.4761 44.1427C43.1287 44.3595 43.8092 44.4814 44.4967 44.5049C45.0474 44.5154 45.5905 44.3751 46.0667 44.0993C46.5844 43.7874 47.0184 43.3548 47.3314 42.8389L47.5058 42.6215L39.467 28.395H44.4531L49.8317 38.7969L55.3847 28.395H59.9783Z" fill="#2B2A29"/>
<path d="M75.5907 29.2499C76.8169 29.7536 77.8717 30.5986 78.6288 31.6838C79.3318 32.802 79.7046 34.0948 79.7046 35.4143C79.7046 36.7338 79.3318 38.0266 78.6288 39.1448C77.8754 40.2334 76.8195 41.0793 75.5907 41.5786C74.1096 42.1761 72.5219 42.467 70.9244 42.4334H66.8687V47.8082H62.2024V28.3952H70.9244C72.5219 28.3616 74.1096 28.6524 75.5907 29.2499ZM73.8608 37.9423C74.2337 37.6505 74.5293 37.2722 74.7219 36.8404C74.9144 36.4086 74.9981 35.9364 74.9656 35.465C74.9943 34.9898 74.909 34.5147 74.7169 34.0789C74.5248 33.6431 74.2313 33.2591 73.8608 32.9587C72.9245 32.3161 71.7968 32.0096 70.6627 32.0894H66.8687V38.8116H70.6773C71.8213 38.8821 72.9551 38.56 73.8899 37.8989L73.8608 37.9423Z" fill="#2B2A29"/>
<path d="M87.0892 46.8084C85.4734 46.0022 84.1108 44.7694 83.1497 43.2445C82.2211 41.6807 81.7312 39.8969 81.7312 38.0798C81.7312 36.2626 82.2211 34.4789 83.1497 32.915C84.1108 31.3901 85.4734 30.1574 87.0892 29.3512C88.8251 28.4691 90.7521 28.0263 92.7003 28.0618C94.3108 28.0514 95.9071 28.3617 97.3957 28.9745C98.7715 29.5338 99.9963 30.4071 100.972 31.5243L97.9626 34.1754C97.3422 33.4507 96.571 32.8692 95.7024 32.4714C94.8338 32.0736 93.8888 31.8691 92.9329 31.8719C91.7704 31.8504 90.6209 32.1194 89.5895 32.6543C88.6264 33.1516 87.8286 33.9165 87.2927 34.8563C86.7493 35.8392 86.4643 36.9431 86.4643 38.0653C86.4643 39.1874 86.7493 40.2913 87.2927 41.2742C87.8308 42.2087 88.6284 42.9683 89.5895 43.4618C90.6198 44.0011 91.7692 44.275 92.9329 44.2586C93.8946 44.2811 94.8494 44.0914 95.729 43.7032C96.6085 43.315 97.3911 42.7379 98.0207 42.0131L101.03 44.6642C100.039 45.7896 98.793 46.6636 97.3957 47.214C95.8815 47.8229 94.2602 48.1234 92.6276 48.0977C90.7036 48.1248 88.8021 47.6822 87.0892 46.8084Z" fill="#2B2A29"/>
<path d="M104.083 28.395H108.734V47.808H104.083V28.395Z" fill="#2B2A29"/>
<path d="M136.296 39.5502C136.875 40.3563 137.181 41.3259 137.168 42.3173C137.173 42.905 137.061 43.4878 136.839 44.0323C136.617 44.5768 136.289 45.0722 135.874 45.49C134.908 46.4521 133.713 47.1548 132.4 47.5327C130.835 48.025 129.201 48.2647 127.559 48.2426C124.775 48.2541 122.02 47.6764 119.477 46.5476L121.381 42.0131C122.321 42.3847 123.295 42.666 124.289 42.8533C125.203 43.0362 126.133 43.1332 127.065 43.1431C127.944 43.176 128.82 43.028 129.638 42.7085C129.915 42.6155 130.158 42.4413 130.335 42.2087C130.511 41.9761 130.613 41.6958 130.627 41.4046C130.627 40.6223 129.987 40.2456 128.708 40.2456H123.387V35.5662H128.083C128.525 35.5945 128.966 35.4884 129.347 35.262C129.488 35.166 129.602 35.0359 129.679 34.8838C129.755 34.7316 129.791 34.5627 129.784 34.3928C129.78 34.1537 129.704 33.9213 129.567 33.7251C129.43 33.529 129.237 33.3781 129.013 33.2917C128.381 33.0025 127.688 32.8684 126.993 32.9006C126.144 32.9128 125.3 33.0246 124.478 33.2338C123.582 33.4472 122.713 33.7632 121.89 34.1755L119.971 29.3367C122.173 28.3501 124.564 27.8556 126.978 27.888C128.565 27.8746 130.145 28.1093 131.659 28.5834C132.951 28.964 134.129 29.6556 135.089 30.5971C135.802 31.2944 136.253 32.2144 136.367 33.2032C136.481 34.192 136.25 35.1898 135.715 36.0298C135.249 36.7287 134.607 37.2933 133.854 37.6669C134.832 38.0484 135.68 38.7021 136.296 39.5502Z" fill="white"/>
<path d="M155.659 42.8389V47.808H139.552V28.395H155.368V33.3207H145.948V35.5952H154.162V40.2891H145.948V42.8389H155.659Z" fill="white"/>
<path d="M175.69 47.808V38.9852L171.475 46.0695H168.567L164.264 39.246V47.808H158.29V28.395H163.683L170.079 38.71L176.243 28.395H181.636L181.708 47.808H175.69Z" fill="white"/>
<path d="M204.051 28.395V47.808H197.612V33.4511H193.163V35.6966C193.143 37.9815 192.919 40.2601 192.495 42.5056C192.245 44.0378 191.576 45.4716 190.561 46.649C190.037 47.1556 189.411 47.5464 188.725 47.796C188.038 48.0456 187.307 48.1484 186.578 48.0977C185.625 48.1197 184.673 48.0224 183.744 47.808L184.078 42.5781C184.316 42.6355 184.56 42.6646 184.805 42.665C185.116 42.677 185.425 42.6069 185.701 42.462C185.977 42.317 186.209 42.1022 186.375 41.8392C186.777 41.1612 187.03 40.4056 187.116 39.6227C187.232 38.6955 187.334 37.493 187.392 35.9864L187.639 28.4385L204.051 28.395Z" fill="white"/>
<path d="M207.497 28.395H213.936V47.808H207.497V28.395Z" fill="white"/>
</g>
<defs>
<clipPath id="clip0_131_316">
<rect width="259" height="77" fill="white"/>
</clipPath>
</defs>
</svg>
