<svg width="119" height="119" viewBox="0 0 119 119" fill="none" xmlns="http://www.w3.org/2000/svg">
<path d="M118.799 18.3431C118.699 18.0324 118.513 17.7561 118.263 17.5454C118.014 17.3348 117.71 17.1982 117.387 17.1511L108.221 15.8191L104.121 7.51912C103.976 7.22649 103.753 6.98016 103.475 6.80793C103.198 6.6357 102.878 6.54443 102.552 6.54443C102.225 6.54443 101.905 6.6357 101.628 6.80793C101.351 6.98016 101.127 7.22649 100.982 7.51912L96.8821 15.8241L87.7161 17.1561C87.393 17.2034 87.0896 17.3401 86.8401 17.5507C86.5907 17.7614 86.405 18.0376 86.3042 18.3482C86.2035 18.6587 86.1915 18.9913 86.2698 19.3083C86.348 19.6253 86.5134 19.9141 86.7471 20.1421L93.3791 26.6061L91.8141 35.7351C91.7591 36.0569 91.7952 36.3876 91.9183 36.6899C92.0414 36.9922 92.2466 37.2541 92.5107 37.4459C92.7748 37.6377 93.0873 37.7519 93.4129 37.7754C93.7385 37.7989 94.0642 37.731 94.3531 37.5791L102.553 33.2691L110.753 37.5791C111.042 37.731 111.368 37.7989 111.693 37.7754C112.019 37.7519 112.331 37.6377 112.596 37.4459C112.86 37.2541 113.065 36.9922 113.188 36.6899C113.311 36.3876 113.347 36.0569 113.292 35.7351L111.726 26.6061L118.359 20.1411C118.593 19.9126 118.759 19.623 118.837 19.3051C118.914 18.9873 118.901 18.654 118.799 18.3431ZM108.623 24.7431C108.42 24.9414 108.269 25.1861 108.182 25.4559C108.095 25.7258 108.075 26.0127 108.123 26.2921L109.244 32.8321L103.368 29.7431C103.117 29.6111 102.837 29.5421 102.554 29.5421C102.27 29.5421 101.99 29.6111 101.739 29.7431L95.8651 32.8311L96.9871 26.2911C97.0356 26.0117 97.0154 25.7248 96.9283 25.4549C96.8412 25.1851 96.6898 24.9404 96.4871 24.7421L91.7341 20.1101L98.3011 19.1561C98.5819 19.1152 98.8485 19.0068 99.0781 18.8401C99.3077 18.6734 99.4933 18.4534 99.6191 18.1991L102.556 12.2481L105.493 18.1991C105.619 18.4533 105.804 18.6732 106.034 18.8399C106.263 19.0066 106.53 19.1151 106.81 19.1561L113.378 20.1101L108.623 24.7431Z" fill="black"/>
<path d="M31.1653 17.1521L22.0003 15.8201L17.9003 7.52009C17.7556 7.22747 17.5319 6.98114 17.2546 6.80891C16.9773 6.63668 16.6573 6.54541 16.3308 6.54541C16.0044 6.54541 15.6844 6.63668 15.4071 6.80891C15.1298 6.98114 14.9061 7.22747 14.7613 7.52009L10.6613 15.8251L1.49735 17.1521C1.1744 17.1994 0.871087 17.336 0.621653 17.5465C0.37222 17.757 0.186592 18.0331 0.0857189 18.3435C-0.0151538 18.6539 -0.0272551 18.9863 0.0507806 19.3033C0.128816 19.6202 0.293882 19.909 0.527349 20.1371L7.16035 26.6021L5.59435 35.7311C5.53935 36.0528 5.57544 36.3836 5.69854 36.6859C5.82164 36.9882 6.02684 37.2501 6.29096 37.4419C6.55508 37.6337 6.86758 37.7478 7.19315 37.7714C7.51872 37.7949 7.84439 37.7269 8.13335 37.5751L16.3333 33.2651L24.5333 37.5751C24.8223 37.7269 25.148 37.7949 25.4735 37.7714C25.7991 37.7478 26.1116 37.6337 26.3757 37.4419C26.6399 37.2501 26.8451 36.9882 26.9682 36.6859C27.0913 36.3836 27.1273 36.0528 27.0723 35.7311L25.5023 26.6021L32.1343 20.1371C32.3682 19.9092 32.5336 19.6205 32.6119 19.3035C32.6902 18.9866 32.6783 18.654 32.5775 18.3435C32.4767 18.0329 32.291 17.7568 32.0414 17.5462C31.7919 17.3357 31.4884 17.1992 31.1653 17.1521ZM22.4003 24.7431C22.1977 24.9414 22.0463 25.186 21.9592 25.4559C21.8721 25.7257 21.8519 26.0127 21.9003 26.2921L23.0223 32.8321L17.1423 29.7431C16.8911 29.6111 16.6116 29.5421 16.3278 29.5421C16.0441 29.5421 15.7646 29.6111 15.5133 29.7431L9.64235 32.8271L10.7633 26.2871C10.8118 26.0077 10.7916 25.7207 10.7045 25.4509C10.6174 25.181 10.466 24.9364 10.2633 24.7381L5.51135 20.1061L12.0793 19.1521C12.3599 19.1111 12.6264 19.0025 12.8558 18.8359C13.0852 18.6692 13.2707 18.4493 13.3963 18.1951L16.3313 12.2431L19.2683 18.1941C19.3941 18.4484 19.5798 18.6684 19.8094 18.8351C20.039 19.0018 20.3056 19.1102 20.5863 19.1511L27.1523 20.1051L22.4003 24.7431Z" fill="black"/>
<path d="M91.4422 55.6612C89.6151 55.6596 87.8585 56.3669 86.5422 57.6342C85.9528 56.8059 85.1918 56.1143 84.311 55.6066C83.4302 55.0989 82.4504 54.787 81.4382 54.6921C80.426 54.5972 79.4053 54.7216 78.4455 55.0567C77.4857 55.3918 76.6094 55.9299 75.8762 56.6342C74.85 55.1924 73.321 54.1874 71.5905 53.8172C69.8599 53.447 68.0535 53.7385 66.5272 54.6342V35.8722L69.7662 37.5722C70.0552 37.724 70.3809 37.792 70.7064 37.7685C71.032 37.7449 71.3445 37.6308 71.6086 37.439C71.8727 37.2472 72.0779 36.9853 72.201 36.683C72.3241 36.3807 72.3602 36.0499 72.3052 35.7282L70.3322 24.2362L78.6842 16.0962C78.918 15.8681 79.0833 15.5792 79.1615 15.2622C79.2397 14.9451 79.2277 14.6125 79.1268 14.3019C79.0259 13.9913 78.8402 13.7151 78.5906 13.5045C78.3409 13.2939 78.0374 13.1573 77.7142 13.1102L66.1722 11.4342L61.0112 0.976187C60.8669 0.683211 60.6435 0.436492 60.3662 0.263966C60.0889 0.0914401 59.7688 0 59.4422 0C59.1157 0 58.7956 0.0914401 58.5183 0.263966C58.241 0.436492 58.0175 0.683211 57.8732 0.976187L52.7112 11.4342L41.1692 13.1102C40.8462 13.1575 40.5428 13.2942 40.2933 13.5048C40.0438 13.7155 39.8582 13.9917 39.7574 14.3022C39.6566 14.6128 39.6447 14.9454 39.7229 15.2624C39.8012 15.5794 39.9665 15.8682 40.2002 16.0962L48.5512 24.2362L46.5802 35.7312C46.5252 36.0529 46.5613 36.3837 46.6844 36.686C46.8075 36.9883 47.0127 37.2502 47.2769 37.442C47.541 37.6338 47.8535 37.7479 48.179 37.7715C48.5046 37.795 48.8303 37.727 49.1192 37.5752L52.3592 35.8752V64.6252L45.6352 67.7012C44.4604 68.2409 43.4647 69.106 42.7661 70.194C42.0675 71.2819 41.6952 72.5472 41.6932 73.8402V88.1482C41.6911 90.4684 42.3781 92.737 43.6672 94.6662L52.3592 107.702V117.136C52.3592 117.6 52.5436 118.045 52.8718 118.374C53.2 118.702 53.6451 118.886 54.1092 118.886C54.5734 118.886 55.0185 118.702 55.3467 118.374C55.6749 118.045 55.8592 117.6 55.8592 117.136V108.922H95.0242V117.136C95.0242 117.6 95.2086 118.045 95.5368 118.374C95.865 118.702 96.3101 118.886 96.7742 118.886C97.2384 118.886 97.6835 118.702 98.0117 118.374C98.3399 118.045 98.5242 117.6 98.5242 117.136V62.7432C98.5219 60.8657 97.775 59.0657 96.4473 57.7381C95.1197 56.4105 93.3198 55.6636 91.4422 55.6612ZM50.6282 32.8282L52.1572 23.9212C52.2055 23.6418 52.1851 23.3549 52.098 23.0851C52.011 22.8153 51.8597 22.5707 51.6572 22.3722L45.1822 16.0652L54.1262 14.7652C54.4066 14.724 54.6729 14.6154 54.9021 14.4487C55.1313 14.282 55.3167 14.0622 55.4422 13.8082L59.4422 5.70819L63.4422 13.8082C63.5679 14.0624 63.7534 14.2823 63.9828 14.4489C64.2122 14.6156 64.4787 14.7242 64.7592 14.7652L73.7032 16.0652L67.2312 22.3722C67.0286 22.5705 66.8772 22.8151 66.7901 23.085C66.703 23.3548 66.6828 23.6418 66.7312 23.9212L68.2582 32.8272L66.5292 31.9182V31.5292C66.5292 29.6507 65.783 27.8491 64.4547 26.5207C63.1264 25.1924 61.3248 24.4462 59.4462 24.4462C57.5677 24.4462 55.7661 25.1924 54.4378 26.5207C53.1095 27.8491 52.3632 29.6507 52.3632 31.5292V31.9182L50.6282 32.8282ZM55.0422 105.422L46.5762 92.7222C45.6709 91.3679 45.1885 89.7752 45.1902 88.1462V73.8372C45.1913 73.2144 45.3708 72.605 45.7076 72.0811C46.0443 71.5572 46.5241 71.1408 47.0902 70.8812L52.3582 68.4712V81.2922C52.3582 81.7563 52.5426 82.2014 52.8708 82.5296C53.199 82.8578 53.6441 83.0422 54.1082 83.0422C54.5724 83.0422 55.0175 82.8578 55.3457 82.5296C55.6739 82.2014 55.8582 81.7563 55.8582 81.2922V31.5292C55.8582 30.5789 56.2357 29.6676 56.9077 28.9956C57.5796 28.3237 58.491 27.9462 59.4412 27.9462C60.3915 27.9462 61.3029 28.3237 61.9748 28.9956C62.6467 29.6676 63.0242 30.5789 63.0242 31.5292V60.7432C63.0242 61.2073 63.2086 61.6524 63.5368 61.9806C63.865 62.3088 64.3101 62.4932 64.7742 62.4932C65.2384 62.4932 65.6835 62.3088 66.0117 61.9806C66.3399 61.6524 66.5242 61.2073 66.5242 60.7432C66.5242 59.7929 66.9017 58.8816 67.5737 58.2096C68.2456 57.5377 69.157 57.1602 70.1072 57.1602C71.0575 57.1602 71.9689 57.5377 72.6408 58.2096C73.3128 58.8816 73.6902 59.7929 73.6902 60.7432V61.7432C73.6902 62.2073 73.8746 62.6524 74.2028 62.9806C74.531 63.3088 74.9761 63.4932 75.4402 63.4932C75.9044 63.4932 76.3495 63.3088 76.6777 62.9806C77.0059 62.6524 77.1902 62.2073 77.1902 61.7432C77.1902 60.7929 77.5677 59.8816 78.2397 59.2096C78.9116 58.5377 79.823 58.1602 80.7732 58.1602C81.7235 58.1602 82.6349 58.5377 83.3068 59.2096C83.9788 59.8816 84.3562 60.7929 84.3562 61.7432V62.7432C84.3562 63.2073 84.5406 63.6524 84.8688 63.9806C85.197 64.3088 85.6421 64.4932 86.1062 64.4932C86.5704 64.4932 87.0155 64.3088 87.3437 63.9806C87.6719 63.6524 87.8562 63.2073 87.8562 62.7432C87.872 61.8032 88.2564 60.9069 88.9267 60.2477C89.5971 59.5885 90.4996 59.2191 91.4397 59.2191C92.3799 59.2191 93.2824 59.5885 93.9528 60.2477C94.6231 60.9069 95.0075 61.8032 95.0232 62.7432V105.421L55.0422 105.422Z" fill="black"/>
</svg>
