<svg width="116" height="119" viewBox="0 0 116 119" fill="none" xmlns="http://www.w3.org/2000/svg">
<path d="M113.978 53.452H109.829C109.479 52.3404 109.031 51.2622 108.49 50.23L111.427 47.294C111.59 47.1316 111.719 46.9387 111.807 46.7263C111.895 46.514 111.94 46.2864 111.94 46.0565C111.94 45.8266 111.895 45.599 111.807 45.3867C111.719 45.1743 111.59 44.9814 111.427 44.819L105.427 38.819C105.265 38.6564 105.072 38.5274 104.86 38.4394C104.647 38.3514 104.42 38.306 104.19 38.306C103.96 38.306 103.733 38.3514 103.52 38.4394C103.308 38.5274 103.115 38.6564 102.953 38.819L100.016 41.756C98.984 41.2147 97.9057 40.7666 96.794 40.417V36.27C96.794 35.8059 96.6096 35.3608 96.2814 35.0326C95.9532 34.7044 95.5081 34.52 95.044 34.52H92.555V1.75C92.555 1.28587 92.3706 0.840752 92.0424 0.512563C91.7142 0.184374 91.2691 2.86067e-07 90.805 2.86067e-07H1.75C1.52015 -0.00013117 1.29253 0.0450443 1.08015 0.132943C0.867769 0.220843 0.674799 0.349742 0.51227 0.51227C0.349742 0.674799 0.220843 0.867769 0.132943 1.08015C0.0450443 1.29253 -0.00013117 1.52015 2.86067e-07 1.75V117.136C-0.00013117 117.366 0.0450443 117.593 0.132943 117.806C0.220843 118.018 0.349742 118.211 0.51227 118.374C0.674799 118.536 0.867769 118.665 1.08015 118.753C1.29253 118.841 1.52015 118.886 1.75 118.886H90.805C91.2691 118.886 91.7142 118.702 92.0424 118.373C92.3706 118.045 92.555 117.6 92.555 117.136V84.366H95.046C95.5101 84.366 95.9552 84.1816 96.2834 83.8534C96.6116 83.5253 96.796 83.0801 96.796 82.616V78.459C97.9055 78.1094 98.982 77.6626 100.013 77.124L102.955 80.065C103.289 80.3812 103.732 80.5574 104.192 80.5574C104.652 80.5574 105.095 80.3812 105.429 80.065L111.429 74.065C111.592 73.9026 111.721 73.7097 111.809 73.4973C111.897 73.285 111.942 73.0574 111.942 72.8275C111.942 72.5976 111.897 72.37 111.809 72.1577C111.721 71.9453 111.592 71.7524 111.429 71.59L108.488 68.65C109.026 67.6186 109.473 66.5418 109.822 65.432H113.98C114.21 65.4321 114.437 65.387 114.65 65.2991C114.862 65.2112 115.055 65.0823 115.218 64.9197C115.38 64.7572 115.509 64.5642 115.597 64.3519C115.685 64.1395 115.73 63.9118 115.73 63.682V55.202C115.73 54.972 115.685 54.7442 115.597 54.5317C115.509 54.3192 115.38 54.1261 115.217 53.9636C115.054 53.801 114.861 53.6722 114.648 53.5844C114.436 53.4966 114.208 53.4516 113.978 53.452ZM89.055 115.386H3.5V3.5H89.055V34.52H86.564C86.0999 34.52 85.6547 34.7044 85.3266 35.0326C84.9984 35.3608 84.814 35.8059 84.814 36.27V40.427C83.7041 40.7764 82.6273 41.2231 81.596 41.762L78.655 38.821C78.3207 38.5045 77.8778 38.3281 77.4175 38.3281C76.9571 38.3281 76.5143 38.5045 76.18 38.821L70.18 44.821C70.0427 44.9618 69.9301 45.1248 69.847 45.303H39.764C39.2999 45.303 38.8548 45.4874 38.5266 45.8156C38.1984 46.1438 38.014 46.5889 38.014 47.053C38.014 47.5171 38.1984 47.9622 38.5266 48.2904C38.8548 48.6186 39.2999 48.803 39.764 48.803H71.691L73.124 50.236C72.5857 51.2674 72.1393 52.3442 71.79 53.454H67.632C67.1679 53.454 66.7228 53.6384 66.3946 53.9666C66.0664 54.2948 65.882 54.7399 65.882 55.204V63.686C65.882 64.1501 66.0664 64.5953 66.3946 64.9234C66.7228 65.2516 67.1679 65.436 67.632 65.436H71.781C72.1309 66.5476 72.579 67.6258 73.12 68.658L71.691 70.087H39.764C39.2999 70.087 38.8548 70.2714 38.5266 70.5996C38.1984 70.9278 38.014 71.3729 38.014 71.837C38.014 72.3011 38.1984 72.7463 38.5266 73.0744C38.8548 73.4026 39.2999 73.587 39.764 73.587H69.854C69.9371 73.7652 70.0497 73.9282 70.187 74.069L76.187 80.069C76.3494 80.2316 76.5423 80.3607 76.7547 80.4487C76.967 80.5367 77.1946 80.582 77.4245 80.582C77.6544 80.582 77.882 80.5367 78.0943 80.4487C78.3067 80.3607 78.4996 80.2316 78.662 80.069L81.6 77.132C82.6317 77.6733 83.7096 78.1214 84.821 78.471V82.62C84.821 83.0841 85.0054 83.5292 85.3336 83.8574C85.6618 84.1856 86.1069 84.37 86.571 84.37H89.062L89.055 115.386ZM112.228 61.934H108.489C108.096 61.9348 107.715 62.0677 107.407 62.3112C107.098 62.5548 106.881 62.8949 106.789 63.277C106.387 64.9562 105.722 66.5611 104.818 68.032C104.612 68.3671 104.525 68.7619 104.571 69.1526C104.617 69.5433 104.794 69.907 105.072 70.185L107.717 72.83L104.194 76.353L101.549 73.708C101.271 73.4296 100.907 73.2532 100.516 73.2071C100.125 73.161 99.7303 73.248 99.395 73.454C97.9252 74.359 96.3208 75.0243 94.642 75.425C94.2598 75.5165 93.9194 75.7339 93.6756 76.0423C93.4319 76.3506 93.2989 76.7319 93.298 77.125V80.863H88.314V77.135C88.3134 76.7417 88.1804 76.3601 87.9364 76.0517C87.6924 75.7433 87.3516 75.526 86.969 75.435C85.2896 75.0345 83.685 74.3681 82.216 73.461C81.8812 73.2531 81.4859 73.1648 81.0945 73.2105C80.7031 73.2563 80.3387 73.4334 80.061 73.713L77.418 76.353L73.895 72.83L76.538 70.187C76.8167 69.9085 76.9932 69.5441 77.0389 69.1528C77.0847 68.7615 76.997 68.3662 76.79 68.031C75.8818 66.5628 75.215 64.9584 74.815 63.279C74.7238 62.8965 74.5065 62.5558 74.1982 62.3118C73.8898 62.0678 73.5082 61.9347 73.115 61.934H69.385V56.952H73.123C73.516 56.9515 73.8974 56.8188 74.2058 56.5752C74.5142 56.3316 74.7316 55.9912 74.823 55.609C75.225 53.9298 75.8905 52.3248 76.795 50.854C77.0009 50.5189 77.0879 50.1241 77.0418 49.7334C76.9957 49.3427 76.8193 48.979 76.541 48.701L73.896 46.056L77.419 42.533L80.064 45.178C80.3421 45.4565 80.706 45.6331 81.0969 45.6792C81.4877 45.7253 81.8827 45.6382 82.218 45.432C83.6878 44.527 85.2921 43.8617 86.971 43.461C87.3533 43.3696 87.6938 43.1523 87.9376 42.8439C88.1814 42.5355 88.3143 42.1541 88.315 41.761V38.02H93.297V41.751C93.2977 42.1442 93.4308 42.5258 93.6748 42.8342C93.9188 43.1425 94.2595 43.3598 94.642 43.451C96.3215 43.8512 97.9261 44.5177 99.395 45.425C99.73 45.6322 100.125 45.7201 100.516 45.6744C100.908 45.6286 101.272 45.4519 101.55 45.173L104.193 42.531L107.716 46.054L105.073 48.697C104.795 48.9757 104.618 49.34 104.573 49.7312C104.527 50.1225 104.614 50.5177 104.821 50.853C105.729 52.3214 106.396 53.9257 106.796 55.605C106.887 55.9875 107.104 56.3282 107.413 56.5722C107.721 56.8162 108.103 56.9493 108.496 56.95H112.227L112.228 61.934Z" fill="black"/>
<path d="M90.8046 47.9902C88.5394 47.9902 86.3251 48.6619 84.4416 49.9204C82.5582 51.1789 81.0902 52.9676 80.2234 55.0604C79.3565 57.1531 79.1297 59.4559 79.5716 61.6776C80.0136 63.8993 81.1043 65.94 82.7061 67.5417C84.3078 69.1435 86.3485 70.2343 88.5702 70.6762C90.7919 71.1181 93.0947 70.8913 95.1874 70.0244C97.2802 69.1576 99.0689 67.6896 100.327 65.8062C101.586 63.9227 102.258 61.7084 102.258 59.4432C102.254 56.4068 101.046 53.4957 98.8993 51.3485C96.7521 49.2014 93.841 47.9937 90.8046 47.9902ZM82.8516 59.4432C82.8542 57.6398 83.469 55.8906 84.5953 54.4822C85.7217 53.0737 87.2928 52.0893 89.0516 51.6902V67.1962C87.2928 66.7971 85.7217 65.8128 84.5953 64.4043C83.469 62.9958 82.8542 61.2467 82.8516 59.4432ZM92.5516 67.1962V51.6902C94.3119 52.0865 95.885 53.07 97.0121 54.4791C98.1393 55.8881 98.7533 57.6388 98.7533 59.4432C98.7533 61.2476 98.1393 62.9983 97.0121 64.4074C95.885 65.8164 94.3119 66.8 92.5516 67.1962Z" fill="black"/>
<path d="M31.6474 13.3229L30.8574 14.1129C30.5091 13.6958 30.0738 13.3599 29.582 13.1287C29.0902 12.8976 28.5538 12.7768 28.0104 12.7749H16.5254C15.5312 12.7762 14.5782 13.1717 13.8752 13.8747C13.1722 14.5777 12.7767 15.5307 12.7754 16.5249V28.0099C12.7764 29.0041 13.1719 29.9573 13.8749 30.6604C14.5779 31.3634 15.5312 31.7588 16.5254 31.7599H28.0104C29.0046 31.7588 29.9578 31.3634 30.6609 30.6604C31.3639 29.9573 31.7593 29.0041 31.7604 28.0099V18.1589L34.1224 15.7969C34.4411 15.4668 34.6174 15.0247 34.6133 14.5658C34.6092 14.107 34.4251 13.6681 34.1006 13.3437C33.776 13.0193 33.3371 12.8354 32.8782 12.8315C32.4194 12.8276 31.9774 13.0041 31.6474 13.3229ZM28.2644 28.0099C28.2644 28.0762 28.2381 28.1398 28.1912 28.1867C28.1443 28.2336 28.0807 28.2599 28.0144 28.2599H16.5254C16.4591 28.2599 16.3955 28.2336 16.3486 28.1867C16.3017 28.1398 16.2754 28.0762 16.2754 28.0099V16.5249C16.2754 16.4586 16.3017 16.395 16.3486 16.3481C16.3955 16.3012 16.4591 16.2749 16.5254 16.2749H28.0104C28.0767 16.2749 28.1403 16.3012 28.1872 16.3481C28.2341 16.395 28.2604 16.4586 28.2604 16.5249V16.7099L22.9424 22.0279L21.2714 20.3559C20.9432 20.0277 20.498 19.8433 20.0339 19.8433C19.5697 19.8433 19.1246 20.0277 18.7964 20.3559C18.4682 20.6841 18.2838 21.1292 18.2838 21.5934C18.2838 22.0576 18.4682 22.5027 18.7964 22.8309L21.7054 25.7429C21.8677 25.9055 22.0606 26.0345 22.2728 26.1225C22.4851 26.2106 22.7126 26.2559 22.9424 26.2559C23.1722 26.2559 23.3997 26.2106 23.612 26.1225C23.8242 26.0345 24.017 25.9055 24.1794 25.7429L28.2644 21.6589V28.0099Z" fill="black"/>
<path d="M31.6474 38.1061L30.8574 38.8971C30.509 38.48 30.0737 38.1442 29.5819 37.9131C29.0901 37.682 28.5538 37.5611 28.0104 37.5591H16.5254C15.5312 37.5604 14.5782 37.9559 13.8752 38.6589C13.1722 39.3619 12.7767 40.3149 12.7754 41.3091V52.7941C12.7767 53.7882 13.1722 54.7413 13.8752 55.4443C14.5782 56.1472 15.5312 56.5428 16.5254 56.5441H28.0104C29.0045 56.5428 29.9576 56.1472 30.6606 55.4443C31.3636 54.7413 31.7591 53.7882 31.7604 52.7941V42.9431L34.1224 40.5821C34.4506 40.2539 34.635 39.8087 34.635 39.3446C34.635 38.8804 34.4506 38.4353 34.1224 38.1071C33.7942 37.7789 33.349 37.5945 32.8849 37.5945C32.4207 37.5945 31.9756 37.7789 31.6474 38.1071V38.1061ZM28.2644 52.7941C28.2641 52.8603 28.2377 52.9237 28.1909 52.9706C28.144 53.0174 28.0806 53.0438 28.0144 53.0441H16.5254C16.4592 53.0438 16.3957 53.0174 16.3489 52.9706C16.3021 52.9237 16.2757 52.8603 16.2754 52.7941V41.3091C16.2754 41.2428 16.3017 41.1792 16.3486 41.1323C16.3955 41.0854 16.4591 41.0591 16.5254 41.0591H28.0104C28.0767 41.0591 28.1403 41.0854 28.1872 41.1323C28.2341 41.1792 28.2604 41.2428 28.2604 41.3091V41.4931L22.9424 46.8111L21.2714 45.1431C20.9432 44.8149 20.498 44.6305 20.0339 44.6305C19.5697 44.6305 19.1246 44.8149 18.7964 45.1431C18.4682 45.4713 18.2838 45.9164 18.2838 46.3806C18.2838 46.8447 18.4682 47.2899 18.7964 47.6181L21.7054 50.5271C21.8677 50.6897 22.0606 50.8187 22.2728 50.9067C22.4851 50.9947 22.7126 51.04 22.9424 51.04C23.1722 51.04 23.3997 50.9947 23.612 50.9067C23.8242 50.8187 24.017 50.6897 24.1794 50.5271L28.2644 46.4431V52.7941Z" fill="black"/>
<path d="M31.6474 62.8888L30.8574 63.6798C30.5089 63.2629 30.0736 62.9273 29.5818 62.6963C29.09 62.4654 28.5537 62.3447 28.0104 62.3428H16.5254C15.5312 62.3441 14.5782 62.7396 13.8752 63.4426C13.1722 64.1456 12.7767 65.0986 12.7754 66.0928V77.5768C12.7767 78.5709 13.1722 79.524 13.8752 80.227C14.5782 80.9299 15.5312 81.3255 16.5254 81.3268H28.0104C29.0045 81.3255 29.9576 80.9299 30.6606 80.227C31.3636 79.524 31.7591 78.5709 31.7604 77.5768V67.7258L34.1224 65.3638C34.4506 65.0356 34.635 64.5904 34.635 64.1263C34.635 63.6621 34.4506 63.217 34.1224 62.8888C33.7942 62.5606 33.349 62.3762 32.8849 62.3762C32.4207 62.3762 31.9756 62.5606 31.6474 62.8888ZM28.2644 77.5768C28.2644 77.6431 28.2381 77.7067 28.1912 77.7535C28.1443 77.8004 28.0807 77.8268 28.0144 77.8268H16.5254C16.4591 77.8268 16.3955 77.8004 16.3486 77.7535C16.3017 77.7067 16.2754 77.6431 16.2754 77.5768V66.0918C16.2757 66.0256 16.3021 65.9621 16.3489 65.9153C16.3957 65.8685 16.4592 65.842 16.5254 65.8418H28.0104C28.0766 65.842 28.1401 65.8685 28.1869 65.9153C28.2337 65.9621 28.2601 66.0256 28.2604 66.0918V66.2768L22.9424 71.5938L21.2714 69.9218C20.9432 69.5936 20.498 69.4092 20.0339 69.4092C19.5697 69.4092 19.1246 69.5936 18.7964 69.9218C18.4682 70.25 18.2838 70.6951 18.2838 71.1593C18.2838 71.6234 18.4682 72.0686 18.7964 72.3968L21.7054 75.3058C21.8677 75.4684 22.0606 75.5974 22.2728 75.6854C22.4851 75.7734 22.7126 75.8187 22.9424 75.8187C23.1722 75.8187 23.3997 75.7734 23.612 75.6854C23.8242 75.5974 24.017 75.4684 24.1794 75.3058L28.2604 71.2258L28.2644 77.5768Z" fill="black"/>
<path d="M31.6474 87.673L30.8574 88.464C30.5093 88.0467 30.074 87.7107 29.5821 87.4795C29.0903 87.2484 28.5538 87.1277 28.0104 87.126H16.5254C15.5312 87.127 14.5779 87.5225 13.8749 88.2255C13.1719 88.9285 12.7764 89.8817 12.7754 90.876V102.361C12.7767 103.355 13.1722 104.308 13.8752 105.011C14.5782 105.714 15.5312 106.11 16.5254 106.111H28.0104C29.0045 106.11 29.9576 105.714 30.6606 105.011C31.3636 104.308 31.7591 103.355 31.7604 102.361V92.51L34.1224 90.148C34.4506 89.8198 34.635 89.3746 34.635 88.9105C34.635 88.4463 34.4506 88.0012 34.1224 87.673C33.7942 87.3448 33.349 87.1604 32.8849 87.1604C32.4207 87.1604 31.9756 87.3448 31.6474 87.673ZM28.2644 102.361C28.2644 102.427 28.2381 102.491 28.1912 102.538C28.1443 102.585 28.0807 102.611 28.0144 102.611H16.5254C16.4591 102.611 16.3955 102.585 16.3486 102.538C16.3017 102.491 16.2754 102.427 16.2754 102.361V90.876C16.2754 90.8097 16.3017 90.7461 16.3486 90.6992C16.3955 90.6523 16.4591 90.626 16.5254 90.626H28.0104C28.0767 90.626 28.1403 90.6523 28.1872 90.6992C28.2341 90.7461 28.2604 90.8097 28.2604 90.876V91.061L22.9424 96.378L21.2714 94.707C20.9414 94.3881 20.4994 94.2117 20.0405 94.2155C19.5817 94.2194 19.1427 94.4034 18.8182 94.7278C18.4937 95.0522 18.3095 95.4911 18.3055 95.9499C18.3014 96.4088 18.4777 96.8509 18.7964 97.181L21.7054 100.09C21.8677 100.253 22.0606 100.382 22.2728 100.47C22.4851 100.558 22.7126 100.603 22.9424 100.603C23.1722 100.603 23.3997 100.558 23.612 100.47C23.8242 100.382 24.017 100.253 24.1794 100.09L28.2604 96.01L28.2644 102.361Z" fill="black"/>
<path d="M39.7637 24.0181H78.0337C78.4978 24.0181 78.9429 23.8337 79.2711 23.5055C79.5993 23.1773 79.7837 22.7322 79.7837 22.2681C79.7837 21.8039 79.5993 21.3588 79.2711 21.0306C78.9429 20.7024 78.4978 20.5181 78.0337 20.5181H39.7637C39.2995 20.5181 38.8544 20.7024 38.5262 21.0306C38.198 21.3588 38.0137 21.8039 38.0137 22.2681C38.0137 22.7322 38.198 23.1773 38.5262 23.5055C38.8544 23.8337 39.2995 24.0181 39.7637 24.0181Z" fill="black"/>
<path d="M78.0297 94.8682H39.7637C39.2995 94.8682 38.8544 95.0525 38.5262 95.3807C38.198 95.7089 38.0137 96.154 38.0137 96.6182C38.0137 97.0823 38.198 97.5274 38.5262 97.8556C38.8544 98.1838 39.2995 98.3682 39.7637 98.3682H78.0337C78.4978 98.3682 78.9429 98.1838 79.2711 97.8556C79.5993 97.5274 79.7837 97.0823 79.7837 96.6182C79.7837 96.154 79.5993 95.7089 79.2711 95.3807C78.9429 95.0525 78.4978 94.8682 78.0337 94.8682H78.0297Z" fill="black"/>
</svg>
