<svg width="119" height="106" viewBox="0 0 119 106" fill="none" xmlns="http://www.w3.org/2000/svg">
<path d="M59.4426 32.8818C57.9742 32.8816 56.5388 33.3169 55.3178 34.1325C54.0968 34.9482 53.145 36.1076 52.583 37.4641C52.0209 38.8206 51.8738 40.3134 52.1601 41.7536C52.4465 43.1938 53.1534 44.5167 54.1917 45.555C55.2299 46.5934 56.5527 47.3006 57.9929 47.5871C59.433 47.8737 60.9258 47.7267 62.2824 47.1648C63.639 46.6029 64.7985 45.6514 65.6143 44.4305C66.4301 43.2096 66.8656 41.7742 66.8656 40.3058C66.8635 38.3377 66.0808 36.4508 64.6892 35.059C63.2976 33.6672 61.4107 32.8842 59.4426 32.8818ZM59.4426 44.2288C58.6664 44.229 57.9076 43.999 57.2621 43.5679C56.6167 43.1368 56.1136 42.524 55.8165 41.8069C55.5193 41.0899 55.4416 40.3008 55.5929 39.5395C55.7443 38.7783 56.1181 38.079 56.6669 37.5302C57.2157 36.9813 57.915 36.6076 58.6763 36.4562C59.4376 36.3048 60.2266 36.3826 60.9437 36.6797C61.6608 36.9768 62.2736 37.48 62.7047 38.1254C63.1358 38.7709 63.3658 39.5297 63.3656 40.3058C63.3645 41.346 62.9509 42.3432 62.2154 43.0786C61.4799 43.8141 60.4827 44.2278 59.4426 44.2288Z" fill="black"/>
<path d="M112.635 0H6.251C4.59283 0.00185469 3.00319 0.661722 1.83116 1.83469C0.659125 3.00766 0.000528898 4.59783 0 6.256V83.156C0.00185277 84.8133 0.661033 86.4022 1.83292 87.5741C3.00481 88.746 4.5937 89.4051 6.251 89.407H44.435V102.022H38.495C38.0309 102.022 37.5858 102.206 37.2576 102.535C36.9294 102.863 36.745 103.308 36.745 103.772C36.745 104.236 36.9294 104.681 37.2576 105.009C37.5858 105.338 38.0309 105.522 38.495 105.522H80.395C80.8591 105.522 81.3043 105.338 81.6324 105.009C81.9606 104.681 82.145 104.236 82.145 103.772C82.145 103.308 81.9606 102.863 81.6324 102.535C81.3043 102.206 80.8591 102.022 80.395 102.022H74.455V89.397H112.639C114.296 89.3951 115.885 88.736 117.057 87.5641C118.229 86.3922 118.888 84.8033 118.89 83.146V6.256C118.889 4.59714 118.23 3.00636 117.057 1.83328C115.885 0.660195 114.294 0.00079515 112.635 0ZM6.251 3.5H112.635C113.364 3.50079 114.064 3.79089 114.579 4.30663C115.095 4.82237 115.385 5.52163 115.386 6.251V69.743H111.519V9.117C111.519 8.65295 111.334 8.20799 111.006 7.87986C110.678 7.55172 110.233 7.36726 109.769 7.367H9.117C8.65295 7.36726 8.20799 7.55172 7.87986 7.87986C7.55172 8.20799 7.36726 8.65295 7.367 9.117V69.743H3.5V6.256C3.49947 5.52577 3.78898 4.82522 4.30486 4.30839C4.82074 3.79157 5.52077 3.5008 6.251 3.5ZM10.867 69.743V10.867H108.019V69.743H10.867ZM70.951 102.012H47.935V89.397H70.951V102.012ZM112.635 85.897H6.251C5.52171 85.8959 4.8226 85.6058 4.30692 85.0901C3.79123 84.5744 3.50106 83.8753 3.5 83.146V73.246H115.386V83.146C115.385 83.8753 115.095 84.5744 114.579 85.0901C114.063 85.6058 113.364 85.8959 112.635 85.897Z" fill="black"/>
<path d="M83.4204 53.1442C82.1822 53.1459 80.9767 53.5414 79.9782 54.2737C78.9797 55.0059 78.2401 56.0368 77.8664 57.2172H73.3364L71.5364 53.8172C78.519 51.5695 84.615 47.1773 88.9574 41.2652C89.1439 40.9801 89.2432 40.6469 89.2432 40.3062C89.2432 39.9656 89.1439 39.6323 88.9574 39.3472C84.6135 33.436 78.5165 29.0449 71.5334 26.7982L73.3334 23.3982H77.8634C78.2814 24.7248 79.1605 25.858 80.3416 26.5927C81.5227 27.3274 82.9277 27.615 84.3025 27.4035C85.6773 27.192 86.9309 26.4955 87.8366 25.4398C88.7423 24.3841 89.2402 23.0391 89.2402 21.6482C89.2402 20.2573 88.7423 18.9123 87.8366 17.8566C86.9309 16.801 85.6773 16.1044 84.3025 15.8929C82.9277 15.6814 81.5227 15.9691 80.3416 16.7037C79.1605 17.4384 78.2814 18.5716 77.8634 19.8982H72.2824C71.9645 19.8982 71.6527 19.9848 71.3803 20.1486C71.1079 20.3125 70.8853 20.5474 70.7364 20.8282L68.0804 25.8432C62.39 24.5925 56.4958 24.5925 50.8054 25.8432L48.1494 20.8282C48.0005 20.5474 47.7778 20.3125 47.5055 20.1486C47.2331 19.9848 46.9212 19.8982 46.6034 19.8982H41.0194C40.6014 18.5716 39.7223 17.4384 38.5412 16.7037C37.3601 15.9691 35.9551 15.6814 34.5803 15.8929C33.2055 16.1044 31.9519 16.801 31.0462 17.8566C30.1405 18.9123 29.6426 20.2573 29.6426 21.6482C29.6426 23.0391 30.1405 24.3841 31.0462 25.4398C31.9519 26.4955 33.2055 27.192 34.5803 27.4035C35.9551 27.615 37.3601 27.3274 38.5412 26.5927C39.7223 25.858 40.6014 24.7248 41.0194 23.3982H45.5504L47.3504 26.7982C40.3682 29.045 34.2722 33.4362 29.9294 39.3472C29.7424 39.6321 29.6428 39.9654 29.6428 40.3062C29.6428 40.647 29.7424 40.9803 29.9294 41.2652C34.2729 47.1766 40.3701 51.5675 47.3534 53.8132L45.5534 57.2132H41.0194C40.6014 55.8866 39.7223 54.7534 38.5412 54.0187C37.3601 53.2841 35.9551 52.9964 34.5803 53.2079C33.2055 53.4194 31.9519 54.116 31.0462 55.1716C30.1405 56.2273 29.6426 57.5723 29.6426 58.9632C29.6426 60.3541 30.1405 61.6991 31.0462 62.7548C31.9519 63.8105 33.2055 64.5071 34.5803 64.7185C35.9551 64.93 37.3601 64.6424 38.5412 63.9077C39.7223 63.173 40.6014 62.0398 41.0194 60.7132H46.6034C46.9214 60.7132 47.2333 60.6265 47.5057 60.4625C47.7781 60.2985 48.0007 60.0633 48.1494 59.7822L50.8054 54.7692C56.4961 56.0199 62.3906 56.0199 68.0814 54.7692L70.7364 59.7822C70.8851 60.0633 71.1076 60.2985 71.38 60.4625C71.6524 60.6265 71.9644 60.7132 72.2824 60.7132H77.8664C78.1898 61.7396 78.7913 62.6562 79.604 63.3614C80.4168 64.0666 81.4091 64.5329 82.4708 64.7083C83.5325 64.8837 84.6221 64.7616 85.6185 64.3553C86.615 63.9491 87.4794 63.2746 88.1158 62.4069C88.7522 61.5392 89.1357 60.5121 89.2237 59.4396C89.3117 58.3671 89.1008 57.2912 88.6145 56.3313C88.1281 55.3714 87.3852 54.5651 86.4684 54.0018C85.5515 53.4385 84.4965 53.1402 83.4204 53.1402V53.1442ZM83.4204 19.3212C83.8798 19.3212 84.329 19.4574 84.711 19.7127C85.093 19.968 85.3907 20.3308 85.5666 20.7552C85.7424 21.1797 85.7884 21.6468 85.6988 22.0974C85.6091 22.548 85.3879 22.9619 85.063 23.2868C84.7381 23.6117 84.3242 23.8329 83.8736 23.9226C83.423 24.0122 82.9559 23.9662 82.5314 23.7904C82.1069 23.6146 81.7441 23.3168 81.4889 22.9348C81.2336 22.5528 81.0974 22.1037 81.0974 21.6442C81.0979 21.0283 81.3428 20.4377 81.7784 20.0022C82.2139 19.5667 82.8045 19.3217 83.4204 19.3212ZM35.4664 23.9672C35.0069 23.9672 34.5578 23.831 34.1758 23.5757C33.7938 23.3205 33.496 22.9577 33.3202 22.5332C33.1444 22.1087 33.0984 21.6416 33.188 21.191C33.2777 20.7404 33.4989 20.3265 33.8238 20.0016C34.1487 19.6767 34.5626 19.4555 35.0132 19.3658C35.4638 19.2762 35.9309 19.3222 36.3554 19.498C36.7798 19.6739 37.1426 19.9716 37.3979 20.3536C37.6531 20.7356 37.7894 21.1848 37.7894 21.6442C37.7886 22.2601 37.5436 22.8505 37.1081 23.2859C36.6726 23.7214 36.0822 23.9664 35.4664 23.9672ZM35.4664 61.2902C35.0069 61.2902 34.5578 61.154 34.1758 60.8987C33.7938 60.6435 33.496 60.2807 33.3202 59.8562C33.1444 59.4317 33.0984 58.9646 33.188 58.514C33.2777 58.0634 33.4989 57.6495 33.8238 57.3246C34.1487 56.9997 34.5626 56.7785 35.0132 56.6888C35.4638 56.5992 35.9309 56.6452 36.3554 56.821C36.7798 56.9969 37.1426 57.2946 37.3979 57.6766C37.6531 58.0586 37.7894 58.5078 37.7894 58.9672C37.7886 59.5831 37.5436 60.1735 37.1081 60.6089C36.6726 61.0444 36.0822 61.2894 35.4664 61.2902ZM47.5434 40.3062C47.5434 37.9514 48.2417 35.6495 49.5501 33.6916C50.8585 31.7338 52.7181 30.2079 54.8937 29.3069C57.0693 28.406 59.4633 28.1706 61.7728 28.6303C64.0823 29.0901 66.2035 30.2244 67.8683 31.8899C69.533 33.5553 70.6665 35.677 71.1253 37.9867C71.584 40.2964 71.3476 42.6903 70.4457 44.8655C69.5439 47.0408 68.0172 48.8997 66.0588 50.2073C64.1004 51.5148 61.7982 52.2122 59.4434 52.2112C56.2879 52.2064 53.2631 50.9505 51.0323 48.7188C48.8015 46.487 47.5468 43.4617 47.5434 40.3062ZM85.3204 40.2982C81.5972 44.7799 76.7462 48.1877 71.2674 50.1702C73.5905 47.3979 74.8604 43.8946 74.8533 40.2776C74.8462 36.6606 73.5624 33.1623 71.2284 30.3992C76.7387 32.353 81.6099 35.776 85.3154 40.2982H85.3204ZM33.5764 40.3142C37.2987 35.8315 42.15 32.4236 47.6294 30.4422C45.3063 33.2145 44.0363 36.7179 44.0435 40.3348C44.0506 43.9518 45.3343 47.4501 47.6684 50.2132C42.1547 48.2606 37.2799 44.8375 33.5714 40.3142H33.5764ZM83.4204 61.2902C82.9609 61.2902 82.5118 61.154 82.1298 60.8987C81.7478 60.6435 81.45 60.2807 81.2742 59.8562C81.0984 59.4317 81.0524 58.9646 81.142 58.514C81.2317 58.0634 81.4529 57.6495 81.7778 57.3246C82.1027 56.9997 82.5166 56.7785 82.9672 56.6888C83.4178 56.5992 83.8849 56.6452 84.3094 56.821C84.7338 56.9969 85.0966 57.2946 85.3519 57.6766C85.6071 58.0586 85.7434 58.5078 85.7434 58.9672C85.7426 59.5831 85.4976 60.1735 85.0621 60.6089C84.6266 61.0444 84.0362 61.2894 83.4204 61.2902Z" fill="black"/>
</svg>
