<svg width="119" height="119" viewBox="0 0 119 119" fill="none" xmlns="http://www.w3.org/2000/svg">
<path d="M112.133 0H6.753C4.96256 0.00185305 3.24599 0.713923 1.97995 1.97995C0.713923 3.24599 0.00185305 4.96256 0 6.753V86.526C0.0021177 88.3163 0.714304 90.0326 1.98031 91.2984C3.24631 92.5642 4.96274 93.2761 6.753 93.278H45.683L57.875 117.912C58.0195 118.204 58.2429 118.451 58.52 118.623C58.7971 118.795 59.1168 118.886 59.443 118.886C59.7692 118.886 60.0889 118.795 60.366 118.623C60.6431 118.451 60.8665 118.204 61.011 117.912L73.203 93.278H112.133C113.923 93.2761 115.64 92.5642 116.906 91.2984C118.172 90.0326 118.884 88.3163 118.886 86.526V6.753C118.884 4.96256 118.172 3.24599 116.906 1.97995C115.64 0.713923 113.923 0.00185305 112.133 0ZM115.386 86.526C115.385 87.3883 115.041 88.2148 114.432 88.8244C113.822 89.434 112.995 89.7769 112.133 89.778H72.117C71.7907 89.778 71.4709 89.8692 71.1937 90.0413C70.9164 90.2134 70.6928 90.4596 70.548 90.752L59.443 113.191L48.337 90.752C48.1926 90.4595 47.9692 90.2133 47.6921 90.0412C47.4149 89.869 47.0952 89.7779 46.769 89.778H6.753C5.89075 89.7769 5.0641 89.434 4.4543 88.8244C3.84451 88.2148 3.50132 87.3883 3.5 86.526V6.753C3.50132 5.89066 3.84447 5.06401 4.45424 4.45424C5.06401 3.84447 5.89066 3.50132 6.753 3.5H112.133C112.995 3.50132 113.822 3.84447 114.432 4.45424C115.042 5.06401 115.385 5.89066 115.386 6.753V86.526Z" fill="black"/>
<path d="M59.4434 14.8892C53.164 14.8892 47.0256 16.7512 41.8044 20.2397C36.5833 23.7283 32.5138 28.6867 30.1106 34.488C27.7074 40.2894 27.0784 46.673 28.3031 52.8318C29.5279 58.9906 32.5514 64.6479 36.9913 69.0884C41.4312 73.5289 47.0882 76.5531 53.2468 77.7786C59.4054 79.0041 65.7892 78.376 71.5908 75.9735C77.3924 73.571 82.3514 69.5022 85.8406 64.2814C89.3298 59.0607 91.1926 52.9225 91.1934 46.6432C91.1846 38.2249 87.8369 30.1538 81.8846 24.2008C75.9323 18.2477 67.8617 14.899 59.4434 14.8892ZM59.4434 74.8892C53.8559 74.8892 48.3939 73.2322 43.7481 70.1279C39.1023 67.0236 35.4815 62.6113 33.3434 57.449C31.2053 52.2868 30.6461 46.6065 31.7365 41.1264C32.8268 35.6463 35.5178 30.6127 39.469 26.662C43.4203 22.7113 48.4543 20.0211 53.9345 18.9315C59.4147 17.8419 65.095 18.4019 70.2569 20.5407C75.4189 22.6795 79.8307 26.301 82.9343 30.9472C86.038 35.5934 87.6942 41.0557 87.6934 46.6432C87.6838 54.1322 84.7043 61.3118 79.4084 66.607C74.1124 71.9022 66.9324 74.8807 59.4434 74.8892Z" fill="black"/>
<path d="M70.8611 58.057C67.8303 61.0808 63.7238 62.7789 59.4426 62.7789C55.1613 62.7789 51.0549 61.0808 48.0241 58.057C47.694 57.7383 47.2519 57.562 46.793 57.5661C46.3342 57.5702 45.8953 57.7543 45.5709 58.0788C45.2465 58.4034 45.0626 58.8423 45.0587 59.3012C45.0548 59.76 45.2312 60.202 45.5501 60.532C49.2378 64.211 54.2341 66.277 59.4431 66.277C64.6521 66.277 69.6484 64.211 73.3361 60.532C73.6643 60.2038 73.8487 59.7587 73.8487 59.2945C73.8487 58.8304 73.6643 58.3852 73.3361 58.057C73.0079 57.7288 72.5627 57.5444 72.0986 57.5444C71.6344 57.5444 71.1893 57.7288 70.8611 58.057Z" fill="black"/>
<path d="M74.0747 39.4968C73.8668 39.082 73.5028 38.7666 73.0626 38.6198C72.6224 38.473 72.142 38.5068 71.7267 38.7138L66.1837 41.4858C65.8929 41.6311 65.6483 41.8546 65.4773 42.1311C65.3064 42.4076 65.2158 42.7262 65.2158 43.0513C65.2158 43.3764 65.3064 43.6951 65.4773 43.9716C65.6483 44.2481 65.8929 44.4715 66.1837 44.6168L71.7267 47.3888C71.9323 47.4916 72.1561 47.5529 72.3854 47.5691C72.6146 47.5854 72.8448 47.5563 73.0629 47.4836C73.2809 47.4109 73.4825 47.296 73.6561 47.1454C73.8297 46.9947 73.9719 46.8114 74.0747 46.6058C74.1775 46.4002 74.2387 46.1764 74.255 45.9472C74.2713 45.7179 74.2422 45.4877 74.1695 45.2697C74.0968 45.0516 73.9818 44.8501 73.8312 44.6765C73.6806 44.5028 73.4973 44.3606 73.2917 44.2578L70.8787 43.0518L73.2917 41.8428C73.7062 41.6351 74.0214 41.2715 74.1682 40.8317C74.315 40.3919 74.2814 39.9119 74.0747 39.4968Z" fill="black"/>
<path d="M46.3776 47.5739C46.6487 47.5736 46.9161 47.5102 47.1586 47.3889L52.7016 44.6169C52.9924 44.4716 53.237 44.2482 53.4079 43.9716C53.5789 43.6951 53.6695 43.3765 53.6695 43.0514C53.6695 42.7263 53.5789 42.4076 53.4079 42.1311C53.237 41.8546 52.9924 41.6312 52.7016 41.4859L47.1586 38.7139C46.9523 38.6032 46.726 38.535 46.493 38.5134C46.2599 38.4917 46.0249 38.517 45.8018 38.5878C45.5787 38.6586 45.3721 38.7734 45.1942 38.9255C45.0162 39.0775 44.8706 39.2637 44.7659 39.473C44.6612 39.6824 44.5996 39.9106 44.5846 40.1441C44.5697 40.3777 44.6017 40.6119 44.6789 40.8329C44.7561 41.0538 44.8768 41.2571 45.0339 41.4305C45.191 41.604 45.3813 41.7442 45.5936 41.8429L48.0056 43.0499L45.5936 44.2559C45.2405 44.432 44.9572 44.7223 44.7899 45.0797C44.6225 45.4371 44.5808 45.8405 44.6716 46.2245C44.7624 46.6086 44.9804 46.9506 45.29 47.1952C45.5997 47.4398 45.983 47.5725 46.3776 47.5719V47.5739Z" fill="black"/>
</svg>
