<svg width="20" height="20"
     viewBox="0 0 18.5 21" xmlns="http://www.w3.org/2000/svg">

    <path fill="#fff"
          d="M5.5,21c-1.5,0-2.9-0.6-3.9-1.6c-1-1-1.6-2.4-1.6-3.9s0.6-2.9,1.6-3.9L12,1c0.8-0.7,1.7-1,2.7-1c1,0,1.9,0.4,2.6,1.1c0.7,0.7,1.1,1.6,1.1,2.6c0,1-0.3,1.9-1,2.7L7.1,17c-0.4,0.4-1,0.6-1.5,0.6C5,17.6,4.4,17.4,4,17c-0.4-0.4-0.6-0.9-0.6-1.5c0-0.6,0.2-1.1,0.6-1.5l8.7-8.9c0.2-0.2,0.5-0.2,0.7,0s0.2,0.5,0,0.7l-8.7,8.9c-0.2,0.2-0.3,0.5-0.3,0.8c0,0.3,0.1,0.6,0.3,0.8c0.2,0.2,0.5,0.3,0.8,0.3c0.3,0,0.6-0.1,0.8-0.3L16.8,5.8c0.5-0.5,0.7-1.2,0.7-2c0-0.7-0.3-1.4-0.8-1.9C16.1,1.3,15.4,1,14.7,1c-0.8,0-1.4,0.2-2,0.7L2.3,12.3c-0.9,0.9-1.3,2-1.3,3.2s0.5,2.3,1.3,3.2s2,1.3,3.2,1.3c1.2,0,2.3-0.5,3.2-1.3l8.6-8.6c0.2-0.2,0.5-0.2,0.7,0c0.2,0.2,0.2,0.5,0,0.7l-8.6,8.6C8.4,20.4,7,21,5.5,21z"/>
</svg>