<svg width="280" height="55" viewBox="0 0 280 55" fill="none" xmlns="http://www.w3.org/2000/svg">
<path d="M83.9941 17.0956L83.9334 16.7015L83.8727 17.0956C82.9317 22.7338 78.5301 27.1595 72.8536 28.0992L72.459 28.1599L72.8536 28.2205C78.4997 29.1602 82.9317 33.5556 83.8727 39.2241L83.9334 39.6182L83.9941 39.2241C84.9351 33.5859 89.3367 29.1602 95.0132 28.2205L95.4078 28.1599L95.0132 28.0992C89.367 27.1595 84.9351 22.7338 83.9941 17.0956Z" fill="white"/>
<path d="M83.9336 2.21179C69.6058 2.21179 57.9492 13.852 57.9492 28.1598C57.9492 42.4675 69.6058 54.1078 83.9336 54.1078C98.2614 54.1078 109.918 42.4675 109.918 28.1598C109.918 13.852 98.2918 2.21179 83.9336 2.21179ZM106.306 26.3107L98.4436 25.28C97.8061 18.0352 94.8009 11.3967 90.0654 6.57687C98.8989 9.09286 105.547 16.8833 106.306 26.3107ZM94.8313 24.8253L90.5208 24.2494C89.1548 24.0069 88.0923 22.9459 87.8495 21.5818L86.0281 7.66814C90.885 11.821 94.042 17.9746 94.8313 24.8253ZM81.8694 7.69846L80.0481 21.6122C79.8052 22.9762 78.7428 24.0372 77.3768 24.2797L73.0663 24.8253C73.8555 17.9746 77.0429 11.821 81.8694 7.69846ZM77.8321 6.57687C73.0967 11.3967 70.0915 18.0352 69.454 25.28L61.5615 26.3107C62.3508 16.8833 68.9987 9.09286 77.8321 6.57687ZM61.5919 29.9786L69.4843 31.0092C70.1218 38.254 73.127 44.8926 77.8625 49.7124C68.9987 47.2267 62.3508 39.4059 61.5919 29.9786ZM73.0663 31.4942L77.3768 32.0398C78.7428 32.2823 79.8052 33.3433 80.0481 34.7074L81.8694 48.6211C77.0429 44.4985 73.8555 38.3146 73.0663 31.4942ZM84.3282 34.2224L83.9336 37.1628L83.539 34.2224C83.539 34.1921 83.539 34.1921 83.539 34.1618C83.0533 31.282 80.807 29.0389 77.9232 28.5538C77.8928 28.5538 77.8928 28.5538 77.8625 28.5538L74.918 28.1598L77.8625 27.7657C77.8928 27.7657 77.8928 27.7657 77.9232 27.7657C80.807 27.2807 83.0533 25.0375 83.539 22.1578C83.539 22.1275 83.539 22.1275 83.539 22.0972L83.9336 19.1568L84.3282 22.0972C84.3282 22.1275 84.3282 22.1275 84.3282 22.1578C84.8139 25.0375 87.0602 27.2807 89.944 27.7657C89.9744 27.7657 89.9744 27.7657 90.0047 27.7657L92.9492 28.1598L90.0047 28.5538C89.9744 28.5538 89.9744 28.5538 89.944 28.5538C87.0602 29.0389 84.8139 31.282 84.3282 34.1618C84.3282 34.1618 84.3282 34.1921 84.3282 34.2224ZM86.0281 48.6211L87.8495 34.7074C88.0923 33.3433 89.1548 32.2823 90.5208 32.0398L94.8313 31.4639C94.042 38.345 90.885 44.4985 86.0281 48.6211ZM90.0654 49.7124C94.8009 44.8926 97.8061 38.254 98.4436 31.0092L106.306 29.9786C105.547 39.4059 98.8989 47.1964 90.0654 49.7124Z" fill="black"/>
<path d="M7.28534 45.4693L0 11.3671H14.4493L16.6652 26.1296C16.9081 27.7058 17.2116 30.2521 17.4241 33.1016H17.9098C18.1223 30.2521 18.3955 27.7362 18.6687 26.0083L20.7632 11.3368H34.3929L36.8213 25.9477C37.1249 27.8574 37.4284 30.3734 37.6106 33.1016H38.157C38.3087 30.3734 38.5819 27.8877 38.8248 26.1296L40.7372 11.3671H54.7615L47.5065 45.4693H29.8395L28.595 35.5266C28.17 32.0709 27.8361 28.7971 27.5629 24.9474H27.0468C26.8647 28.7971 26.5308 32.1316 26.1058 35.5266L24.9523 45.4693H7.28534Z" fill="black"/>
<path d="M116.384 45.4694V11.3672H131.926C132.017 13.7013 131.683 15.4595 130.499 18.7939L130.985 19.188C134.233 13.5194 138.361 10.7003 144.736 10.7003C151.9 10.7003 155.876 14.4288 155.876 22.1283V45.4694H140.061V27.9485C140.061 24.8262 138.999 23.3712 136.752 23.3712C133.808 23.3712 132.169 26.4934 132.169 32.1317V45.4694H116.384Z" fill="black"/>
<path d="M161.219 28.464V28.3427C161.219 16.2175 165.529 10.3974 174.484 10.3974C179.978 10.3974 183.834 13.1256 186.384 18.7941L186.869 18.4607C185.807 14.7018 185.443 12.0343 185.443 8.39672V0H201.258V45.4696H185.473C185.473 44.0449 185.898 41.5592 186.9 38.0126L186.414 37.7095C183.894 43.378 180.039 46.1062 174.515 46.1062C165.56 46.1062 161.219 40.3467 161.219 28.464ZM185.473 28.7065V27.7971C185.473 23.2198 184.046 21.007 181.162 21.007C178.4 21.007 177.064 23.2198 177.064 27.7971V28.7065C177.064 33.2534 178.4 35.436 181.162 35.436C184.046 35.436 185.473 33.2534 185.473 28.7065Z" fill="black"/>
<path d="M247.156 31.9493H223.145C223.448 35.1928 224.784 36.7691 227.273 36.7691C229.459 36.7691 230.673 35.6778 231.007 33.4043L247.126 34.344C246.245 42.5285 239.81 46.4692 227.304 46.4692C213.461 46.4692 206.783 40.8916 206.783 29.2211V27.7358C206.783 16.0652 213.461 10.427 227.304 10.427C240.903 10.427 247.46 15.9743 247.46 27.4326C247.429 29.0392 247.338 30.5246 247.156 31.9493ZM231.25 24.2801V24.1588C231.25 21.37 229.975 20.0362 227.273 20.0362C224.997 20.0362 223.661 21.4306 223.236 24.2801H231.25Z" fill="black"/>
<path d="M252.589 45.4686V11.3664H268.131C268.222 13.5792 267.797 15.6708 266.704 18.7324L267.19 19.1568C271.622 12.6395 273.959 10.7904 279.089 10.0326L280 25.1891L274.536 25.5832C269.588 25.947 268.404 28.1295 268.404 36.1018V45.4686H252.589Z" fill="black"/>
</svg>
