<svg width="280" height="84" viewBox="0 0 280 84" fill="none" xmlns="http://www.w3.org/2000/svg">
<path d="M258.146 23.6157C258.254 23.8093 258.32 24.0235 258.339 24.2443C258.358 24.4651 258.33 24.6874 258.258 24.8967C258.185 25.106 258.069 25.2976 257.917 25.4589C257.765 25.6201 257.58 25.7474 257.376 25.8325C256.977 26.023 256.519 26.049 256.102 25.9049C255.684 25.7607 255.34 25.458 255.143 25.0621C252.258 19.0688 247.868 13.9263 242.402 10.1368C236.936 6.34735 230.58 4.04057 223.955 3.44181C217.331 2.84304 210.664 3.97277 204.607 6.72063C198.55 9.46849 193.309 13.7405 189.396 19.1194C189.122 19.4103 188.752 19.593 188.355 19.634C187.957 19.6751 187.558 19.5718 187.23 19.3431C186.902 19.1143 186.667 18.7754 186.569 18.388C186.47 18.0006 186.514 17.5906 186.692 17.2328C192.913 8.66334 202.156 2.77631 212.552 0.762467C222.948 -1.25137 233.721 0.758302 242.692 6.385C249.367 10.5818 254.723 16.5757 258.146 23.6786M186.692 66.2681C186.524 66.0943 186.395 65.886 186.316 65.6576C186.236 65.4293 186.207 65.1863 186.231 64.9456C186.254 64.7049 186.33 64.4722 186.453 64.2637C186.575 64.0553 186.742 63.876 186.941 63.7384C187.14 63.6008 187.366 63.5081 187.605 63.4668C187.843 63.4255 188.087 63.4366 188.321 63.4993C188.555 63.562 188.772 63.6748 188.957 63.8298C189.143 63.9849 189.293 64.1785 189.396 64.3972C192.974 69.2828 197.656 73.2536 203.06 75.9858C208.464 78.7179 214.438 80.134 220.493 80.1187C227.723 80.1109 234.804 78.0635 240.922 74.2117C247.04 70.36 251.948 64.8602 255.08 58.3445C255.176 58.147 255.31 57.9703 255.474 57.8247C255.638 57.679 255.829 57.5672 256.037 57.4956C256.244 57.424 256.464 57.3941 256.683 57.4076C256.902 57.4211 257.116 57.4776 257.313 57.5741C257.517 57.6591 257.702 57.7865 257.854 57.9477C258.006 58.109 258.122 58.3006 258.195 58.5099C258.267 58.7192 258.295 58.9415 258.276 59.1623C258.257 59.383 258.191 59.5972 258.083 59.7908C254.948 66.3047 250.176 71.8937 244.235 76.0117C238.293 80.1297 231.385 82.636 224.185 83.2855C216.985 83.935 209.74 82.7055 203.157 79.7173C196.574 76.729 190.88 72.0842 186.629 66.2366L186.692 66.2681Z" fill="#2B2A29"/>
<path d="M246.827 27.9391C250.014 24.7647 254.202 22.7931 258.679 22.3599C263.156 21.9268 267.645 23.0589 271.381 25.5635C275.117 28.0682 277.869 31.7904 279.169 36.0963C280.469 40.4023 280.237 45.0257 278.511 49.1793C276.785 53.3329 273.672 56.7599 269.704 58.8765C265.735 60.9932 261.155 61.6687 256.744 60.7881C252.334 59.9075 248.364 57.5251 245.513 54.0467C242.661 50.5683 241.103 46.209 241.105 41.7111C241.101 39.1512 241.605 36.6161 242.587 34.2522C243.569 31.8883 245.011 29.7426 246.827 27.9391ZM244.485 40.6106H259.499V36.8846H245.255C244.853 38.0922 244.595 39.3427 244.485 40.6106ZM247.629 51.3169V42.8273H244.485C244.696 45.8977 245.782 48.8434 247.613 51.3169H247.629ZM253.572 56.2534V42.8273H249.846V53.7537C250.957 54.7596 252.206 55.6013 253.556 56.2534H253.572ZM259.514 57.8256V42.8273H255.788V57.1338C256.993 57.5129 258.239 57.7503 259.499 57.8413L259.514 57.8256ZM270.221 54.6813H261.731V57.8256C264.794 57.6156 267.734 56.5357 270.205 54.7127L270.221 54.6813ZM275.126 48.77H261.7V52.4803H272.626C273.632 51.369 274.474 50.1196 275.126 48.77ZM276.698 42.8273H261.684V46.5533H275.99C276.371 45.3431 276.608 44.0926 276.698 42.8273ZM273.554 32.121V40.6106H276.698C276.482 37.5386 275.391 34.5927 273.554 32.121ZM267.611 27.1844V40.6106H271.321V29.6841C270.224 28.682 268.991 27.8404 267.658 27.1844H267.611ZM261.668 25.6123V40.6263H265.394V26.3197C264.2 25.9377 262.965 25.6951 261.715 25.5966L261.668 25.6123ZM250.962 28.7566H259.451V25.6123C256.399 25.8281 253.471 26.9077 251.009 28.7251L250.962 28.7566ZM259.451 30.9733H248.446C247.45 32.0944 246.614 33.3483 245.962 34.6993H259.389L259.451 30.9733Z" fill="black"/>
<path d="M18.2212 42.6701C18.929 43.5629 19.3017 44.6754 19.2745 45.8144C19.3178 46.68 19.1382 47.5422 18.7528 48.3185C18.3674 49.0948 17.7892 49.7591 17.0735 50.2479C15.1877 51.4034 12.9926 51.9522 10.7849 51.82H0V30.7532H10.1875C12.2589 30.6362 14.3193 31.1281 16.1145 32.1682C16.796 32.5889 17.3533 33.1834 17.729 33.8907C18.1048 34.598 18.2855 35.3926 18.2526 36.1929C18.2693 37.1673 17.9837 38.1229 17.4351 38.9284C16.8606 39.7525 16.0725 40.4047 15.1555 40.815C16.3428 41.1061 17.4125 41.7534 18.2212 42.6701ZM5.03087 39.5258H9.74731C10.6281 39.5844 11.5044 39.3584 12.247 38.8812C12.5154 38.6423 12.7302 38.3493 12.8773 38.0214C13.0244 37.6936 13.1004 37.3383 13.1004 36.9789C13.1004 36.6196 13.0244 36.2643 12.8773 35.9365C12.7302 35.6086 12.5154 35.3156 12.247 35.0766C11.5144 34.5888 10.6412 34.3567 9.76303 34.4163H5.04659L5.03087 39.5258ZM14.1493 45.5314C14.1493 43.7863 12.9702 42.9217 10.5963 42.9217H5.03087V48.2355H10.5963C12.9702 48.1726 14.1493 47.2765 14.1493 45.5314Z" fill="#2B2A29"/>
<path d="M31.1133 43.519L28.1891 46.4589V51.8199H23.1582V30.7532H28.1891V40.5791L37.8735 30.7532H43.4861L34.4305 40.1861L44.0206 51.8199H38.1093L31.1133 43.519Z" fill="#2B2A29"/>
<path d="M64.8676 30.7532L55.5447 47.3865C54.8017 48.8351 53.7237 50.0855 52.4004 51.0339C51.1781 51.8391 49.7452 52.2657 48.2814 52.2601C47.0619 52.2464 45.8562 52.001 44.7284 51.537L45.9389 47.8424C46.6447 48.0776 47.3807 48.21 48.1242 48.2354C48.7198 48.2469 49.3071 48.0946 49.8221 47.7952C50.3821 47.4568 50.8514 46.9874 51.1899 46.4275L51.3785 46.1917L42.6846 30.7532H48.077L53.894 42.0412L59.8996 30.7532H64.8676Z" fill="#2B2A29"/>
<path d="M81.751 31.6806C83.0772 32.2272 84.2179 33.1441 85.0367 34.3218C85.797 35.5353 86.2002 36.9382 86.2002 38.3701C86.2002 39.802 85.797 41.205 85.0367 42.4184C84.2219 43.5998 83.0799 44.5178 81.751 45.0596C80.1491 45.708 78.4321 46.0236 76.7044 45.9872H72.3181V51.8198H67.2715V30.7531H76.7044C78.4321 30.7166 80.1491 31.0322 81.751 31.6806ZM79.8801 41.1135C80.2834 40.7968 80.6031 40.3863 80.8113 39.9177C81.0196 39.4491 81.1101 38.9367 81.0749 38.4252C81.1059 37.9095 81.0137 37.3939 80.806 36.921C80.5982 36.448 80.2808 36.0313 79.8801 35.7053C78.8674 35.008 77.6479 34.6754 76.4214 34.762H72.3181V42.0568H76.4371C77.6744 42.1334 78.9006 41.7839 79.9115 41.0664L79.8801 41.1135Z" fill="#2B2A29"/>
<path d="M94.1872 50.7353C92.4398 49.8604 90.9661 48.5226 89.9267 46.8678C88.9224 45.1707 88.3926 43.235 88.3926 41.2631C88.3926 39.2911 88.9224 37.3554 89.9267 35.6584C90.9661 34.0035 92.4398 32.6658 94.1872 31.7909C96.0646 30.8337 98.1487 30.3532 100.256 30.3917C101.997 30.3804 103.724 30.7172 105.334 31.3821C106.822 31.989 108.146 32.9368 109.201 34.1491L105.947 37.0261C105.276 36.2396 104.442 35.6086 103.502 35.177C102.563 34.7453 101.541 34.5233 100.507 34.5264C99.25 34.5031 98.0068 34.7949 96.8913 35.3754C95.8498 35.9151 94.9869 36.7451 94.4073 37.765C93.8197 38.8316 93.5115 40.0296 93.5115 41.2473C93.5115 42.4651 93.8197 43.6631 94.4073 44.7296C94.9893 45.7437 95.8519 46.5681 96.8913 47.1036C98.0057 47.6889 99.2487 47.9861 100.507 47.9683C101.547 47.9927 102.58 47.7869 103.531 47.3656C104.482 46.9443 105.329 46.318 106.01 45.5314L109.264 48.4085C108.192 49.6297 106.845 50.5782 105.334 51.1755C103.696 51.8363 101.943 52.1624 100.177 52.1345C98.0962 52.1639 96.0397 51.6835 94.1872 50.7353Z" fill="#2B2A29"/>
<path d="M112.564 30.7532H117.595V51.8199H112.564V30.7532Z" fill="#2B2A29"/>
<path d="M147.405 42.8588C148.031 43.7336 148.362 44.7857 148.348 45.8616C148.353 46.4994 148.232 47.1318 147.992 47.7227C147.752 48.3136 147.397 48.8512 146.949 49.3046C145.903 50.3487 144.611 51.1113 143.191 51.5213C141.498 52.0556 139.731 52.3157 137.956 52.2917C134.945 52.3042 131.966 51.6772 129.215 50.4523L131.274 45.5315C132.291 45.9347 133.344 46.24 134.419 46.4433C135.408 46.6418 136.413 46.747 137.421 46.7577C138.372 46.7934 139.319 46.6329 140.204 46.2861C140.504 46.1852 140.766 45.9962 140.957 45.7438C141.148 45.4913 141.258 45.1872 141.273 44.8712C141.273 44.0222 140.581 43.6134 139.198 43.6134H133.444V38.5354H138.522C139.001 38.5661 139.478 38.451 139.89 38.2053C140.042 38.1011 140.165 37.9599 140.248 37.7948C140.33 37.6297 140.369 37.4463 140.361 37.262C140.357 37.0025 140.275 36.7503 140.127 36.5375C139.979 36.3246 139.77 36.1609 139.528 36.0671C138.844 35.7533 138.095 35.6078 137.343 35.6427C136.425 35.6559 135.512 35.7773 134.623 36.0043C133.654 36.2359 132.715 36.5788 131.825 37.0262L129.749 31.7752C132.13 30.7045 134.717 30.1679 137.327 30.203C139.044 30.1886 140.752 30.4432 142.389 30.9577C143.787 31.3708 145.061 32.1212 146.1 33.1429C146.87 33.8997 147.358 34.898 147.481 35.9711C147.604 37.0442 147.355 38.127 146.776 39.0385C146.272 39.797 145.578 40.4096 144.763 40.815C145.821 41.229 146.738 41.9385 147.405 42.8588Z" fill="black"/>
<path d="M168.345 46.4275V51.8199H150.926V30.7532H168.031V36.0985H157.843V38.5667H166.726V43.6605H157.843V46.4275H168.345Z" fill="black"/>
<path d="M190.009 51.8199V42.2456L185.45 49.9334H182.306L177.652 42.5286V51.8199H171.19V30.7532H177.023L183.941 41.9469L190.606 30.7532H196.439L196.518 51.8199H190.009Z" fill="black"/>
<path d="M220.683 30.7532V51.8199H213.718V36.24H208.907V38.6768C208.885 41.1564 208.643 43.6291 208.184 46.0659C207.914 47.7286 207.191 49.2845 206.093 50.5622C205.526 51.1119 204.849 51.536 204.107 51.8069C203.364 52.0778 202.574 52.1893 201.785 52.1344C200.754 52.1582 199.724 52.0526 198.72 51.8199L199.081 46.1445C199.339 46.2068 199.603 46.2384 199.867 46.2388C200.204 46.2518 200.538 46.1758 200.837 46.0185C201.135 45.8612 201.386 45.6281 201.565 45.3427C202 44.6069 202.274 43.7869 202.367 42.9373C202.493 41.9311 202.603 40.6263 202.666 38.9912L202.933 30.8003L220.683 30.7532Z" fill="black"/>
<path d="M224.409 30.7532H231.374V51.8199H224.409V30.7532Z" fill="black"/>
</svg>
