<svg width="280" height="65" viewBox="0 0 280 65" fill="none" xmlns="http://www.w3.org/2000/svg">
<mask id="mask0_202_72" style="mask-type:luminance" maskUnits="userSpaceOnUse" x="0" y="0" width="280" height="65">
<path d="M280 0H0V64.7934H280V0Z" fill="white"/>
</mask>
<g mask="url(#mask0_202_72)">
<path d="M75.3057 47.9703H89.4893V43.4394H80.4313V36.914H89.1693V32.3831H80.4313V27.2072H89.5218V22.6763H75.3057V47.9703Z" fill="black"/>
<path d="M97.6147 21.4894H92.8037V47.9703H97.6147V21.4894Z" fill="black"/>
<path d="M106.043 31.4021H101.232V47.9703H106.043V31.4021Z" fill="black"/>
<path d="M127.163 31.4021H120.98L117.568 35.5645L114.325 31.4021H108.342L114.661 39.0006L106.829 47.9703H113.05L117.568 42.4531L122.201 47.9703H128.335L120.649 39.0061L127.163 31.4021Z" fill="black"/>
<path d="M134.003 31.4021H129.198V47.9703H134.003V31.4021Z" fill="black"/>
<path d="M146.729 31.0336C145.834 31.0375 144.956 31.2665 144.174 31.6994C143.392 32.1323 142.731 32.7551 142.254 33.5104V31.4021H137.524V47.9703H142.335V40.1063C142.335 38.4803 142.731 37.2392 143.507 36.4317C143.836 36.1018 144.231 35.8438 144.664 35.674C145.098 35.5042 145.563 35.4263 146.029 35.4453C146.527 35.4333 147.021 35.5449 147.467 35.7704L147.737 35.9168L148.86 31.5159L148.67 31.4346C148.058 31.1696 147.396 31.0331 146.729 31.0336Z" fill="black"/>
<path d="M176.093 37.4939C176.093 41.8298 174.467 43.9381 171.06 43.9381C167.654 43.9381 166.042 41.8298 166.042 37.4939V22.6763H160.912V38.4425C160.912 41.5913 161.823 44.0952 163.624 45.8783C165.424 47.6614 167.925 48.5882 171.06 48.5882C174.195 48.5882 176.69 47.6832 178.497 45.8783C180.303 44.0736 181.209 41.5913 181.209 38.4425V22.6763H176.077L176.093 37.4939Z" fill="black"/>
<path d="M201.792 31.4021H195.174L189.506 36.979V21.4894H184.695V47.9703H189.506V41.3637L195.701 47.9703H202.409L193.704 38.979L201.792 31.4021Z" fill="black"/>
<path d="M214.387 31.4346C213.774 31.1615 213.111 31.0175 212.44 31.012C211.546 31.0168 210.669 31.2463 209.888 31.6791C209.107 32.1119 208.448 32.7343 207.971 33.4888V31.4021H203.241V47.9704H208.052V40.1063C208.052 38.4803 208.448 37.2393 209.223 36.4317C209.553 36.1018 209.947 35.8438 210.381 35.6741C210.815 35.5042 211.28 35.4264 211.745 35.4453C212.237 35.4367 212.723 35.5483 213.162 35.7705L213.432 35.9168L214.556 31.516L214.387 31.4346Z" fill="black"/>
<path d="M227.654 33.2015C227.013 32.4594 226.217 31.8677 225.321 31.4686C224.427 31.0696 223.454 30.8729 222.474 30.8927C221.388 30.8658 220.309 31.0755 219.313 31.5068C218.317 31.9383 217.426 32.5813 216.703 33.3913C215.175 35.1247 214.369 37.3755 214.447 39.6835C214.386 41.9954 215.202 44.2446 216.729 45.9813C217.44 46.8045 218.323 47.4615 219.315 47.9054C220.308 48.3495 221.386 48.5696 222.474 48.5503C223.466 48.5666 224.447 48.3563 225.345 47.9355C226.242 47.5147 227.033 46.8946 227.654 46.1222V47.9542H232.394V31.4021H227.654V33.2015ZM226.471 36.4533C226.873 36.8906 227.185 37.403 227.388 37.9612C227.59 38.5193 227.681 39.1121 227.654 39.7053C227.697 40.8956 227.286 42.058 226.504 42.9571C226.116 43.3571 225.653 43.6751 225.141 43.8923C224.628 44.1095 224.078 44.2215 223.521 44.2215C222.963 44.2215 222.413 44.1095 221.9 43.8923C221.388 43.6751 220.925 43.3571 220.537 42.9571C219.787 42.039 219.378 40.8903 219.378 39.7053C219.378 38.5202 219.787 37.3715 220.537 36.4533C220.906 36.0472 221.36 35.7268 221.865 35.5152C222.372 35.3035 222.918 35.2057 223.467 35.2285C224.026 35.2113 224.582 35.3109 225.1 35.5208C225.619 35.7308 226.087 36.0466 226.476 36.448L226.471 36.4533Z" fill="black"/>
<path d="M240.693 31.4021H235.888V47.9703H240.693V31.4021Z" fill="black"/>
<path d="M253.839 30.8927C252.908 30.8653 251.981 31.0456 251.127 31.4206C250.273 31.7956 249.514 32.3558 248.904 33.0607V31.4022H244.175V47.9704H248.958V39.4994C248.958 36.4697 250.043 34.9955 252.289 34.9955C254.182 34.9955 255.104 36.1391 255.104 38.4858V47.9704H259.915V37.83C259.915 33.2341 257.865 30.8927 253.839 30.8927Z" fill="black"/>
<path d="M280 39.6619C280.02 38.5171 279.808 37.3801 279.379 36.3187C278.95 35.2572 278.31 34.2931 277.5 33.4834C275.787 31.8096 273.485 30.8726 271.089 30.8726C268.693 30.8726 266.391 31.8096 264.678 33.4834C263.067 35.1437 262.166 37.3656 262.166 39.6782C262.166 41.9908 263.067 44.2126 264.678 45.8729C265.511 46.7297 266.511 47.4054 267.617 47.8577C268.723 48.3101 269.911 48.5292 271.105 48.5016C275.32 48.5016 278.206 46.7455 279.691 43.2769L279.811 42.9951L274.848 42.1929L274.766 42.3447C274.1 43.6183 272.901 44.2416 271.105 44.2416C270.608 44.2588 270.112 44.1771 269.646 44.0012C269.181 43.8254 268.755 43.5589 268.393 43.2173C267.683 42.4967 267.226 41.5645 267.091 40.5616H279.978L280 39.6619ZM271.105 34.9359C273.183 34.9359 274.473 35.7055 275.054 37.2826H267.33C267.641 36.5504 268.17 35.932 268.846 35.512C269.521 35.0919 270.31 34.8907 271.105 34.9359Z" fill="black"/>
<path d="M106.043 22.7739H101.232V27.5758H106.043V22.7739Z" fill="black"/>
<path d="M134.003 22.7739H129.198V27.5758H134.003V22.7739Z" fill="black"/>
<path d="M240.693 22.7739H235.888V27.5758H240.693V22.7739Z" fill="black"/>
<path d="M66.0857 7.74489H65.3155L64.2306 6.38994H64.0028V7.74489H63.3574V4.73149H64.5452C64.8175 4.72287 65.0886 4.76894 65.3425 4.86699C65.4892 4.91423 65.6163 5.00816 65.7044 5.13442C65.7926 5.26068 65.8369 5.41232 65.8307 5.56613C65.8307 6.03224 65.5161 6.30323 64.8816 6.38994L66.0857 7.74489ZM65.169 5.57697C65.169 5.29514 64.952 5.15423 64.5018 5.15423H64.0028V6.0214H64.4802C64.952 6.01056 65.169 5.8588 65.169 5.56072V5.57697Z" fill="black"/>
<path d="M64.5724 8.82341C64.0922 8.82341 63.6225 8.68114 63.2231 8.41458C62.8236 8.14802 62.5121 7.76913 62.328 7.32578C62.144 6.88242 62.0956 6.3945 62.1888 5.92365C62.2822 5.4528 62.513 5.02015 62.8524 4.68037C63.1916 4.34058 63.6241 4.10891 64.0952 4.0146C64.5661 3.92031 65.0546 3.96762 65.4986 4.15056C65.9427 4.3335 66.3225 4.64387 66.5903 5.04246C66.8579 5.44103 67.0014 5.90994 67.0024 6.38993C67.0024 7.03439 66.7466 7.65253 66.2911 8.10875C65.8354 8.56495 65.2175 8.82197 64.5724 8.82341ZM64.5724 4.22202C64.1434 4.22202 63.7239 4.34917 63.3672 4.58738C63.0103 4.8256 62.7323 5.16418 62.568 5.56031C62.4038 5.95644 62.3609 6.39233 62.4446 6.81287C62.5283 7.2334 62.735 7.61968 63.0383 7.92287C63.3418 8.22606 63.7284 8.43254 64.1492 8.51618C64.5701 8.59983 65.0063 8.5569 65.4027 8.39282C65.7992 8.22873 66.138 7.95087 66.3765 7.59436C66.6148 7.23784 66.7421 6.8187 66.7421 6.38993C66.7428 6.10478 66.6871 5.82229 66.5785 5.55864C66.4697 5.29499 66.3101 5.05537 66.1085 4.85348C65.9069 4.6516 65.6676 4.49142 65.404 4.38214C65.1404 4.27285 64.8579 4.2166 64.5724 4.2166V4.22202Z" fill="black"/>
<path d="M29.9508 11.6364C32.3536 15.1537 34.5449 18.2268 35.3749 22.0043C35.7474 23.4721 35.7146 25.0134 35.28 26.4641C34.8454 27.9148 34.0253 29.2206 32.9069 30.2424C29.7123 33.3263 30.5312 33.1583 27.3474 30.3074C24.2503 27.5325 23.5995 23.9663 25.2917 20.2158C26.5772 17.3434 28.2858 14.6768 29.9508 11.6364Z" fill="black"/>
<path d="M28.3676 39.9546L27.7764 39.4397C27.234 38.9735 25.4061 38.605 23.4372 38.2039C19.9713 37.4994 16.0173 36.6972 15.144 34.6865C14.9948 34.2978 14.9453 33.8778 15.0003 33.4649C15.0553 33.0522 15.2129 32.6598 15.4586 32.3235C16.2722 31.0119 17.9536 30.2532 20.069 30.2532C21.2216 30.2325 22.3658 30.4536 23.4276 30.9023C24.4894 31.3508 25.4452 32.017 26.2334 32.8577C27.0216 33.6984 27.6245 34.6949 28.0033 35.7828C28.3822 36.8709 28.5285 38.0262 28.4327 39.1741L28.3676 39.9546Z" fill="black"/>
<path d="M28.98 0C39.0956 0.040865 49.1567 1.48177 58.8767 4.28162C59.2292 4.37918 59.7174 4.8236 59.7337 5.14878C60.2164 17.7878 58.1064 29.9443 52.5469 41.3745C47.8775 51.1227 40.3151 59.1959 30.8892 64.4953C30.6017 64.6998 30.2576 64.8096 29.9047 64.8096C29.5519 64.8096 29.2078 64.6998 28.9203 64.4953C16.3258 57.2762 8.17368 46.5559 3.68809 32.8926C0.764586 24.0042 -0.255114 14.8718 0.0540501 5.55527C0.0141819 5.24185 0.0959631 4.9251 0.282588 4.67006C0.469212 4.41504 0.746504 4.24113 1.05748 4.18407C7.57799 2.06332 14.3414 0.777606 21.1857 0.357705C23.7783 0.195111 26.3819 0.119235 28.98 0ZM29.3379 55.6502C29.7664 50.7724 30.0051 46.274 30.6125 41.8244C30.9264 39.6664 31.609 37.5784 32.6303 35.6513C34.6371 31.8574 39.4807 30.5187 42.8869 32.5675C43.8144 33.1094 44.4816 33.8844 44.3676 35.028C44.3538 35.5647 44.17 36.0832 43.8424 36.5088C43.515 36.9344 43.0607 37.2452 42.5452 37.3964C41.9732 37.5934 41.39 37.7563 40.7986 37.8842C38.9708 38.2257 37.1267 38.5237 35.2988 38.8597C34.0568 39.0874 33.3354 39.8137 33.3842 41.1198C33.3848 42.6154 33.4862 44.1093 33.6879 45.5912C34.035 47.5964 34.6045 49.5584 35.1198 51.7263C38.3219 48.8828 41.0661 45.5631 43.2557 41.8839C48.8966 32.5348 51.3917 22.2861 51.8744 11.4628C51.9011 11.3363 51.8991 11.2055 51.8687 11.0799C51.8383 10.9542 51.7801 10.837 51.6984 10.7368C51.6168 10.6365 51.5137 10.5557 51.3969 10.5003C51.28 10.445 51.1521 10.4165 51.0228 10.4168C47.5515 9.80979 44.0964 9.07271 40.6089 8.64996C34.7673 7.92371 28.8769 7.47929 22.9919 8.12966C18.2893 8.67163 13.6084 9.43583 8.92219 10.1133C8.17911 10.2217 7.83741 10.5631 7.92418 11.4249C8.32013 14.8068 8.46658 18.2213 9.00897 21.5706C10.8477 32.5186 15.1434 42.2742 23.0787 50.2359C24.9824 52.1436 27.1574 53.7858 29.3379 55.6502Z" fill="black"/>
</g>
</svg>
