<svg width="188" height="110" viewBox="0 0 188 110" fill="none" xmlns="http://www.w3.org/2000/svg">
<path d="M157.997 95.0448C157.962 94.8984 157.872 94.8041 157.728 94.7615C157.515 94.5097 157.301 94.2583 157.089 94.0065C156.835 93.7546 156.686 93.4023 156.347 93.2331C155.908 92.5873 155.36 92.0376 154.818 91.4827C154.534 91.1738 154.252 90.8654 153.968 90.5565C153.837 90.2259 153.527 90.0625 153.291 89.83C153.15 89.4553 152.882 89.1895 152.556 88.9739C152.502 88.9226 152.443 88.8748 152.394 88.8187C150.4 86.4873 148.362 84.196 146.261 81.9599C145.941 81.6186 146.019 81.3107 146.288 80.9824C146.697 80.4816 147.18 80.0388 147.502 79.468C147.547 79.4742 147.579 79.4559 147.598 79.4138C149.006 77.7785 150.414 76.1432 151.823 74.5084C152.225 74.0936 152.686 73.7243 152.901 73.1587C152.901 73.1587 152.902 73.1587 152.902 73.1582C152.902 73.1577 152.902 73.1573 152.902 73.1563C152.902 73.1573 152.902 73.1578 152.902 73.1587C153.08 73.1273 153.167 72.9987 153.234 72.8489C154.811 71.0506 156.388 69.2534 157.962 67.4527C158.09 67.3058 158.254 67.1405 158.147 66.9244C158.054 66.7364 157.843 66.7823 157.674 66.7832C156.172 66.79 154.669 66.8016 153.167 66.8118C152.822 66.7987 152.469 66.8263 152.132 66.7629C151.533 66.6498 151.125 66.8446 150.879 67.3962C150.475 67.7486 150.148 68.1657 149.858 68.6134L149.857 68.6153C149.604 68.9136 149.351 69.2123 149.098 69.511L149.094 69.5043C148.813 69.7846 148.484 70.0239 148.321 70.4053C148.049 70.8375 147.561 71.098 147.377 71.5983V71.5988C147.197 71.798 147.017 71.9976 146.838 72.1968C145.322 73.8519 143.896 75.582 142.477 77.3183C142.316 77.5204 142.155 77.7229 141.994 77.925C141.42 78.5959 140.843 79.2649 140.273 79.9393C140.141 80.0944 139.993 80.2854 139.795 80.2428C139.531 80.1858 139.646 79.9141 139.631 79.7333C139.608 79.4375 139.615 79.1393 139.609 78.8415C139.608 75.0319 139.608 71.2222 139.607 67.4121C139.743 66.8002 139.292 66.704 138.9 66.7334C137.547 66.834 136.195 66.7992 134.847 66.7596C134.081 66.7373 133.883 66.9597 133.886 67.7201C133.914 75.4645 133.902 83.2099 133.904 90.9544C133.904 92.0318 133.92 93.1084 133.929 94.1858C133.929 94.2864 133.93 94.3869 133.93 94.4875C133.866 95.694 133.866 95.6935 135.042 95.6916C135.994 95.6906 136.946 95.6916 137.898 95.6916C139.698 95.6916 139.698 95.6916 139.607 93.8837C139.607 92.2808 139.608 90.6769 139.608 89.0739C139.61 88.3131 139.555 87.5353 140.23 86.9746C140.476 86.9209 140.545 86.6831 140.693 86.5284C140.882 86.5052 140.993 86.4153 140.965 86.2079C141.069 86.0735 141.155 85.9188 141.279 85.8082C142.015 85.1556 142.017 85.1599 142.669 85.899C144.049 87.4633 145.431 89.0266 146.811 90.5899C146.972 90.79 147.133 90.9896 147.294 91.1893C147.684 91.6422 148.075 92.0947 148.465 92.5476H148.466C148.663 93.0001 149.087 93.2572 149.387 93.6212C149.86 94.1936 150.336 94.764 150.806 95.3392C150.991 95.5654 151.215 95.6931 151.513 95.6926C153.606 95.6921 155.699 95.6935 157.793 95.6964C157.974 95.6969 158.171 95.6887 158.25 95.5123C158.352 95.2817 158.181 95.1478 157.997 95.0448ZM145.312 74.6568C145.322 74.6476 145.332 74.6379 145.343 74.6282C145.343 74.6292 145.342 74.6297 145.342 74.6302C145.332 74.6384 145.323 74.6481 145.312 74.6568C145.312 74.6572 145.312 74.6572 145.312 74.6568ZM145.342 74.6316C145.342 74.6316 145.342 74.6311 145.342 74.6306C145.343 74.6302 145.344 74.6297 145.345 74.6297C145.344 74.6302 145.343 74.6311 145.342 74.6316Z" fill="black"/>
<path d="M183.196 80.6319C182.181 80.1074 181.13 79.6844 180.002 79.4737C178.668 79.0802 177.333 78.6891 175.947 78.5151C174.94 78.2251 173.933 77.936 172.926 77.6464C172.699 77.5459 172.474 77.44 172.245 77.3462C170.058 76.4491 169.464 74.6852 170.689 72.7221C171.367 72.0831 172.155 71.6828 173.062 71.4252C174.421 71.0394 175.773 71.2047 177.133 71.285C177.633 71.3986 178.133 71.5127 178.633 71.6262C179.285 71.8327 179.937 72.0391 180.59 72.245C181.587 72.8342 182.664 73.2853 183.613 73.9615C183.773 74.0756 183.929 74.05 184.062 73.8721C184.619 73.1233 185.186 72.3813 185.75 71.6369C186.165 71.2946 186.487 70.8775 186.74 70.4047C186.824 70.2563 186.85 70.1103 186.725 69.9697C186.374 69.6666 185.976 69.4413 185.56 69.2417V69.2422C184.737 68.6722 183.84 68.2618 182.904 67.9022C178.579 66.2398 174.206 65.8893 169.792 67.4507C168.457 67.9239 167.224 68.663 166.302 69.8053C163.453 72.3895 163.436 78.1347 166.723 80.3708C166.723 80.3708 166.727 80.3728 166.728 80.3728C168.256 81.6944 170.113 82.2812 172.025 82.7433C172.102 82.753 172.179 82.7627 172.255 82.7723C173.423 83.2992 174.699 83.3867 175.926 83.6729C177.087 84.0857 178.317 84.2679 179.462 84.7417C181.364 85.5281 182.272 86.3233 181.985 88.4764C181.956 88.6156 181.927 88.7548 181.897 88.894C181.628 89.1169 181.551 89.4673 181.303 89.723C180.469 90.5796 179.429 90.9513 178.297 91.1558C178.255 91.137 178.221 91.1461 178.194 91.1843C177.04 91.3521 175.884 91.2728 174.728 91.2124C174.491 91.1955 174.254 91.1785 174.017 91.1616C172.467 90.7865 170.962 90.2789 169.503 89.636C169.484 89.6505 169.475 89.6689 169.462 89.6868C169.462 89.6853 169.461 89.6844 169.461 89.6834L169.503 89.636C169.182 89.3798 168.825 89.1865 168.442 89.041C168.092 88.6659 167.613 88.4817 167.198 88.2018C167.185 88.1593 167.155 88.1414 167.111 88.1477C166.713 87.6628 166.384 87.5202 165.879 88.1167C165.033 89.1169 164.09 90.0363 163.172 90.9741C162.97 91.18 162.916 91.3265 163.161 91.5145C164.84 92.8061 166.607 93.9373 168.675 94.5135C168.675 94.513 168.675 94.513 168.675 94.513C168.675 94.513 168.675 94.513 168.675 94.5135C168.675 94.5135 168.68 94.5135 168.68 94.5139C168.964 94.8489 169.413 94.7851 169.762 94.963C169.935 95.1066 170.142 95.1037 170.35 95.0979C170.632 95.2743 170.944 95.3468 171.273 95.3584C171.363 95.3734 171.453 95.3889 171.542 95.4039C175.548 96.302 179.49 96.3238 183.285 94.5043C184.896 93.7313 186.22 92.6065 187.028 90.9963C188.884 87.2954 188.018 82.5577 183.196 80.6319ZM176.839 71.0206C176.839 71.021 176.839 71.0215 176.839 71.022C176.838 71.0215 176.838 71.021 176.838 71.0206C176.838 71.0206 176.839 71.0206 176.839 71.0206Z" fill="black"/>
<path d="M56.4696 91.4697C56.4841 90.4893 56.4256 90.4057 55.4307 90.4062C50.4977 90.4081 45.5647 90.4115 40.6321 90.4149C39.5653 90.4159 39.5653 90.4164 39.5054 89.3732C39.5116 89.3485 39.5232 89.3244 39.5232 89.3002C39.529 82.0058 39.531 74.7114 39.546 67.417C39.5469 66.9138 39.342 66.7668 38.8702 66.775C37.6419 66.7963 36.4121 66.8195 35.1858 66.7692C34.5457 66.7426 34.3838 66.9607 34.3848 67.5726C34.3998 76.222 34.3935 84.8704 34.3935 93.5197C34.3935 93.5937 34.4133 93.6681 34.4234 93.7421C34.4152 94.0418 34.4022 94.3415 34.3993 94.6412C34.3891 95.6926 34.3901 95.6936 35.469 95.6936C42.1548 95.6936 48.8406 95.6936 55.5265 95.6926C56.3985 95.6926 56.5029 95.5766 56.4913 94.6982C56.4758 93.6222 56.4536 92.5452 56.4696 91.4697Z" fill="black"/>
<path d="M93.2295 93.8846C93.2436 93.6114 93.2701 93.3374 93.2701 93.0642C93.2726 84.7871 93.2721 76.5104 93.2706 68.2333C93.2706 67.9592 93.2508 67.6846 93.2402 67.411C93.3659 66.8551 93.0333 66.7792 92.5992 66.7817C91.3496 66.7884 90.0991 66.8063 88.85 66.7754C88.3337 66.7628 87.9847 66.932 87.7677 67.3903C87.3684 67.8403 86.9686 68.2894 86.5693 68.7394C85.4281 69.9929 84.2868 71.2468 83.1455 72.5002C82.7941 72.9058 82.2962 73.1866 82.1047 73.728C81.6653 74.0422 81.3758 74.4942 81.0345 74.8978C80.8373 75.1091 80.6401 75.3198 80.4428 75.5306C79.9406 76.0773 79.4383 76.6235 78.9366 77.1698C78.1805 77.4714 78.0674 76.6274 77.5981 76.4176C77.4434 76.2238 77.2892 76.0295 77.1345 75.8356C76.7975 75.476 76.5201 75.0559 76.0817 74.7983C75.7297 74.3477 75.3802 73.8948 74.8944 73.5743C74.6155 73.0087 74.1292 72.6269 73.6855 72.2078C72.0738 70.4796 70.4603 68.7525 68.852 67.0205C68.6833 66.8387 68.4895 66.7778 68.2521 66.7812C67.2534 66.7962 66.2548 66.8058 65.2561 66.817C65.1323 66.801 65.0086 66.7831 64.8848 66.7677C63.7203 66.628 63.5946 66.7386 63.5946 67.9041C63.5946 75.6205 63.5946 83.3364 63.5946 91.0528C63.5946 97.0653 63.6053 103.078 63.583 109.09C63.5806 109.759 63.7247 110.034 64.4527 109.997C65.6273 109.936 66.8092 109.938 67.9834 109.995C68.7263 110.031 68.9086 109.764 68.9071 109.054C68.8854 100.185 68.8917 91.3173 68.8888 82.4484C68.8883 81.4469 68.8718 80.4453 68.8631 79.4437C69.0024 78.4832 68.735 77.4864 69.0918 76.4602C69.4355 76.7753 69.7352 77.0301 70.0122 77.3071C71.5349 78.8317 73.0522 80.3616 74.571 81.8891C74.6624 81.981 74.7543 82.0728 74.8461 82.1647C74.9674 82.4586 75.2285 82.6181 75.4624 82.8033C75.709 83.1373 75.9927 83.4355 76.3287 83.6811C76.4993 83.8725 76.6699 84.0644 76.8401 84.2559C77.0455 84.4947 77.2505 84.7339 77.4564 84.9718C77.9417 85.533 78.9172 85.6316 79.5756 85.2154C79.6124 85.2018 79.6476 85.182 79.6815 85.1516L79.6897 85.1438C80.0624 84.95 80.2959 84.6237 80.5095 84.279C80.7947 83.9827 81.0804 83.6859 81.3656 83.3896C81.5638 83.1788 81.7615 82.9691 81.9597 82.7588C82.1584 82.5558 82.3571 82.3532 82.5557 82.1507C82.707 82.0018 82.8583 81.8534 83.0096 81.705C83.4075 81.2462 83.9697 80.9359 84.2292 80.3529C84.8064 79.8744 85.3473 79.3629 85.7195 78.6997C85.8119 78.6345 85.9047 78.5692 85.997 78.5044C86.3499 78.3 86.5776 77.9737 86.8154 77.658C87.0721 77.541 87.2089 77.295 87.4071 77.1166C87.556 76.9832 87.7454 76.6642 87.9915 77.0344C87.9905 77.3356 87.9896 77.6372 87.9886 77.9389C87.9813 83.6642 87.9775 89.389 87.9606 95.1138C87.9591 95.5958 88.18 95.7026 88.6049 95.6944C89.6046 95.6765 90.6052 95.6857 91.6049 95.691C93.3683 95.7026 93.3683 95.705 93.2295 93.8846ZM81.0432 75.5325C81.0451 75.5325 81.0475 75.5325 81.05 75.5325C81.05 75.5325 81.0504 75.5325 81.0504 75.533C81.0504 75.533 81.0504 75.533 81.05 75.533C81.0504 75.5354 81.0505 75.5378 81.0509 75.5403C81.049 75.5378 81.0461 75.5349 81.0432 75.5325ZM83.7937 80.4056C83.7956 80.4075 83.7981 80.409 83.8005 80.4109C83.8058 80.423 83.8087 80.4346 83.8101 80.4453C83.8063 80.4327 83.8005 80.4192 83.7937 80.4056Z" fill="black"/>
<path d="M124.941 76.2525C124.937 74.7173 124.644 73.2274 123.835 71.8831C123.834 71.8836 123.833 71.8841 123.832 71.8851C123.833 71.8836 123.834 71.8831 123.834 71.8817C123.501 71.1199 123.008 70.4653 122.442 69.8669C120.84 68.1798 118.833 67.2488 116.583 66.8167C115.06 66.5271 113.524 66.4764 111.99 66.7785C111.99 66.7785 111.989 66.7785 111.988 66.7785C111.808 66.7949 111.627 66.8119 111.447 66.8288C111.448 66.8297 111.449 66.8302 111.45 66.8312C111.45 66.8312 111.449 66.8307 111.448 66.8297C110.641 66.8433 109.911 67.1304 109.19 67.447C109.19 67.448 109.189 67.449 109.189 67.4499C109.189 67.449 109.189 67.448 109.188 67.4465C108.727 67.5074 108.331 67.7081 107.982 68.0092C107.982 68.0092 107.984 68.0092 107.985 68.0092C107.985 68.0092 107.983 68.0097 107.982 68.0102C106.169 68.8663 104.886 70.2367 104.063 72.0499V72.0518C103.922 72.2384 103.73 72.4013 103.776 72.674H103.777L103.776 72.6749C103.411 73.531 103.188 74.4238 103.172 75.3524C103.14 77.3566 103.132 79.3602 103.129 81.3644C103.126 85.8469 103.143 90.3323 103.121 94.8148C103.118 95.5046 103.33 95.7347 104.028 95.7057C105.278 95.6549 106.531 95.6999 107.784 95.684C108.02 95.6815 108.369 95.8507 108.449 95.4157C108.45 95.4142 108.45 95.4128 108.45 95.4108C108.649 94.8825 108.546 94.3266 108.555 93.7895C108.587 91.8038 108.689 89.8141 108.455 87.8327C108.455 87.8269 108.455 87.8216 108.454 87.8158C108.457 87.4029 108.843 87.4402 109.071 87.2956L109.072 87.2952C109.262 87.2927 109.452 87.2898 109.64 87.285L109.642 87.284L109.641 87.2855C109.759 87.3222 109.876 87.3914 109.994 87.3918C112.466 87.3981 114.938 87.3971 117.411 87.3967C117.635 87.3967 117.865 87.4286 118.064 87.2855C118.56 87.342 119.057 87.3986 119.553 87.4552C119.56 89.598 119.568 91.7409 119.575 93.8838L119.574 93.8848C119.564 94.3087 119.553 94.7326 119.54 95.1537C119.526 95.5665 119.709 95.7144 120.13 95.7067C121.6 95.6767 123.067 95.6796 124.537 95.669L124.536 95.6704C124.971 95.6342 124.941 95.3142 124.941 95.0091C124.943 88.7569 124.96 82.5047 124.941 76.2525ZM119.542 81.8154C116.027 81.9793 112.511 81.8425 108.994 81.8932C108.65 81.899 108.575 81.7352 108.586 81.4345C108.656 79.2674 108.444 77.0965 108.723 74.9348C108.991 74.4867 109.256 74.0386 109.525 73.5939L109.983 73.1428C111.483 71.9547 113.248 71.8391 115.053 71.9058C115.147 71.9141 115.241 71.9218 115.335 71.9329C116.191 72.2679 117.081 72.5231 117.811 73.124C119.045 74.1411 119.482 75.5091 119.571 77.038C119.56 78.6284 119.552 80.2221 119.542 81.8154Z" fill="black"/>
<path d="M26.3974 76.3964C26.3036 75.7685 26.0836 75.1841 25.7883 74.6262C25.4852 73.7996 25.0907 73.0378 24.6267 72.319C24.1602 71.6002 23.6232 70.9215 23.0358 70.2641C21.6703 68.7409 20.0446 67.718 18.1294 67.0959H18.1265C17.4048 66.7421 16.6299 66.5971 15.8386 66.527C15.6912 66.5168 15.5437 66.5028 15.3958 66.4922C14.8646 66.3689 14.3362 66.3099 13.805 66.3099C13.2602 66.3099 12.7183 66.3718 12.1735 66.4762C11.3687 66.4308 10.5991 66.6101 9.83438 66.8301H9.83148C8.82022 67.0906 7.83555 67.4043 6.96641 68.0081H6.96351C6.4835 68.2039 6.01412 68.4078 5.73472 68.8854C5.34317 69.0358 5.02123 69.2635 4.737 69.5371C4.45518 69.8083 4.21107 70.1249 3.96695 70.4439C3.65323 70.5942 3.43039 70.8195 3.34193 71.1656C3.01177 71.4605 2.72753 71.7877 2.57478 72.2146C2.46456 72.2494 2.43266 72.3325 2.43266 72.4287V72.4635C2.23689 72.6516 2.0706 72.8555 2.00051 73.1233C1.99809 73.1233 1.99809 73.1233 1.99809 73.1233C1.76219 73.5043 1.49923 73.8721 1.39965 74.3222C1.16375 74.6359 0.999885 74.9796 0.973299 75.3794C0.973299 75.3823 0.973299 75.3822 0.973299 75.3822C0.418363 76.6782 0.184885 78.0462 0.0717715 79.4408V79.4437C0.00748017 80.2457 -0.0408622 81.0428 0.0504991 81.8476V81.8501C0.0828864 85.7936 1.35711 89.2489 4.08538 92.1381C4.40491 92.6234 4.84721 92.9724 5.33012 93.2779C5.55538 93.5728 5.81835 93.8145 6.19394 93.8977C7.16218 94.6058 8.19278 95.1129 9.27896 95.4479C10.3656 95.7858 11.5055 95.9526 12.6912 95.9796C13.4932 96.0517 14.2951 96.0357 15.0976 95.9579C16.0392 95.926 16.9509 95.7408 17.8341 95.403C18.1023 95.3894 18.3518 95.3169 18.5664 95.1453C18.7544 95.0781 18.9449 95.0191 19.13 94.9442C21.1555 94.0963 22.7328 92.7042 24.0234 90.9524C25.5577 88.868 26.5637 86.5767 26.8431 83.9857V83.9828C27.106 83.4946 26.9987 82.9556 27.0446 82.4427C27.2365 80.3883 27.0543 78.3633 26.3974 76.3964ZM21.839 83.2988C21.6674 83.701 21.6084 84.1249 21.5547 84.5546C21.1874 85.5978 20.731 86.5989 20.1891 87.5618C19.8725 87.9558 19.5559 88.3531 19.2422 88.7476C19.1136 88.8655 18.9874 88.9835 18.8613 89.099C18.6089 89.2469 18.3677 89.4079 18.1932 89.652C18.0641 89.7569 17.9327 89.8613 17.8012 89.9682C16.9886 90.2659 16.1755 90.5666 15.3654 90.8668C13.8146 90.993 12.2779 91.0597 10.7755 90.5076C8.10915 89.5259 6.61208 87.5 5.79659 84.9007C5.03767 82.4751 5.04298 80.0132 5.80481 77.5957C7.0684 73.5879 10.1027 71.2057 14.3923 71.563C15.9532 71.692 17.268 72.303 18.5263 73.1379C18.9797 73.6019 19.4302 74.066 19.8836 74.5329C20.2027 75.0642 20.5222 75.5979 20.8412 76.132C21.0293 76.5932 21.2139 77.0519 21.402 77.5111C21.386 77.5595 21.3938 77.5996 21.4262 77.6397C21.5257 77.9887 21.6248 78.3401 21.721 78.6916C21.7263 78.7907 21.7317 78.8927 21.7346 78.9922C21.7263 79.1527 21.6326 79.3354 21.8341 79.4505C21.8423 79.4964 21.8501 79.5414 21.8554 79.5873C21.8607 79.6274 21.8636 79.668 21.866 79.7081C21.866 79.7135 21.8689 79.7188 21.8689 79.7241C21.8714 79.7671 21.8713 79.8072 21.8743 79.8503V79.8662C21.8772 79.901 21.8772 79.9363 21.8796 79.9711C21.8849 80.1852 21.8931 80.4004 21.9627 80.6092C21.9709 80.6392 21.9816 80.6682 21.9951 80.6981C21.9975 81.0844 21.9975 81.4682 22.0004 81.8515C21.8714 82.3252 21.8477 82.811 21.839 83.2988Z" fill="black"/>
<path d="M5.14746 93.8971C5.17936 93.8628 5.20837 93.8357 5.23495 93.8149C5.21997 93.8821 5.20498 93.9353 5.14746 93.8971Z" fill="black"/>
<path d="M100.702 13.8101C99.9768 13.8101 99.2503 13.5427 98.6823 13.0042C97.5067 11.8886 97.4578 10.0314 98.573 8.85576C103.992 3.14495 111.076 0 118.522 0C126.265 0 133.953 3.30012 138.584 8.61213C139.65 9.83366 139.523 11.6875 138.302 12.7524C137.08 13.8173 135.226 13.6907 134.162 12.4696C130.611 8.39798 124.619 5.86887 118.522 5.86887C110.67 5.86887 105.321 10.2711 102.832 12.895C102.254 13.5031 101.478 13.8101 100.702 13.8101Z" fill="black"/>
<path d="M141.758 29.2636H122.072C120.451 29.2636 119.138 27.9498 119.138 26.329C119.138 24.7081 120.452 23.3943 122.072 23.3943H141.758C143.379 23.3943 144.692 24.7081 144.692 26.329C144.692 27.9498 143.379 29.2636 141.758 29.2636Z" fill="black"/>
<path opacity="0.8" d="M141.758 29.2636H122.072C120.451 29.2636 119.138 27.9498 119.138 26.329C119.138 24.7081 120.452 23.3943 122.072 23.3943H141.758C143.379 23.3943 144.692 24.7081 144.692 26.329C144.692 27.9498 143.379 29.2636 141.758 29.2636Z" fill="black"/>
<path d="M142.217 31.5675C140.676 31.0629 139.019 31.9039 138.515 33.444C135.681 42.1084 127.646 47.9299 118.523 47.9299C106.927 47.9299 97.4921 38.4955 97.4921 26.8994C97.4921 12.0669 85.4247 0 70.5927 0C55.7598 0 43.6934 12.0669 43.6934 26.8994C43.6934 41.7323 55.7603 53.7988 70.5927 53.7988C76.7101 53.7988 82.4755 51.797 87.2645 48.0106L89.9154 45.7309C91.1437 44.6733 91.282 42.8204 90.2243 41.5921C89.1662 40.3643 87.3133 40.2261 86.086 41.2832L83.5776 43.443C79.8449 46.3782 75.3561 47.9294 70.5927 47.9294C58.9961 47.9294 49.5622 38.495 49.5622 26.8989C49.5622 15.3028 58.9966 5.86839 70.5927 5.86839C82.1889 5.86839 91.6233 15.3028 91.6233 26.8989C91.6233 41.7318 103.691 53.7983 118.523 53.7983C130.192 53.7983 140.468 46.3516 144.094 35.2684C144.597 33.7288 143.757 32.0717 142.217 31.5675Z" fill="black"/>
</svg>
