<svg width="280" height="98" viewBox="0 0 280 98" fill="none" xmlns="http://www.w3.org/2000/svg">
<path d="M50.2809 27.7518L58.8068 19.2248L50.3213 10.7393L41.7943 19.2664L50.2797 27.7506L50.2809 27.7518ZM60.9321 0L52.405 8.52707L60.8893 17.0113L69.4175 8.48544L60.9321 0ZM71.7339 10.6879L63.2068 19.215L71.6922 27.7004L80.2193 19.1746L71.7339 10.6891V10.6879ZM60.8831 21.2522L52.3561 29.7792L60.8403 38.2635L69.3686 29.7376L60.8831 21.2522ZM147.232 33.3627H139.779L127.874 49.7165H117.476V33.3627H110.8V72.3007H117.476V55.9469H127.819L139.724 72.3007H147.956L133.437 52.3316L147.232 33.3627ZM273.139 33.3627V49.7165H247.909V33.3627H241.233V72.3007H247.909V55.9469H273.139V72.3007H279.814V33.3639H273.139V33.3627ZM103.243 45.4169L91.392 33.5659V33.4741H76.6408V33.5892L76.533 33.4814L64.5976 45.4181L64.6135 45.4328H64.5939V72.3019H71.2687V59.5083H96.6503V72.3019H103.325V45.4328H103.227L103.243 45.4169ZM71.2699 52.8323V48.1874L79.3085 40.1488H88.5346L96.6515 48.2658V52.8323H71.2699ZM181.246 33.3762L181.223 33.4006V33.3688H156.733V33.3933L156.717 33.3762L149.665 40.428L149.704 40.4672H149.566V65.2012H149.704L149.664 65.2428L156.716 72.2946L156.733 72.2762V72.3007H181.223V72.2701L181.246 72.2934L188.298 65.2416L188.258 65.2012H188.298V40.4672H188.259L188.298 40.428L181.246 33.3762ZM178.475 65.626H159.489L156.242 62.3804V43.2903L159.489 40.0436H178.475L181.623 43.1924V62.4771L178.475 65.626ZM233.447 48.8167H202.226V43.1801L205.367 40.0387H233.023V33.3615H202.645V33.4055L202.601 33.3627L195.55 40.4145L195.563 40.4267H195.55V55.4902H226.772V62.4833L223.631 65.6248H195.55V72.3007H226.352V72.2566L226.395 72.3007L233.448 65.2489L233.434 65.2367H233.448V54.2917L233.447 48.8167ZM57.3352 45.4169L45.4842 33.5659V33.4741H37.5117V33.5892L37.404 33.4814L28.7606 42.1236L20.203 33.5659V33.4741H12.2329V33.5892L12.1252 33.4814L0.189762 45.4181L0.205678 45.4328H0.187314V72.3019H6.86205V48.1874L14.8994 40.1488H17.348L25.4649 48.2658V72.3019H32.1396V48.1874L40.177 40.1488H42.6268L50.7437 48.2658V72.3019H57.4184V45.4328H57.3205L57.3352 45.4169ZM0 83.7489H2.85256L1.50218 86.5721H1.3516L0 83.7489ZM0.375852 87.4291H2.46324V94.9375H0.375852V87.4291ZM4.92648 87.4291V94.9388H7.01386V91.0186C7.01386 90.4983 7.18404 90.0674 7.52439 89.727C7.86473 89.3867 8.29568 89.2165 8.816 89.2165C9.30571 89.2165 9.69502 89.3757 9.97906 89.6964C10.2655 90.0172 10.4137 90.4579 10.4235 91.0186V94.9388H12.5255V90.6881C12.5255 90.0062 12.3884 89.4087 12.113 88.8933C11.8511 88.3914 11.4492 87.9763 10.956 87.6984C10.4343 87.4123 9.84679 87.2676 9.25184 87.2785C8.76213 87.2785 8.31037 87.3666 7.90024 87.5417C7.49661 87.7119 7.1333 87.9651 6.8339 88.2848V87.4279L4.92648 87.4291ZM22.3185 87.4291H20.0658L18.0213 93.106H17.9013L15.8592 87.4291H13.5613L16.5044 94.9375H19.3582L22.3185 87.4291ZM30.8946 91.1533C30.8946 90.4126 30.7232 89.7466 30.3767 89.1553C30.0381 88.5715 29.5438 88.0934 28.9492 87.7743C28.3289 87.4402 27.6337 87.2696 26.9291 87.2785C26.2089 87.2709 25.4986 87.4466 24.865 87.789C24.2419 88.1232 23.7225 88.6222 23.3637 89.2315C23.0049 89.8407 22.8203 90.5369 22.8303 91.2439C22.8303 91.9944 23.0017 92.6604 23.3469 93.2407C23.6934 93.8222 24.1757 94.2752 24.7977 94.5996C25.4171 94.9253 26.1285 95.0881 26.9291 95.0881C27.5902 95.0881 28.1889 94.9755 28.7251 94.7502C29.2177 94.5539 29.6608 94.2512 30.0229 93.8639C30.3534 93.499 30.564 93.1011 30.6546 92.6702H28.5672C28.4105 92.9043 28.1882 93.087 27.9281 93.1954C27.6429 93.3264 27.3258 93.3913 26.9744 93.3913C26.4137 93.3913 25.9436 93.2382 25.5628 92.9322C25.1956 92.6482 24.9448 92.2398 24.8577 91.7838H30.8493C30.8799 91.5732 30.8946 91.3639 30.8946 91.1533ZM24.9017 90.4175C25.0148 89.9968 25.2728 89.6296 25.6302 89.3806C25.9962 89.121 26.4137 88.99 26.8838 88.99C27.3748 88.99 27.7935 89.1186 28.1387 89.3732C28.484 89.6291 28.7166 89.9768 28.8365 90.4175H24.9017ZM36.8421 93.3533C36.5254 93.4732 36.1889 93.5317 35.8504 93.526C35.3497 93.526 34.9347 93.4207 34.6041 93.2113C34.4484 93.118 34.3135 92.9939 34.2076 92.8465C34.1017 92.6991 34.0271 92.5316 33.9883 92.3543H31.8556C31.9658 93.2762 32.3894 93.9728 33.1252 94.4429C33.8597 94.9131 34.7645 95.1481 35.8357 95.1481C36.8568 95.1481 37.7101 94.9375 38.3969 94.5176C39.0825 94.0977 39.4253 93.5015 39.4253 92.7302C39.4253 92.249 39.2845 91.8609 39.0054 91.5671C38.6973 91.254 38.3186 91.0193 37.9011 90.8828C37.4456 90.7236 36.8727 90.5718 36.181 90.4322C36.0518 90.4018 35.9215 90.3765 35.7904 90.3563C35.2003 90.2376 34.7926 90.1323 34.5661 90.0417C34.3409 89.9511 34.2282 89.7968 34.2282 89.5764C34.2282 89.3353 34.3568 89.1626 34.6114 89.0574C34.8673 88.9533 35.155 88.9006 35.4758 88.9006C35.9165 88.9006 36.3009 88.9876 36.6327 89.1626C36.9633 89.3389 37.1775 89.596 37.2779 89.9364H39.4106C39.3004 89.0059 38.894 88.3203 38.1937 87.8796C37.4934 87.4389 36.6462 87.2185 35.6558 87.2185C35.0839 87.2155 34.5147 87.2963 33.9663 87.4585C33.43 87.6176 32.9942 87.8759 32.66 88.2322C32.3233 88.5872 32.1556 89.0402 32.1556 89.5911C32.1653 90.1017 32.3147 90.5142 32.5987 90.8301C32.884 91.146 33.2501 91.3835 33.6957 91.5439C34.1413 91.703 34.7094 91.8548 35.3999 91.9944L35.8357 92.085C36.3964 92.1842 36.7772 92.2772 36.9767 92.3629C37.1775 92.4486 37.2779 92.5906 37.2779 92.7914C37.2779 93.0509 37.1322 93.237 36.8421 93.3533ZM41.9632 85.6257V86.4827C41.9632 86.7925 41.8836 87.0275 41.7233 87.1879C41.5629 87.3471 41.3327 87.4279 41.0315 87.4279H40.1011V89.3206H41.7979V92.5808C41.7979 94.2532 42.759 95.0881 44.6811 95.0881C45.243 95.0881 45.8784 95.0232 46.5897 94.8923V93.0154C46.0651 93.1152 45.5322 93.1657 44.9982 93.166C44.5966 93.166 44.3114 93.0901 44.1412 92.9408C43.9698 92.7902 43.8853 92.5343 43.8853 92.1744V89.3218H46.5897V87.4291H43.8853V85.6257H41.9632ZM48.4066 87.4291V94.9388H50.4939V91.0186C50.4939 90.4983 50.647 90.0637 50.9518 89.7197C51.2579 89.3732 51.635 89.2006 52.0855 89.2006C52.5471 89.2006 52.9143 89.3598 53.1898 89.6744C53.4653 89.989 53.6073 90.4077 53.6183 90.9281V94.9388H55.7045V91.0186C55.7045 90.4983 55.8575 90.0637 56.1623 89.7197C56.3033 89.5534 56.4794 89.4205 56.678 89.3308C56.8767 89.241 57.0928 89.1965 57.3107 89.2006C57.7625 89.2006 58.1273 89.3598 58.4077 89.6744C58.688 89.989 58.8288 90.4077 58.8288 90.9281V94.9388H60.9309V90.5963C60.9309 89.9352 60.7938 89.3549 60.5183 88.8541C60.2494 88.3606 59.8421 87.9564 59.3467 87.6911C58.841 87.4156 58.2571 87.2773 57.596 87.2773C57.1029 87.2732 56.6153 87.3808 56.1697 87.5919C55.7387 87.7953 55.3592 88.0933 55.0593 88.4636C54.7923 88.0859 54.4327 87.7832 54.015 87.5846C53.5662 87.3745 53.0755 87.2694 52.5801 87.2773C52.1296 87.2773 51.7084 87.3654 51.3191 87.5405C50.9306 87.7142 50.5865 87.9737 50.3128 88.2995V87.4279H48.4053L48.4066 87.4291ZM70.6504 91.1533C70.6504 90.4126 70.4765 89.7466 70.1313 89.1553C69.7931 88.5717 69.2993 88.0935 68.705 87.7743C68.0847 87.4403 67.3895 87.2696 66.685 87.2785C65.9333 87.2785 65.2452 87.4487 64.6196 87.789C63.9968 88.1235 63.4776 88.6226 63.1188 89.2318C62.7601 89.841 62.5754 90.537 62.5849 91.2439C62.5849 91.9944 62.7563 92.6604 63.1027 93.2407C63.4473 93.822 63.95 94.2933 64.5523 94.5996C65.173 94.9253 65.8831 95.0881 66.685 95.0881C67.2998 95.0968 67.9102 94.9819 68.4798 94.7502C68.9723 94.5539 69.4154 94.2512 69.7775 93.8639C70.0917 93.5301 70.3099 93.1177 70.4092 92.6702H68.3218C68.1654 92.9041 67.9436 93.0868 67.684 93.1954C67.3837 93.3292 67.0578 93.3961 66.729 93.3913C66.1683 93.3913 65.6982 93.2382 65.3175 92.9322C64.9503 92.6481 64.6996 92.2397 64.6123 91.7838H70.6051C70.6345 91.5732 70.6504 91.3639 70.6504 91.1533ZM64.6576 90.4175C64.7703 89.997 65.0278 89.6298 65.3848 89.3806C65.7521 89.121 66.1683 88.99 66.6397 88.99C67.1294 88.99 67.5481 89.1186 67.8933 89.3732C68.2386 89.6291 68.4712 89.9768 68.5912 90.4175H64.6576ZM72.3766 87.4291V94.9388H74.464V91.0186C74.464 90.4983 74.6354 90.0674 74.9745 89.727C75.3149 89.3867 75.7458 89.2165 76.2661 89.2165C76.7571 89.2165 77.1452 89.3757 77.4304 89.6964C77.7157 90.0172 77.8638 90.4579 77.8736 91.0186V94.9388H79.9769V90.6881C79.9769 90.0062 79.8386 89.4087 79.5631 88.8933C79.3013 88.3914 78.8994 87.9763 78.4062 87.6984C77.8845 87.4121 77.297 87.2673 76.702 87.2785C76.2123 87.2785 75.7605 87.3666 75.3504 87.5417C74.9472 87.712 74.5843 87.9652 74.2853 88.2848V87.4279H72.3754L72.3766 87.4291ZM82.9654 85.6257V86.4827C82.9654 86.7925 82.8858 87.0275 82.7254 87.1879C82.5662 87.3471 82.3336 87.4279 82.0349 87.4279H81.1045V89.3206H82.8001V92.5808C82.8001 94.2532 83.7611 95.0881 85.6845 95.0881C86.2452 95.0881 86.8806 95.0232 87.5919 94.8923V93.0154C87.0672 93.1152 86.5344 93.1656 86.0003 93.166C85.5988 93.166 85.3135 93.0901 85.1433 92.9408C84.9719 92.7902 84.8875 92.5343 84.8875 92.1744V89.3218H87.5919V87.4291H84.8875V85.6257H82.9654ZM93.4035 89.4859H89.1688V91.3639H93.4047L93.4035 89.4859ZM95.6268 87.4291V97.9419H97.7142V94.2324C98.3098 94.786 99.0937 95.0924 99.9069 95.0894C100.574 95.1007 101.231 94.9289 101.807 94.5926C102.383 94.2562 102.855 93.7683 103.173 93.1819C103.505 92.5688 103.673 91.8809 103.663 91.1839C103.663 90.442 103.499 89.776 103.173 89.1859C102.856 88.5994 102.383 88.1113 101.807 87.7749C101.231 87.4386 100.574 87.2669 99.9069 87.2785C99.4634 87.2738 99.0237 87.3608 98.6155 87.5339C98.2072 87.7071 97.8391 87.9627 97.5342 88.2848V87.4279L95.6268 87.4291ZM98.2174 89.7711C98.5834 89.3916 99.0413 89.2006 99.5922 89.2006C100.143 89.2006 100.603 89.3916 100.973 89.7711C101.343 90.1531 101.529 90.6232 101.529 91.1839C101.529 91.7446 101.343 92.2148 100.973 92.5955C100.796 92.7818 100.581 92.9288 100.343 93.0273C100.105 93.1257 99.8495 93.1734 99.5922 93.1672C99.0413 93.1672 98.5834 92.9763 98.2174 92.5955C97.8513 92.216 97.6689 91.7446 97.6689 91.1839C97.6689 90.6232 97.8525 90.1519 98.2174 89.7711ZM106.906 94.5776C107.553 94.9216 108.276 95.0972 109.008 95.0881C109.779 95.0881 110.477 94.918 111.104 94.5788C111.728 94.236 112.223 93.7696 112.583 93.1734C112.945 92.5731 113.132 91.8837 113.124 91.1827C113.135 90.4863 112.953 89.8005 112.597 89.2015C112.242 88.6024 111.728 88.1135 111.111 87.789C110.464 87.4446 109.741 87.269 109.008 87.2785C108.237 87.2785 107.537 87.4487 106.906 87.789C106.29 88.1141 105.776 88.6033 105.421 89.2024C105.065 89.8016 104.883 90.4874 104.893 91.1839C104.893 91.9148 105.071 92.5784 105.426 93.1734C105.781 93.7684 106.276 94.2373 106.906 94.5776ZM107.582 89.7564C107.953 89.3867 108.428 89.2006 109.008 89.2006C109.579 89.2006 110.052 89.3855 110.428 89.7564C110.803 90.1274 110.991 90.6024 110.991 91.1839C110.991 91.7642 110.803 92.2405 110.428 92.6102C110.052 92.9812 109.579 93.166 109.008 93.166C108.438 93.166 107.965 92.9812 107.589 92.6102C107.215 92.2405 107.026 91.7642 107.026 91.1839C107.026 90.6024 107.211 90.1274 107.582 89.7564ZM119.718 89.7111L121.099 94.9388H123.682L125.59 87.4291H123.532L122.209 92.7155L120.828 87.4291H118.666L117.27 92.7608L115.917 87.4291H113.845L115.753 94.9375H118.336L119.718 89.7111ZM134.391 91.1533C134.391 90.4126 134.218 89.7466 133.873 89.1553C133.535 88.5715 133.04 88.0933 132.446 87.7743C131.825 87.4401 131.13 87.2695 130.426 87.2785C129.675 87.2785 128.986 87.4487 128.36 87.789C127.737 88.1236 127.218 88.6227 126.86 89.2319C126.501 89.8411 126.316 90.537 126.325 91.2439C126.325 91.9944 126.498 92.6604 126.843 93.2407C127.189 93.8211 127.691 94.2922 128.293 94.5996C128.914 94.9253 129.625 95.0881 130.426 95.0881C131.087 95.0881 131.685 94.9755 132.22 94.7502C132.714 94.5542 133.158 94.2515 133.521 93.8639C133.834 93.5296 134.051 93.1173 134.151 92.6702H132.062C131.923 92.8906 131.71 93.0656 131.425 93.1954C131.139 93.3264 130.821 93.3913 130.471 93.3913C129.91 93.3913 129.44 93.2382 129.059 92.9322C128.692 92.6482 128.441 92.2399 128.353 91.7838H134.346C134.376 91.575 134.391 91.3643 134.391 91.1533ZM128.398 90.4175C128.511 89.9968 128.769 89.6296 129.127 89.3806C129.493 89.121 129.91 88.99 130.381 88.99C130.871 88.99 131.29 89.1186 131.635 89.3732C131.98 89.6303 132.213 89.9768 132.333 90.4175H128.398ZM136.118 87.4291V94.9388H138.206V90.8828C138.206 90.4224 138.353 90.0319 138.649 89.7123C138.785 89.5582 138.952 89.4353 139.14 89.3523C139.328 89.2692 139.532 89.2279 139.737 89.2312C140.108 89.2312 140.403 89.3255 140.624 89.5165C140.844 89.7074 140.954 89.9817 140.954 90.3428V90.6428H143.042V90.1323C143.042 89.2508 142.781 88.5554 142.261 88.0437C141.74 87.5331 141.069 87.2785 140.248 87.2785C139.807 87.2785 139.395 87.3666 139.009 87.5417C138.629 87.7124 138.293 87.9664 138.025 88.2848V87.4279L136.118 87.4291ZM151.723 91.1533C151.723 90.4126 151.55 89.7466 151.205 89.1553C150.867 88.5715 150.372 88.0933 149.778 87.7743C149.157 87.4403 148.462 87.2696 147.758 87.2785C147.007 87.2785 146.318 87.4487 145.692 87.789C145.07 88.1237 144.551 88.6227 144.192 89.2316C143.834 89.8404 143.649 90.536 143.658 91.2427C143.658 91.9944 143.83 92.6604 144.175 93.2407C144.521 93.8222 145.004 94.2752 145.625 94.5996C146.244 94.9253 146.956 95.0881 147.758 95.0881C148.417 95.0881 149.016 94.9755 149.551 94.7502C150.087 94.525 150.521 94.2299 150.85 93.8639C151.182 93.499 151.392 93.1011 151.482 92.6702H149.394C149.255 92.8906 149.042 93.0656 148.757 93.1954C148.471 93.3264 148.153 93.3913 147.803 93.3913C147.242 93.3913 146.771 93.2382 146.391 92.9322C146.023 92.6486 145.772 92.2401 145.685 91.7838H151.678C151.708 91.575 151.723 91.3643 151.723 91.1533ZM145.73 90.4175C145.85 89.9878 146.093 89.6413 146.457 89.3806C146.824 89.1202 147.263 88.9834 147.712 88.99C148.202 88.99 148.622 89.1186 148.967 89.3732C149.312 89.6291 149.545 89.9768 149.665 90.4175H145.73ZM160.93 94.9375V84.2741H158.841V88.1343C158.242 87.5761 157.452 87.2693 156.634 87.2773C155.922 87.2773 155.284 87.4487 154.719 87.789C154.156 88.1261 153.694 88.6081 153.382 89.1847C153.051 89.7978 152.882 90.4858 152.893 91.1827C152.893 91.9246 153.056 92.5906 153.382 93.1807C153.708 93.7708 154.153 94.236 154.719 94.5776C155.284 94.918 155.922 95.0881 156.634 95.0881C157.104 95.0881 157.542 95 157.948 94.8249C158.354 94.6498 158.706 94.4025 159.007 94.0818V94.9388L160.93 94.9375ZM158.332 92.5955C157.961 92.975 157.505 93.166 156.964 93.166C156.413 93.166 155.953 92.975 155.582 92.5955C155.399 92.4094 155.256 92.1884 155.16 91.9456C155.065 91.7029 155.019 91.4434 155.026 91.1827C155.026 90.622 155.211 90.1519 155.582 89.7711C155.953 89.3916 156.413 89.2006 156.964 89.2006C157.219 89.1955 157.473 89.2436 157.708 89.3418C157.943 89.44 158.156 89.5862 158.332 89.7711C158.701 90.1519 158.886 90.622 158.886 91.1827C158.886 91.7434 158.701 92.2148 158.332 92.5955ZM167.148 87.4291V97.9419H169.235V94.2324C169.83 94.787 170.614 95.0935 171.428 95.0894C172.139 95.0894 172.779 94.918 173.35 94.5776C173.916 94.2422 174.381 93.7594 174.694 93.1807C175.025 92.5676 175.194 91.8796 175.183 91.1827C175.183 90.442 175.02 89.7772 174.694 89.1871C174.377 88.6004 173.904 88.1122 173.328 87.7756C172.752 87.4391 172.095 87.2671 171.428 87.2785C170.984 87.2735 170.544 87.3603 170.136 87.5335C169.727 87.7067 169.359 87.9625 169.054 88.2848V87.4279L167.148 87.4291ZM169.738 89.7711C169.914 89.5849 170.128 89.4378 170.364 89.3395C170.601 89.2412 170.856 89.1939 171.112 89.2006C171.663 89.2006 172.123 89.3916 172.494 89.7711C172.864 90.1531 173.05 90.6232 173.05 91.1839C173.05 91.7446 172.864 92.2148 172.494 92.5955C172.316 92.7817 172.101 92.9287 171.863 93.0271C171.625 93.1255 171.369 93.1733 171.112 93.1672C170.856 93.1738 170.601 93.1263 170.364 93.0278C170.127 92.9293 169.914 92.782 169.738 92.5955C169.372 92.216 169.19 91.7446 169.19 91.1839C169.19 90.6232 169.372 90.1519 169.738 89.7711ZM179.056 84.2741H176.969V94.9375H179.056V84.2741ZM185.681 90.3269C185.46 90.4273 185.091 90.4983 184.57 90.5375C182.047 90.6881 180.785 91.5047 180.785 92.9861C180.785 93.6374 181.015 94.1528 181.475 94.5323C181.936 94.9131 182.567 95.104 183.368 95.104C183.948 95.104 184.497 95.0061 185.013 94.8102C185.529 94.6143 185.946 94.3474 186.267 94.0071V94.9535L188.881 94.9375V93.106H188.009V90.3416C188.009 89.4112 187.712 88.6668 187.116 88.111C186.521 87.5564 185.721 87.2785 184.721 87.2785C183.739 87.2785 182.922 87.5282 182.272 88.029C181.621 88.5309 181.235 89.2006 181.115 90.0417H183.069C183.149 89.6903 183.326 89.421 183.602 89.23C183.877 89.0402 184.22 88.9447 184.63 88.9447C185.031 88.9447 185.361 89.0329 185.622 89.2079C185.881 89.383 186.012 89.6058 186.012 89.8764C186.011 90.0772 185.901 90.2278 185.681 90.3269ZM186.102 91.4533V91.5439C186.102 91.8854 185.999 92.205 185.793 92.5049C185.582 92.8109 185.298 93.0592 184.967 93.2272C184.622 93.406 184.254 93.4966 183.864 93.4966C183.553 93.4966 183.315 93.4341 183.15 93.3093C183.068 93.2473 183.003 93.1663 182.96 93.0732C182.916 92.9802 182.896 92.878 182.902 92.7755C182.902 92.4951 183.04 92.2772 183.315 92.1217C183.591 91.9675 184.044 91.8646 184.674 91.8144C185.005 91.7838 185.304 91.7348 185.568 91.6638C185.833 91.5941 186.011 91.523 186.102 91.4533ZM190.606 87.4291V94.9388H192.695V91.0186C192.695 90.4983 192.865 90.0674 193.205 89.727C193.545 89.3867 193.976 89.2165 194.497 89.2165C194.988 89.2165 195.376 89.3757 195.661 89.6964C195.946 90.0172 196.093 90.4579 196.103 91.0186V94.9388H198.206V90.6881C198.206 90.0062 198.068 89.4087 197.792 88.8933C197.531 88.3917 197.129 87.9767 196.637 87.6984C196.115 87.4119 195.527 87.2671 194.931 87.2785C194.44 87.2785 193.991 87.3666 193.58 87.5417C193.176 87.7123 192.813 87.9655 192.513 88.2848V87.4279L190.606 87.4291ZM201.195 85.6257V86.4827C201.195 86.7925 201.115 87.0275 200.955 87.1879C200.794 87.3471 200.564 87.4279 200.264 87.4279H199.333V89.3206H201.031V92.5808C201.031 94.2532 201.992 95.0881 203.914 95.0881C204.475 95.0881 205.11 95.0232 205.821 94.8923V93.0154C205.297 93.1152 204.764 93.1656 204.23 93.166C203.828 93.166 203.544 93.0901 203.373 92.9408C203.203 92.7902 203.118 92.5343 203.118 92.1744V89.3218H205.821V87.4291H203.118V85.6257H201.195ZM211.393 87.4291V94.9388H213.482V91.0186C213.482 90.4983 213.65 90.0674 213.992 89.727C214.332 89.3867 214.762 89.2165 215.282 89.2165C215.773 89.2165 216.161 89.3757 216.447 89.6964C216.733 90.0172 216.881 90.4579 216.89 91.0186V94.9388H218.993V90.6881C218.993 90.0062 218.855 89.4087 218.579 88.8933C218.318 88.3917 217.916 87.9767 217.424 87.6984C216.902 87.4119 216.314 87.2671 215.718 87.2785C215.255 87.2732 214.795 87.3628 214.367 87.5417C213.963 87.7121 213.6 87.9652 213.3 88.2848V87.4279L211.393 87.4291ZM228.756 94.9375V87.4291H226.668V91.348C226.668 91.8695 226.498 92.2992 226.158 92.6396C225.817 92.9812 225.386 93.1513 224.866 93.1513C224.375 93.1513 223.987 92.9885 223.702 92.6628C223.417 92.3372 223.273 91.9001 223.273 91.3492L223.259 87.4291H221.155V91.6798C221.155 92.3605 221.294 92.9579 221.569 93.4733C221.845 93.99 222.23 94.3878 222.726 94.6682C223.221 94.9486 223.789 95.0881 224.43 95.0881C224.921 95.0881 225.372 95.0012 225.782 94.8261C226.186 94.6556 226.549 94.402 226.848 94.0818V94.9388L228.756 94.9375ZM232.089 85.6257V86.4827C232.089 86.7925 232.01 87.0275 231.849 87.1879C231.69 87.3471 231.459 87.4279 231.159 87.4279H230.227V89.3206H231.925V92.5808C231.925 94.2532 232.886 95.0881 234.808 95.0881C235.369 95.0881 236.004 95.0232 236.716 94.8923V93.0154C236.191 93.1153 235.658 93.1657 235.124 93.166C234.724 93.166 234.437 93.0901 234.267 92.9408C234.097 92.7902 234.013 92.5343 234.013 92.1744V89.3218H236.716V87.4291H234.013V85.6257H232.089ZM238.533 87.4291V94.9388H240.62V90.8828C240.62 90.4224 240.768 90.0319 241.063 89.7123C241.358 89.3916 241.722 89.2312 242.153 89.2312C242.523 89.2312 242.819 89.3255 243.038 89.5165C243.258 89.7074 243.368 89.9817 243.368 90.3428V90.6428H245.456V90.1323C245.456 89.2508 245.196 88.5554 244.676 88.0437C244.154 87.5331 243.484 87.2785 242.663 87.2785C242.223 87.2785 241.81 87.3666 241.424 87.5417C241.045 87.7124 240.708 87.9664 240.44 88.2848V87.4279L238.533 87.4291ZM246.253 83.7489L247.604 86.5721H247.754L249.105 83.7489H246.253ZM248.716 87.4291H246.628V94.9375H248.716V87.4291ZM252.05 85.6257V86.4827C252.05 86.7925 251.97 87.0275 251.81 87.1879C251.649 87.3471 251.419 87.4279 251.119 87.4279H250.188V89.3206H251.886V92.5808C251.886 94.2532 252.847 95.0881 254.769 95.0881C255.33 95.0881 255.965 95.0232 256.676 94.8923V93.0154C256.152 93.1153 255.619 93.1657 255.085 93.166C254.684 93.166 254.398 93.0901 254.228 92.9408C254.058 92.7902 253.973 92.5343 253.973 92.1744V89.3218H256.676V87.4291H253.973V85.6257H252.05ZM260.581 87.4291H258.493V94.9375H260.581V87.4291ZM258.119 83.7489L259.47 86.5721H259.619L260.971 83.7489H258.119ZM264.395 94.5776C265.043 94.9216 265.766 95.0972 266.499 95.0881C267.27 95.0881 267.968 94.918 268.593 94.5788C269.219 94.236 269.712 93.7696 270.074 93.1734C270.435 92.573 270.623 91.8836 270.615 91.1827C270.615 90.4518 270.436 89.7895 270.081 89.1932C269.726 88.5981 269.215 88.1123 268.602 87.789C267.955 87.4447 267.232 87.2691 266.499 87.2785C265.729 87.2785 265.027 87.4487 264.397 87.789C263.765 88.1306 263.273 88.597 262.916 89.1932C262.56 89.7953 262.375 90.4841 262.384 91.1839C262.373 91.8803 262.556 92.5659 262.911 93.1651C263.266 93.7642 263.78 94.2523 264.395 94.5776ZM265.071 89.7564C265.442 89.3867 265.917 89.2006 266.499 89.2006C267.069 89.2006 267.542 89.3855 267.918 89.7564C268.293 90.1274 268.481 90.6024 268.481 91.1839C268.481 91.7642 268.293 92.2405 267.918 92.6102C267.542 92.9812 267.069 93.166 266.499 93.166C265.928 93.166 265.454 92.9812 265.08 92.6102C264.704 92.2405 264.517 91.7642 264.517 91.1839C264.517 90.6024 264.701 90.1274 265.071 89.7564ZM278.43 87.6984C277.908 87.412 277.32 87.2672 276.725 87.2785C276.235 87.2785 275.785 87.3666 275.375 87.5417C274.971 87.712 274.607 87.9652 274.307 88.2848V87.4279H272.4V94.9388H274.488V91.0186C274.488 90.4983 274.658 90.0674 274.999 89.727C275.339 89.3867 275.769 89.2165 276.289 89.2165C276.78 89.2165 277.169 89.3757 277.453 89.6964C277.74 90.0172 277.888 90.4579 277.898 91.0186V94.9388H280V90.6881C280 90.0062 279.862 89.4087 279.586 88.8933C279.325 88.3912 278.924 87.976 278.43 87.6984Z" fill="black"/>
</svg>
