<svg width="280" height="32" viewBox="0 0 280 32" fill="none" xmlns="http://www.w3.org/2000/svg">
<path d="M244.537 31.0575H237.257V13.6791L237.065 13.6197C236.939 13.9063 236.805 14.1893 236.687 14.4812C234.581 19.7725 232.48 25.0655 230.383 30.3603C230.173 30.895 229.937 31.1397 229.322 31.1117C228.099 31.0558 226.876 31.061 225.652 31.1117C225.063 31.1344 224.801 30.937 224.583 30.3865C222.51 25.1109 220.403 19.8511 218.304 14.5878C218.195 14.2674 218.008 13.9788 217.761 13.7472V31.047H210.385V0.643072H211.631C213.756 0.643072 215.882 0.667536 218.005 0.627344C218.605 0.61686 218.856 0.831797 219.08 1.36302C221.726 7.62823 224.388 13.8859 227.066 20.1359C227.188 20.4243 227.326 20.7056 227.512 21.1075C228.661 18.4007 229.766 15.811 230.865 13.2178C232.52 9.31045 234.185 5.40664 235.808 1.48884C236.065 0.871988 236.354 0.615112 237.07 0.615112C239.538 0.671031 242.007 0.636082 244.537 0.636082V31.0575Z" fill="black"/>
<path d="M185.473 18.682V31.0418H178.062V0.704224H203.946V18.6401H197.655L206.618 31.0156C206.317 31.0488 206.106 31.0907 205.896 31.0925C203.537 31.0925 201.178 31.0767 198.819 31.1082C198.282 31.1082 197.989 30.9195 197.697 30.4948C195.14 26.778 192.552 23.0839 190.008 19.3618C189.659 18.8376 189.279 18.6349 188.656 18.6628C187.64 18.7205 186.622 18.682 185.473 18.682ZM197.311 7.38475H185.543V11.9963H197.316L197.311 7.38475Z" fill="black"/>
<path d="M157.226 0C161.472 0.080383 165.348 1.11837 168.494 4.15195C170.94 6.51451 172.191 9.46771 172.647 12.7844C173.047 15.6974 172.979 18.6087 172.135 21.4343C170.423 27.1659 166.467 30.411 160.649 31.4245C157.772 31.9415 154.816 31.8053 151.999 31.0261C146.212 29.4097 142.345 24.6426 141.782 18.5545C141.537 15.8949 141.576 13.2597 142.28 10.6735C143.886 4.77929 147.844 1.45563 153.759 0.363471C154.893 0.143291 156.069 0.113585 157.226 0ZM165.297 16.1902C165.193 15.1085 165.145 14.268 165.023 13.4344C164.438 9.46946 161.619 6.83255 157.796 6.64557C153.651 6.44112 150.586 8.68835 149.583 12.697C149.105 14.6845 149.076 16.7532 149.495 18.7537C150.25 22.5264 153.093 24.9729 156.857 25.1249C160.761 25.2822 163.795 23.1258 164.782 19.3985C165.077 18.2854 165.154 17.1093 165.297 16.1902Z" fill="black"/>
<path d="M26.0371 18.6908H7.44591V31.0225H0V0.683228H26.0371V18.6908ZM7.44766 11.9823H19.395V7.36899H7.44766V11.9823Z" fill="black"/>
<path d="M86.1884 31.0889C83.6231 31.0889 81.1504 31.1047 78.6743 31.061C78.4506 31.061 78.1256 30.7115 78.0295 30.4459C77.0521 27.834 76.1009 25.2128 75.1759 22.5823C74.9837 22.0319 74.7216 21.8274 74.1152 21.8362C71.6431 21.8758 69.1693 21.8758 66.6937 21.8362C66.0734 21.8362 65.7798 22.0109 65.5719 22.612C64.6667 25.2192 63.6916 27.802 62.776 30.4039C62.6012 30.9194 62.3478 31.1134 61.7817 31.1029C59.4051 31.068 57.0268 31.0872 54.5332 31.0872C55.4454 28.7089 56.3174 26.4372 57.1876 24.1655C60.0849 16.5932 62.9775 9.02089 65.8655 1.44859C66.0961 0.836978 66.3652 0.602819 67.038 0.616799C69.3097 0.66398 71.5814 0.644758 73.8531 0.616799C74.3424 0.616799 74.6289 0.716404 74.8264 1.23365C78.545 11.0194 82.2787 20.7964 86.0276 30.5647C86.0783 30.6905 86.1097 30.8303 86.1884 31.0889ZM70.3861 8.82984C69.4652 11.4021 68.6212 13.7577 67.7649 16.1692H73.0195C72.1476 13.7577 71.3088 11.4161 70.3861 8.82984Z" fill="black"/>
<path d="M248.329 31.089C249.423 28.2337 250.471 25.4971 251.518 22.7641C254.241 15.6578 256.957 8.54741 259.667 1.43294C259.904 0.805599 260.191 0.609884 260.853 0.622116C263.125 0.664055 265.397 0.64658 267.668 0.630853C268.114 0.630853 268.406 0.692014 268.593 1.18305C272.336 11.0107 276.09 20.8344 279.857 30.6539C279.895 30.7587 279.927 30.8671 280 31.089C278.078 31.089 276.225 31.0977 274.378 31.089C273.601 31.089 272.641 31.2952 272.096 30.9247C271.586 30.5752 271.511 29.5879 271.252 28.8785C270.496 26.8042 269.727 24.7335 269.002 22.6488C268.804 22.0791 268.558 21.824 267.899 21.8362C265.396 21.8817 262.894 21.8729 260.385 21.8362C259.815 21.8362 259.574 22.0337 259.392 22.5474C258.473 25.1494 257.507 27.7339 256.596 30.3376C256.408 30.8776 256.186 31.117 255.562 31.1065C253.203 31.068 250.847 31.089 248.329 31.089ZM266.805 16.164C265.931 13.7403 265.094 11.3952 264.173 8.82467C263.252 11.4057 262.414 13.756 261.552 16.164H266.805Z" fill="black"/>
<path d="M123.299 7.04576V11.673H137.31V18.039H123.32V31.0226H115.879V0.719971H138.771V7.04576H123.299Z" fill="black"/>
<path d="M101.245 31.0628H93.7925V7.30791C93.4081 7.28869 93.0935 7.25898 92.7965 7.25898C89.8573 7.25898 86.9163 7.23976 83.9771 7.26946C83.3427 7.26946 83.1033 7.11744 83.1243 6.44467C83.168 4.55916 83.14 2.67016 83.14 0.713013H111.706V7.25898H101.245V31.0628Z" fill="black"/>
<path d="M30.5645 31.0453V0.719971H37.9667V24.4854H53.6134V31.0418L30.5645 31.0453Z" fill="black"/>
</svg>
