<svg width="182" height="142" viewBox="0 0 182 142" fill="none" xmlns="http://www.w3.org/2000/svg">
<path opacity="0.9" d="M84.2013 2.14606C76.6625 -1.41537 53.9876 -3.59902 32.502 21.526C11.0165 46.651 -4.28859 85.3653 1.07955 93.7815C6.4477 102.198 34.7052 90.9349 46.8972 96.3356C59.0893 101.736 108.085 153.078 132.118 138.475C153.162 125.678 138.104 88.1729 116.904 63.3273C99.5584 43.0051 108.637 13.6882 84.2013 2.14606Z" fill="#F7F7F7"/>
<path opacity="0.9" d="M83.3628 10.1008C76.6169 7.00729 56.3921 4.95362 37.3177 26.8811C18.2432 48.8086 4.73184 82.6552 9.54758 90.0511C14.3633 97.4469 38.5135 85.7423 49.4057 90.5125C60.298 95.2827 105.206 142.387 126.587 129.682C145.311 118.549 126.288 86.7106 109.58 67.1877C94.2031 49.2116 102.353 18.7899 83.3628 10.1008Z" fill="#F1F1F1"/>
<path opacity="0.9" d="M82.8565 16.0929C77.1699 12.7394 58.8103 11.5046 41.7895 31.086C24.7687 50.6674 12.7132 80.8811 17.009 87.484C21.3048 94.087 42.8424 83.6301 52.5583 87.887C62.2743 92.1438 102.314 134.186 121.382 122.838C138.085 112.895 118.848 82.9867 103.946 65.563C90.2198 49.5236 99.0844 25.6984 82.8565 16.0929Z" fill="#DFDFDF"/>
<path opacity="0.9" d="M82.2316 23.0143C77.1364 20.4147 61.4349 19.0369 46.7082 35.8953C31.9816 52.7536 21.5962 78.7884 25.3136 84.4555C29.031 90.1226 47.6636 81.154 56.0732 84.8325C64.4829 88.5109 99.1614 124.762 115.656 115.001C130.096 106.455 111.847 81.245 98.9404 66.2259C87.0538 52.3896 95.353 29.7017 82.2316 23.0143Z" fill="#C8C8C8"/>
<path opacity="0.9" d="M80.4389 30.2086C76.2795 28.3824 66.947 27.934 54.5665 40.8669C42.186 53.7999 32.8339 74.1936 35.5505 78.8599C38.2671 83.5261 53.4227 77.0012 59.9411 80.2246C66.4596 83.4481 92.436 113.551 105.947 106.337C117.769 100.014 105.109 78.2295 93.8787 65.9659C81.9661 52.9615 90.4083 34.5889 80.4389 30.2086Z" fill="#B4B4B4"/>
<path d="M60.5906 83.4351H59.1934V63.3923H70.1571V64.6921H60.5906V73.1798H69.6307V74.4796H60.5906V83.4221V83.4351Z" fill="#262424"/>
<path d="M81.9654 83.4351L81.621 81.0825H81.5105C80.9 81.9216 80.1123 82.6161 79.2033 83.1167C78.3296 83.5332 77.37 83.7381 76.4023 83.7146C75.1628 83.7912 73.9414 83.3887 72.9903 82.5902C72.5758 82.1903 72.2522 81.7059 72.0414 81.1699C71.8306 80.6339 71.7375 80.0589 71.7685 79.4837C71.7475 78.8108 71.904 78.1442 72.2222 77.551C72.5405 76.9578 73.0094 76.4588 73.5817 76.1043C74.7905 75.3027 76.5409 74.8695 78.8329 74.8045L81.6664 74.72V73.7321C81.7473 72.6032 81.4476 71.4797 80.8151 70.5412C80.4664 70.1585 80.0338 69.8619 79.5512 69.6747C79.0685 69.4875 78.549 69.4148 78.0335 69.4623C76.5318 69.4938 75.0601 69.8885 73.7442 70.6126L73.2373 69.4363C74.7481 68.6982 76.4041 68.3053 78.0855 68.286C79.7189 68.286 80.9407 68.7193 81.7509 69.5858C82.5611 70.4523 82.9641 71.776 82.9597 73.5567V83.4611H81.9589L81.9654 83.4351ZM76.4868 82.4733C77.1774 82.5341 77.873 82.4426 78.5244 82.2053C79.1758 81.9679 79.7672 81.5905 80.2569 81.0996C80.7465 80.6088 81.1224 80.0164 81.3581 79.3644C81.5938 78.7124 81.6835 78.0166 81.621 77.3261V75.8638L79.0214 75.9743C76.9287 76.0739 75.4383 76.401 74.5501 76.9556C74.1107 77.2252 73.7535 77.6101 73.5175 78.0684C73.2815 78.5267 73.1756 79.0409 73.2113 79.5552C73.1881 79.9576 73.2528 80.3603 73.4009 80.7351C73.5491 81.11 73.7771 81.4481 74.0691 81.7259C74.7525 82.2698 75.6156 82.5366 76.4868 82.4733Z" fill="#262424"/>
<path d="M93.6501 68.26C94.3302 68.2638 95.0087 68.3268 95.6778 68.4485L95.4178 69.7483C94.7801 69.5898 94.1252 69.5112 93.4681 69.5143C92.8555 69.5087 92.2509 69.6533 91.7071 69.9354C91.1633 70.2175 90.6969 70.6285 90.3486 71.1325C89.5003 72.32 89.0705 73.7556 89.1268 75.2139V83.4286H87.7686V68.5459H88.9189L89.0553 71.23H89.1528C89.6066 70.3146 90.2756 69.5229 91.1025 68.9229C91.8687 68.4578 92.7544 68.2274 93.6501 68.26Z" fill="#262424"/>
<path d="M117.301 83.4351V73.6867C117.301 72.2352 117.017 71.1759 116.45 70.5087C116.117 70.1596 115.712 69.8887 115.262 69.7156C114.813 69.5425 114.33 69.4715 113.85 69.5078C112.325 69.5078 111.198 69.9281 110.47 70.7686C109.743 71.6092 109.376 72.9284 109.372 74.7265V83.4481H107.988V73.2577C107.988 70.7491 106.838 69.4927 104.537 69.4883C102.977 69.4883 101.84 69.9432 101.125 70.8531C100.41 71.763 100.053 73.2166 100.053 75.2139V83.4286H98.6943V68.546H99.8187L100.105 70.5867H100.189C100.593 69.8551 101.203 69.2585 101.944 68.8709C102.715 68.4596 103.578 68.2495 104.452 68.26C106.796 68.26 108.313 69.1417 109.002 70.9051H109.054C109.511 70.0873 110.186 69.4124 111.003 68.9554C111.858 68.4902 112.819 68.2551 113.791 68.273C115.416 68.273 116.636 68.7063 117.45 69.5728C118.265 70.4393 118.672 71.8171 118.672 73.7061V83.4546H117.327L117.301 83.4351Z" fill="#262424"/>
<path d="M123.272 64.4126C123.272 63.5461 123.561 63.1129 124.137 63.1129C124.265 63.1112 124.392 63.1419 124.506 63.2021C124.619 63.2623 124.716 63.35 124.787 63.4573C124.964 63.7502 125.048 64.0903 125.027 64.4321C125.046 64.7738 124.962 65.1131 124.787 65.407C124.718 65.5171 124.622 65.6078 124.508 65.6703C124.395 65.7329 124.267 65.7653 124.137 65.7644C123.561 65.7471 123.272 65.2965 123.272 64.4126ZM124.819 83.4351H123.448V68.546H124.806V83.4351H124.819Z" fill="#262424"/>
<path d="M140.184 83.4352V73.7907C140.184 72.2917 139.87 71.2085 139.242 70.5413C138.852 70.1753 138.389 69.8953 137.884 69.7196C137.38 69.5438 136.843 69.4761 136.31 69.5209C134.53 69.5209 133.23 69.9715 132.411 70.8727C131.592 71.7739 131.178 73.2318 131.17 75.2465V83.4612H129.812V68.5461H130.962L131.222 70.5868H131.306C132.272 69.0357 133.993 68.2601 136.466 68.2601C139.846 68.2601 141.536 70.0733 141.536 73.6998V83.4482H140.197L140.184 83.4352Z" fill="#262424"/>
<path d="M157.958 68.5461V69.4884L154.877 69.6834C155.671 70.6262 156.108 71.8177 156.112 73.0498C156.136 73.6989 156.021 74.3456 155.774 74.9464C155.528 75.5473 155.155 76.0884 154.682 76.5333C153.624 77.4601 152.246 77.938 150.841 77.8656C150.365 77.878 149.889 77.8498 149.418 77.7811C148.936 78.0167 148.514 78.3589 148.183 78.7819C147.913 79.132 147.764 79.5612 147.761 80.0037C147.747 80.2098 147.79 80.4156 147.885 80.5989C147.981 80.7823 148.124 80.936 148.3 81.0436C148.867 81.3059 149.491 81.4199 150.113 81.375H152.713C154.024 81.2902 155.326 81.6347 156.424 82.3564C156.859 82.6979 157.205 83.1402 157.432 83.6451C157.658 84.1501 157.758 84.7026 157.724 85.2549C157.751 85.9746 157.588 86.6888 157.253 87.3262C156.918 87.9637 156.421 88.5021 155.813 88.8878C154.539 89.7544 152.724 90.1876 150.367 90.1876C148.842 90.2798 147.324 89.9033 146.019 89.1088C145.527 88.7791 145.127 88.329 144.857 87.8012C144.588 87.2734 144.457 86.6855 144.479 86.0933C144.447 85.1522 144.788 84.2368 145.428 83.5457C146.133 82.8303 147.04 82.3473 148.027 82.1614C147.605 81.9894 147.235 81.7092 146.955 81.349C146.689 81.0026 146.547 80.5769 146.552 80.1402C146.552 79.1437 147.187 78.2772 148.456 77.5406C147.62 77.2107 146.91 76.6235 146.429 75.8639C145.941 75.0852 145.689 74.1828 145.701 73.2643C145.671 72.6013 145.782 71.9396 146.027 71.3225C146.271 70.7054 146.642 70.1468 147.117 69.6834C148.165 68.7448 149.541 68.2588 150.945 68.3316C151.714 68.3023 152.482 68.3989 153.22 68.6176H157.984L157.958 68.5461ZM145.909 85.9503C145.909 87.9953 147.425 89.0178 150.458 89.0178C154.357 89.0178 156.307 87.7722 156.307 85.2809C156.338 84.9041 156.27 84.5257 156.11 84.1835C155.949 83.8413 155.701 83.5474 155.391 83.3312C154.475 82.86 153.447 82.6509 152.421 82.7268H149.983C147.267 82.7311 145.909 83.8056 145.909 85.9503ZM147.046 73.1863C147.017 73.6817 147.095 74.1775 147.276 74.6397C147.456 75.1019 147.735 75.5196 148.092 75.8639C148.907 76.4786 149.899 76.8111 150.919 76.8111C151.94 76.8111 152.932 76.4786 153.746 75.8639C154.093 75.5022 154.361 75.072 154.532 74.6009C154.704 74.1297 154.775 73.628 154.741 73.1278C154.78 72.6073 154.71 72.0844 154.534 71.5928C154.358 71.1013 154.081 70.6523 153.72 70.2748C152.928 69.6016 151.905 69.2616 150.867 69.3259C150.356 69.2974 149.844 69.3731 149.362 69.5485C148.881 69.7239 148.44 69.9953 148.066 70.3463C147.713 70.7263 147.441 71.1738 147.266 71.6619C147.09 72.15 147.015 72.6686 147.046 73.1863Z" fill="#262424"/>
<path opacity="0.9" d="M179.092 83.2596H167.05C165.499 83.2596 164.242 84.5166 164.242 86.0672C164.242 87.6178 165.499 88.8747 167.05 88.8747H179.092C180.643 88.8747 181.9 87.6178 181.9 86.0672C181.9 84.5166 180.643 83.2596 179.092 83.2596Z" fill="black"/>
<path d="M65.3096 40.516C64.4743 40.4807 63.6465 40.686 62.9244 41.1074C62.6215 41.2924 62.3748 41.5567 62.2111 41.8716C62.0473 42.1866 61.9726 42.5403 61.9951 42.8946C61.978 43.2544 62.0547 43.6125 62.2176 43.9337C62.3805 44.255 62.6241 44.5284 62.9244 44.7273C64.1702 45.378 65.5065 45.8381 66.8888 46.0921C68.5441 46.4179 70.1013 47.1231 71.4381 48.1522C71.9672 48.6475 72.3794 49.2545 72.6447 49.929C72.91 50.6034 73.0217 51.3286 72.9718 52.0516C72.9912 52.8523 72.8253 53.6466 72.4871 54.3726C72.1489 55.0986 71.6475 55.7366 71.0221 56.237C69.5658 57.3602 67.7576 57.9291 65.9205 57.8422C62.8817 57.8589 59.95 56.7207 57.7188 54.6577L59.8049 52.1491C61.4816 53.7525 63.6925 54.6785 66.0114 54.7487C66.9145 54.7975 67.8095 54.5561 68.5655 54.0598C68.8626 53.8567 69.1043 53.5828 69.2689 53.2628C69.4334 52.9428 69.5155 52.5868 69.5079 52.2271C69.5209 51.8803 69.4461 51.5358 69.2905 51.2257C69.1348 50.9155 68.9034 50.6497 68.6175 50.4529C67.6731 49.8904 66.6369 49.4988 65.5565 49.2961C64.4393 49.0468 63.3388 48.7277 62.2615 48.3407C61.5389 48.0659 60.8635 47.68 60.2598 47.1969C59.0944 46.3304 58.5116 44.9764 58.5116 43.135C58.4701 42.3226 58.63 41.5125 58.9769 40.7767C59.3238 40.0408 59.8471 39.4021 60.5003 38.9172C61.9329 37.8962 63.6619 37.3755 65.42 37.4354C66.6969 37.4478 67.9634 37.6673 69.1699 38.0853C70.3425 38.461 71.4338 39.054 72.3869 39.8336L70.6127 42.3422C69.9201 41.7535 69.1153 41.3113 68.2471 41.0424C67.3034 40.7071 66.311 40.5293 65.3096 40.516Z" fill="#262424"/>
<path d="M112.55 41.9522L115.189 47.9313L118.744 47.9508L114.325 37.9229H110.776L106.383 47.8858L109.925 47.9053L112.55 41.9522Z" fill="#262424"/>
<path d="M102.093 57.6277H105.641L107.617 53.1499L108.611 50.8947L105.063 50.8752L102.093 57.6277Z" fill="#262424"/>
<path d="M116.515 50.9403L117.483 53.15L119.459 57.6277H123.014L120.07 50.9598L116.515 50.9403Z" fill="#262424"/>
<path d="M120.166 50.9597L126.938 51.0117L126.919 47.9962L118.743 47.9507L120.069 50.9597H120.166Z" fill="#262424"/>
<path d="M115.188 47.9313L109.924 47.9053L108.969 50.0759L108.611 50.8948L111.965 50.9143L116.514 50.9403L116.131 50.0759L115.188 47.9313Z" fill="#262424"/>
<path d="M88.2441 50.2969L82.2975 37.9229H77.1113V57.6277H80.4388V42.2382L87.2887 55.912H89.1474L98.22 37.9229H94.1971L88.2441 50.2969Z" fill="#262424"/>
<path d="M97.771 50.9143L96.0293 50.9078V57.6278H99.3568V50.9208L97.771 50.9143Z" fill="#262424"/>
<path d="M97.771 37.9358L96.0293 37.9229V47.6908H99.3568V37.9488L97.771 37.9358Z" fill="#262424"/>
<path d="M118.743 47.9508L115.188 47.9313L116.131 50.0759L116.514 50.9403L120.069 50.9598L118.743 47.9508Z" fill="#262424"/>
<path d="M129.076 40.9383H133.307C135.092 40.9383 136.334 41.1788 137.031 41.6597C137.729 42.1406 138.075 43.0245 138.071 44.3113C138.119 44.825 138.053 45.343 137.878 45.8282C137.702 46.3135 137.422 46.7542 137.057 47.1189C136.381 47.6994 135.103 47.9897 133.223 47.9897H131.312L138.156 57.6342H142.386L137.226 50.4853C140.064 49.6188 141.483 47.5694 141.483 44.3373C141.483 42.1016 140.833 40.4747 139.533 39.4566C138.234 38.4384 136.08 37.9315 133.073 37.9358H125.749V57.6472H129.076V40.9383Z" fill="#262424"/>
<path d="M153.435 40.9644V57.6277H150.094V40.9644H144.115V37.9164H159.394V40.9644H153.415H153.435Z" fill="#262424"/>
</svg>
