<svg width="280" height="74" viewBox="0 0 280 74" fill="none" xmlns="http://www.w3.org/2000/svg">
<g clip-path="url(#clip0_202_161)">
<path fill-rule="evenodd" clip-rule="evenodd" d="M274.636 41.0129C275.376 41.923 276.167 42.6257 277 43.1343C277.84 43.643 278.84 44.0445 280 44.339L279.852 45.4633C278.272 45.4633 276.791 45.3695 275.408 45.1822C274.025 44.9949 272.753 44.6735 271.593 44.2186C270.185 43.6563 268.964 42.7195 267.927 41.4077L260.187 31.4497L265.149 25.4267C266.433 23.8742 267.297 22.7231 267.741 21.9735C268.112 21.3311 268.297 20.8091 268.297 20.4075C268.297 19.6045 267.593 19.0691 266.187 18.8014V17.6771H277.444V18.8014C275.296 19.2833 273.481 20.0462 272 21.0901C270.889 21.8933 269.408 23.3254 267.556 25.3866L264.532 28.813L274.636 41.0129Z" fill="black"/>
<path fill-rule="evenodd" clip-rule="evenodd" d="M237.448 31.8111L234.077 22.4955L230.88 31.8111H237.448ZM254.853 26.5911C254.853 23.1112 254.594 21.0099 254.076 20.2871C253.681 19.725 252.31 19.2298 249.965 18.8014V17.6772H264.63V18.8014C262.31 19.2298 260.952 19.7116 260.557 20.247C260.013 20.9966 259.742 23.1112 259.742 26.5911V36.0675C259.742 39.5474 260.001 41.6487 260.52 42.3715C260.914 42.9336 262.285 43.4288 264.63 43.8572V44.9815C255.545 44.9815 246.46 44.9815 237.373 44.9815V43.8572C238.534 43.643 239.336 43.3887 239.781 43.0942C240.225 42.7998 240.448 42.2911 240.448 41.5683C240.448 41.0864 240.349 40.491 240.15 39.7815C239.953 39.0722 239.62 38.0618 239.15 36.7499L238.262 34.2204H230.189L229.522 36.2682C228.83 38.4096 228.485 39.989 228.485 41.0063C228.485 42.077 228.868 42.7998 229.633 43.1746C230.102 43.4154 231.176 43.643 232.856 43.8572V44.9815H221.337V43.8572C222.794 43.3754 223.701 42.9604 224.06 42.6123C224.417 42.2643 224.745 41.7156 225.041 40.966L227.454 34.8628L233.225 20.247L232.856 19.0424C233.522 18.7747 234.157 18.3732 234.762 17.8378C235.368 17.3024 235.905 16.6734 236.373 15.9506H237.077L244.002 35.5052C245.188 38.7175 245.822 40.4474 245.928 40.6851C246.562 42.1071 247.916 43.1611 249.965 43.8572C252.286 43.4288 253.644 42.947 254.038 42.4116C254.582 41.662 254.853 39.5474 254.853 36.0675V26.5911Z" fill="black"/>
<path fill-rule="evenodd" clip-rule="evenodd" d="M187.154 31.8111L183.785 22.4955L180.588 31.8111H187.154ZM209.449 36.0675C209.449 38.6372 209.524 40.2567 209.672 40.9259C210.116 42.8802 211.956 43.8572 215.189 43.8572V44.9815C205.82 44.9815 196.45 44.9815 187.081 44.9815V43.8572C188.241 43.643 189.044 43.3887 189.488 43.0942C189.932 42.7998 190.154 42.2911 190.154 41.5683C190.154 41.0864 190.056 40.491 189.858 39.7815C189.661 39.0722 189.328 38.0618 188.858 36.7499L187.969 34.2204H179.896L179.229 36.2682C178.538 38.4096 178.192 39.989 178.192 41.0063C178.192 42.077 178.574 42.7998 179.34 43.1746C179.809 43.4154 180.884 43.643 182.562 43.8572V44.9815H171.045V43.8572C172.501 43.3754 173.409 42.9604 173.766 42.6123C174.125 42.2643 174.452 41.7156 174.748 40.966L177.161 34.8628L182.933 20.247L182.562 19.0424C183.229 18.7747 183.865 18.3732 184.469 17.8378C185.074 17.3024 185.612 16.6734 186.081 15.9506H186.784L193.709 35.5052C194.894 38.7175 195.529 40.4474 195.636 40.6851C196.27 42.1071 197.622 43.1611 199.672 43.8572C201.993 43.4288 203.35 42.947 203.746 42.4116C204.289 41.662 204.561 39.5474 204.561 36.0675V25.3867C204.561 22.442 204.345 20.6954 203.913 20.1466C203.481 19.5978 202.066 19.1494 199.672 18.8014V17.6772H211.19C215.116 17.6772 217.918 18.266 219.597 19.4439C221.276 20.6218 222.114 22.4152 222.114 24.8244C222.114 27.555 220.98 29.6562 218.708 31.1286C217.201 32.119 214.918 32.9354 211.857 33.5778L211.597 32.4134C213.177 31.9583 214.4 31.1888 215.264 30.1046C216.128 29.0204 216.56 27.6084 216.56 25.8684C216.56 23.6466 215.918 21.9936 214.634 20.9095C213.35 19.8254 211.622 19.2832 209.449 19.2832V36.0675Z" fill="black"/>
<path fill-rule="evenodd" clip-rule="evenodd" d="M90.0231 31.8117L86.6528 22.4961L83.4556 31.8117H90.0231ZM140.575 36.0681C140.575 39.548 140.833 41.6493 141.352 42.3721C141.748 42.9342 143.117 43.4294 145.463 43.8577V44.982H130.798C128.67 44.985 124.339 44.8844 122.521 43.4964C121.644 42.8272 120.675 41.6761 119.613 40.0432C118.799 38.785 118.033 37.4332 117.317 35.9877C116.453 34.1941 115.842 33.1636 115.484 32.896C115.126 32.6281 114.071 32.3472 112.318 32.0526V36.0681C112.318 38.6378 112.392 40.2573 112.54 40.9265C112.984 42.8806 114.824 43.8577 118.058 43.8577V44.982C108.688 44.982 99.3186 44.982 89.949 44.982V43.8577C91.1094 43.6436 91.9118 43.3893 92.3562 43.0948C92.8006 42.8004 93.0228 42.2917 93.0228 41.5689C93.0228 41.087 92.924 40.4916 92.7266 39.7821C92.529 39.0728 92.1956 38.0624 91.7266 36.7505L90.8378 34.221H82.7643L82.0976 36.2688C81.4064 38.4102 81.0607 39.9896 81.0607 41.0069C81.0607 42.0776 81.4434 42.8004 82.2087 43.1752C82.6779 43.416 83.7519 43.6436 85.4307 43.8577V44.982H73.9131V43.8577C75.3699 43.376 76.2772 42.9609 76.6352 42.6129C76.9932 42.2649 77.3203 41.7162 77.6166 40.9666L80.03 34.8634L85.8011 20.2476L85.4307 19.043C86.0975 18.7752 86.7332 18.3738 87.338 17.8384C87.943 17.3029 88.48 16.674 88.9491 15.9512H89.6527L96.5782 35.5058C97.7631 38.7181 98.3978 40.448 98.5039 40.6857C99.1383 42.1076 100.491 43.1617 102.541 43.8577C104.861 43.4294 106.219 42.9476 106.614 42.4121C107.157 41.6626 107.429 39.548 107.429 36.0681V25.3873C107.429 22.5497 107.195 20.7829 106.725 20.0869C106.158 19.2304 104.763 18.802 102.541 18.802V17.6778H114.058C117.391 17.6778 119.737 17.932 121.095 18.4406C123.539 19.3508 124.761 21.2246 124.761 24.0622C124.761 25.5613 124.311 26.8862 123.409 28.0373C122.508 29.1884 121.354 30.0584 119.947 30.6473C121.033 32.9761 122.07 34.9034 123.058 36.4293C124.391 38.4905 125.772 40.1522 127.205 41.4084C128.636 42.6613 130.18 43.1972 131.834 43.6485C133.527 43.2741 134.54 42.8622 134.872 42.4121C135.415 41.6626 135.687 39.548 135.687 36.0681V26.5917C135.687 23.1118 135.427 21.0105 134.908 20.2877C134.513 19.7256 133.143 19.2304 130.798 18.802V17.6778C140.053 17.6778 149.311 17.6778 158.567 17.6778V18.802C156.147 19.4177 154.937 20.1673 154.937 21.0506C154.937 21.7734 155.431 23.3661 156.419 25.8289L161.567 39.0794L164.788 30.3261C166.417 25.8825 167.232 22.978 167.232 21.6128C167.232 20.8365 167.023 20.2609 166.603 19.8862C166.183 19.5114 164.948 19.15 162.9 18.802V17.6778H174.491V18.802C172.639 19.0698 171.145 20.3278 170.009 22.5764C169.591 23.433 168.788 25.347 167.603 28.3184L160.567 46.1062L159.048 45.785L150.233 24.0622C149.369 21.9473 148.705 20.647 148.233 20.1673C147.891 19.8174 146.993 19.3642 145.463 18.802C143.143 19.2304 141.784 19.7122 141.389 20.2476C140.847 20.9972 140.575 23.1118 140.575 26.5917V36.0681ZM112.318 30.6473C114.219 30.6473 115.799 30.1521 117.058 29.1616C118.49 28.0373 119.206 26.458 119.206 24.4234C119.206 22.5229 118.478 21.1309 117.021 20.2476C115.836 19.5248 114.268 19.1634 112.318 19.1634V30.6473Z" fill="black"/>
<path fill-rule="evenodd" clip-rule="evenodd" d="M73.9111 64.7666V52.5341H78.5233C79.3346 52.5341 79.9553 52.574 80.3823 52.651C80.983 52.7506 81.4869 52.9415 81.8941 53.2233C82.2983 53.5025 82.6258 53.8983 82.8734 54.4025C83.1211 54.9095 83.2435 55.4648 83.2435 56.0715C83.2435 57.1109 82.9133 57.9939 82.2527 58.7144C81.5894 59.4322 80.3938 59.7937 78.6655 59.7937H75.5282V64.7666H73.9111ZM75.5282 58.3499H78.6911C79.7361 58.3499 80.4791 58.1563 80.9175 57.766C81.3559 57.3759 81.5753 56.8291 81.5753 56.1227C81.5753 55.6101 81.4471 55.1715 81.1879 54.807C80.9289 54.4423 80.5902 54.2032 80.1659 54.0864C79.8926 54.0152 79.3915 53.9781 78.657 53.9781H75.5282V58.3499ZM82.6941 64.7666L87.3917 52.5341H89.1341L94.139 64.7666H92.2942L90.8678 61.0612H85.7546L84.4137 64.7666H82.6941ZM86.2215 59.7427H90.3695L89.0913 56.3563C88.7041 55.3281 88.4137 54.4823 88.2258 53.8185C88.0693 54.6048 87.8499 55.3821 87.5653 56.1569L86.2215 59.7427ZM104.155 60.4774L105.775 60.8875C105.436 62.2147 104.824 63.2285 103.944 63.9292C103.062 64.6269 101.985 64.9744 100.71 64.9744C99.3917 64.9744 98.3213 64.7067 97.4957 64.1712C96.6699 63.6331 96.0409 62.8555 95.6109 61.8387C95.181 60.8192 94.9646 59.7255 94.9646 58.5579C94.9646 57.2847 95.2067 56.174 95.6934 55.2256C96.1803 54.2772 96.8722 53.5566 97.7718 53.0639C98.6686 52.5712 99.6565 52.3263 100.736 52.3263C101.96 52.3263 102.988 52.6367 103.822 53.2604C104.656 53.8842 105.237 54.7585 105.564 55.8892L103.973 56.2651C103.688 55.3737 103.278 54.7271 102.737 54.3199C102.199 53.9125 101.521 53.7104 100.701 53.7104C99.7618 53.7104 98.979 53.9354 98.3469 54.3854C97.7149 54.8383 97.2707 55.442 97.0174 56.2024C96.7611 56.96 96.633 57.7432 96.633 58.5492C96.633 59.5916 96.7838 60.4973 97.0857 61.2748C97.3903 62.0495 97.8601 62.6305 98.5006 63.0149C99.1411 63.3995 99.833 63.5903 100.579 63.5903C101.484 63.5903 102.25 63.3283 102.879 62.8071C103.508 62.2831 103.933 61.5055 104.155 60.4774ZM107.699 64.7666V52.5341H109.319V58.6006L115.392 52.5341H117.584L112.454 57.4897L117.809 64.7666H115.674L111.321 58.5748L109.319 60.5287V64.7666H107.699ZM117.817 64.7666L122.515 52.5341H124.257L129.262 64.7666H127.418L125.991 61.0612H120.878L119.537 64.7666H117.817ZM121.345 59.7427H125.493L124.215 56.3563C123.827 55.3281 123.537 54.4823 123.349 53.8185C123.193 54.6048 122.973 55.3821 122.689 56.1569L121.345 59.7427ZM136.277 59.9676V58.5351L141.456 58.5264V63.0633C140.662 63.6984 139.842 64.1741 138.996 64.4959C138.15 64.8149 137.282 64.9744 136.394 64.9744C135.193 64.9744 134.1 64.718 133.12 64.2027C132.138 63.69 131.398 62.9437 130.897 61.9725C130.396 60.9985 130.145 59.9106 130.145 58.7088C130.145 57.5182 130.396 56.4075 130.894 55.3765C131.389 54.3427 132.106 53.5765 133.04 53.0753C133.974 52.5769 135.05 52.3263 136.269 52.3263C137.152 52.3263 137.952 52.4687 138.666 52.7563C139.381 53.0412 139.941 53.4399 140.346 53.9526C140.753 54.4651 141.061 55.1316 141.274 55.9547L139.813 56.3563C139.629 55.7325 139.401 55.2427 139.13 54.8867C138.857 54.5307 138.466 54.2459 137.96 54.0323C137.456 53.8185 136.893 53.7104 136.277 53.7104C135.537 53.7104 134.897 53.8244 134.358 54.0493C133.817 54.2744 133.385 54.5705 133.052 54.938C132.721 55.3052 132.465 55.7069 132.28 56.1483C131.97 56.9031 131.813 57.7232 131.813 58.6089C131.813 59.6999 132.001 60.6112 132.377 61.346C132.753 62.0808 133.3 62.6248 134.017 62.9808C134.734 63.3368 135.494 63.5163 136.3 63.5163C137.004 63.5163 137.686 63.3795 138.353 63.1089C139.022 62.8412 139.526 62.5536 139.87 62.246V59.9676H136.277ZM144.118 64.7666V52.5341H145.736V64.7666H144.118ZM148.57 64.7666V52.5341H150.23L156.653 62.1377V52.5341H158.205V64.7666H156.545L150.122 55.1543V64.7666H148.57ZM166.646 59.9676V58.5351L171.825 58.5264V63.0633C171.03 63.6984 170.21 64.1741 169.365 64.4959C168.52 64.8149 167.652 64.9744 166.764 64.9744C165.562 64.9744 164.469 64.718 163.489 64.2027C162.506 63.69 161.766 62.9437 161.265 61.9725C160.765 60.9985 160.514 59.9106 160.514 58.7088C160.514 57.5182 160.765 56.4075 161.262 55.3765C161.758 54.3427 162.476 53.5765 163.409 53.0753C164.344 52.5769 165.42 52.3263 166.638 52.3263C167.521 52.3263 168.32 52.4687 169.034 52.7563C169.749 53.0412 170.31 53.4399 170.714 53.9526C171.122 54.4651 171.429 55.1316 171.642 55.9547L170.182 56.3563C169.997 55.7325 169.769 55.2427 169.5 54.8867C169.226 54.5307 168.836 54.2459 168.329 54.0323C167.825 53.8185 167.261 53.7104 166.646 53.7104C165.906 53.7104 165.265 53.8244 164.728 54.0493C164.186 54.2744 163.754 54.5705 163.421 54.938C163.09 55.3052 162.834 55.7069 162.649 56.1483C162.338 56.9031 162.182 57.7232 162.182 58.6089C162.182 59.6999 162.37 60.6112 162.746 61.346C163.122 62.0808 163.669 62.6248 164.386 62.9808C165.104 63.3368 165.864 63.5163 166.669 63.5163C167.372 63.5163 168.056 63.3795 168.722 63.1089C169.39 62.8412 169.894 62.5536 170.24 62.246V59.9676H166.646ZM179.233 64.7666V52.5341H180.85V64.7666H179.233ZM183.685 64.7666V52.5341H185.345L191.768 62.1377V52.5341H193.32V64.7666H191.66L185.237 55.1543V64.7666H183.685ZM196.021 64.7666V52.5341H197.681L204.104 62.1377V52.5341H205.656V64.7666H203.996L197.573 55.1543V64.7666H196.021ZM207.882 58.8083C207.882 56.7778 208.426 55.1885 209.517 54.0407C210.606 52.8929 212.013 52.3177 213.738 52.3177C214.866 52.3177 215.885 52.5883 216.79 53.1265C217.696 53.6677 218.388 54.4195 218.864 55.3851C219.338 56.3476 219.574 57.4443 219.574 58.666C219.574 59.9079 219.328 61.0185 218.826 61.9953C218.325 62.9751 217.616 63.7156 216.7 64.2196C215.78 64.7239 214.792 64.9744 213.73 64.9744C212.577 64.9744 211.549 64.6981 210.644 64.1399C209.736 63.5845 209.049 62.8241 208.582 61.8615C208.116 60.9017 207.882 59.8822 207.882 58.8083ZM209.55 58.834C209.55 60.3093 209.946 61.4685 210.738 62.3172C211.532 63.1659 212.526 63.5903 213.721 63.5903C214.94 63.5903 215.942 63.163 216.728 62.3058C217.513 61.4484 217.909 60.2324 217.909 58.6575C217.909 57.6635 217.738 56.7949 217.402 56.0515C217.066 55.3081 216.574 54.7328 215.928 54.3228C215.278 53.9155 214.553 53.7104 213.746 53.7104C212.6 53.7104 211.614 54.1035 210.789 54.8923C209.964 55.6784 209.55 56.9943 209.55 58.834ZM225.154 64.7666L220.417 52.5341H222.172L225.349 61.42C225.605 62.1321 225.818 62.8013 225.989 63.4223C226.18 62.7557 226.4 62.0893 226.649 61.42L229.952 52.5341H231.604L226.814 64.7666H225.154ZM230.445 64.7666L235.142 52.5341H236.885L241.889 64.7666H240.045L238.618 61.0612H233.505L232.164 64.7666H230.445ZM233.972 59.7427H238.12L236.842 56.3563C236.454 55.3281 236.165 54.4823 235.977 53.8185C235.82 54.6048 235.601 55.3821 235.316 56.1569L233.972 59.7427ZM245.028 64.7666V53.9781H240.998V52.5341H250.69V53.9781H246.644V64.7666H245.028ZM252.625 64.7666V52.5341H254.242V64.7666H252.625ZM256.602 58.8083C256.602 56.7778 257.146 55.1885 258.237 54.0407C259.328 52.8929 260.734 52.3177 262.46 52.3177C263.586 52.3177 264.606 52.5883 265.512 53.1265C266.417 53.6677 267.108 54.4195 267.584 55.3851C268.06 56.3476 268.296 57.4443 268.296 58.666C268.296 59.9079 268.048 61.0185 267.546 61.9953C267.045 62.9751 266.337 63.7156 265.42 64.2196C264.501 64.7239 263.513 64.9744 262.45 64.9744C261.297 64.9744 260.27 64.6981 259.365 64.1399C258.456 63.5845 257.77 62.8241 257.304 61.8615C256.836 60.9017 256.602 59.8822 256.602 58.8083ZM258.272 58.834C258.272 60.3093 258.666 61.4685 259.458 62.3172C260.253 63.1659 261.246 63.5903 262.442 63.5903C263.661 63.5903 264.662 63.163 265.449 62.3058C266.234 61.4484 266.63 60.2324 266.63 58.6575C266.63 57.6635 266.46 56.7949 266.124 56.0515C265.788 55.3081 265.294 54.7328 264.649 54.3228C264 53.9155 263.273 53.7104 262.468 53.7104C261.32 53.7104 260.336 54.1035 259.509 54.8923C258.684 55.6784 258.272 56.9943 258.272 58.834ZM270.365 64.7666V52.5341H272.025L278.448 62.1377V52.5341H280V64.7666H278.34L271.917 55.1543V64.7666H270.365Z" fill="black"/>
<path fill-rule="evenodd" clip-rule="evenodd" d="M59.587 73.0664H57.8398V0H59.587V73.0664Z" fill="black"/>
<path fill-rule="evenodd" clip-rule="evenodd" d="M54.9091 50.7413L39.9834 35.7725L43.2509 32.8525L43.2299 26.1828L37.637 31.7394C38.9505 32.9838 39.7699 34.744 39.7699 36.6958C39.7699 38.3693 39.1675 39.9024 38.1679 41.0898L54.9091 56.9828V73.0664H56.6562V4.72717H54.9091V50.7413ZM7.00098 12.2429V18.4265L25.9918 37.4721L22.7243 40.3922L22.7451 47.062L28.2225 41.6201C26.929 40.3778 26.1234 38.6308 26.1234 36.6958C26.1234 34.9821 26.7555 33.416 27.7986 32.2172L27.8301 32.1766L7.00098 12.2429Z" fill="black"/>
<path fill-rule="evenodd" clip-rule="evenodd" d="M66.1254 73.0664H61.4658V0H66.1254V73.0664Z" fill="black"/>
<path fill-rule="evenodd" clip-rule="evenodd" d="M0 72.8867H8.40064L34.2779 47.2511L38.2445 51.6621L47.3063 51.6339L37.5301 41.8564C36.3444 42.8299 34.8239 43.4145 33.1656 43.4145C31.792 43.4145 30.5124 43.0132 29.4397 42.3219L0 72.8867ZM66.3917 0H57.9911L32.1139 25.6356L28.1472 21.2245L19.0856 21.2527L28.9769 31.1456C29.2337 30.9728 29.5033 30.8179 29.7843 30.682C30.7821 30.1189 31.9363 29.7967 33.1656 29.7967C34.4728 29.7967 35.6941 30.1607 36.7337 30.7913L66.3917 0Z" fill="black"/>
</g>
<defs>
<clipPath id="clip0_202_161">
<rect width="280" height="73.3333" fill="white"/>
</clipPath>
</defs>
</svg>
